<svg width="24" height="24" viewBox="0 0 24 24" fill="none" xmlns="http://www.w3.org/2000/svg">
<path d="M9.961 9.13722L10.847 6.03822C11.179 4.87822 12.823 4.87822 13.155 6.03822L14.04 9.13722C14.096 9.33326 14.2011 9.51179 14.3453 9.65596C14.4894 9.80013 14.668 9.90519 14.864 9.96122L17.963 10.8462C19.123 11.1782 19.123 12.8222 17.963 13.1542L14.864 14.0392C14.668 14.0953 14.4894 14.2003 14.3453 14.3445C14.2011 14.4887 14.096 14.6672 14.04 14.8632L13.155 17.9622C12.823 19.1222 11.179 19.1222 10.847 17.9622L9.962 14.8632C9.90597 14.6672 9.80091 14.4887 9.65674 14.3445C9.51257 14.2003 9.33404 14.0953 9.138 14.0392L6.039 13.1542C4.879 12.8222 4.879 11.1782 6.039 10.8462L9.138 9.96122C9.33404 9.90519 9.51257 9.80013 9.65674 9.65596C9.80091 9.51179 9.90597 9.33326 9.962 9.13722M18.105 16.5072C18.394 15.6642 19.609 15.6632 19.897 16.5072L19.923 16.5942L20.219 17.7822L21.407 18.0792C22.367 18.3192 22.367 19.6812 21.407 19.9212L20.219 20.2182L19.923 21.4062C19.683 22.3652 18.32 22.3652 18.08 21.4062L17.783 20.2182L16.595 19.9212C15.635 19.6812 15.635 18.3182 16.595 18.0792L17.783 17.7822L18.08 16.5942L18.105 16.5072ZM19.001 18.7972C18.9434 18.8743 19.5771 18.9424 19.5 19C19.5771 19.0576 18.9434 19.1261 19.001 19.2032C19.0586 19.1261 19.1269 19.0578 19.204 19.0002C19.1268 18.9424 19.0585 18.8737 19.001 18.7962M4.105 2.50622C4.403 1.63522 5.69 1.66422 5.923 2.59322L6.219 3.78122L7.407 4.07822C8.367 4.31822 8.367 5.68022 7.407 5.92022L6.219 6.21722L5.923 7.40522C5.683 8.36422 4.32 8.36422 4.08 7.40522L3.783 6.21722L2.595 5.92022C1.635 5.68022 1.635 4.31722 2.595 4.07822L3.783 3.78122L4.08 2.59322L4.105 2.50622ZM5.001 4.79722C4.94338 4.87395 4.87501 4.94198 4.798 4.99922C4.87515 5.05708 4.94352 5.12579 5.001 5.20322C5.05848 5.12579 4.08 4.99922 4.798 4.99922C4.72092 4.94167 5.05855 4.8743 5.001 4.79722Z" fill="url(#paint0_linear_3709_58376)"/>
<defs>
<linearGradient id="paint0_linear_3709_58376" x1="12.001" y1="1.87402" x2="12.001" y2="22.1255" gradientUnits="userSpaceOnUse">
<stop stop-color="#F63D3D"/>
<stop offset="1" stop-color="#C85858"/>
</linearGradient>
</defs>
</svg>
