<svg width="24" height="24" viewBox="0 0 24 24" fill="none" xmlns="http://www.w3.org/2000/svg">
<path d="M19.5 1.5H22.5V4.5H19.5V1.5ZM19.5 6H22.5V9H19.5V6ZM15 1.5H18V4.5H15V1.5ZM15 6H18V9H15V6Z" fill="url(#paint0_linear_3709_58393)"/>
<path d="M21 12V16.5H3V4.5H12V3H3C2.60218 3 2.22064 3.15804 1.93934 3.43934C1.65804 3.72064 1.5 4.10218 1.5 4.5V16.5C1.5 16.8978 1.65804 17.2794 1.93934 17.5607C2.22064 17.842 2.60218 18 3 18H9V21H6V22.5H18V21H15V18H21C21.3978 18 21.7794 17.842 22.0607 17.5607C22.342 17.2794 22.5 16.8978 22.5 16.5V12H21ZM13.5 21H10.5V18H13.5V21Z" fill="url(#paint1_linear_3709_58393)"/>
<defs>
<linearGradient id="paint0_linear_3709_58393" x1="18.75" y1="1.5" x2="18.75" y2="9" gradientUnits="userSpaceOnUse">
<stop stop-color="#F63D3D"/>
<stop offset="1" stop-color="#C95757"/>
</linearGradient>
<linearGradient id="paint1_linear_3709_58393" x1="12" y1="3" x2="12" y2="22.5" gradientUnits="userSpaceOnUse">
<stop stop-color="#F63D3D"/>
<stop offset="1" stop-color="#C95757"/>
</linearGradient>
</defs>
</svg>
