<svg width="48" height="48" viewBox="0 0 48 48" fill="none" xmlns="http://www.w3.org/2000/svg">
<path d="M30 9.25C31.842 9.25 33.4009 10.437 33.9883 12.084L34.0479 12.25H43.5C44.6137 12.25 45.1713 13.5962 44.3838 14.3838L23.3838 35.3838C23.1494 35.6182 22.8315 35.7499 22.5 35.75H16.0479L15.9883 35.916C15.4009 37.563 13.842 38.75 12 38.75C10.158 38.75 8.59905 37.563 8.01172 35.916L7.95215 35.75H6C5.27065 35.75 4.57139 35.4601 4.05566 34.9443C3.53994 34.4286 3.25 33.7293 3.25 33V15C3.25 14.2707 3.53994 13.5714 4.05566 13.0557C4.57139 12.5399 5.27065 12.25 6 12.25H25.9521L26.0117 12.084C26.5991 10.437 28.158 9.25 30 9.25ZM12 32.75C11.5359 32.75 11.0909 32.9345 10.7627 33.2627C10.4345 33.5909 10.25 34.0359 10.25 34.5C10.25 34.9641 10.4345 35.4091 10.7627 35.7373C11.0909 36.0655 11.5359 36.25 12 36.25C12.4641 36.25 12.9091 36.0655 13.2373 35.7373C13.5655 35.4091 13.75 34.9641 13.75 34.5C13.75 34.0359 13.5655 33.5909 13.2373 33.2627C12.9091 32.9345 12.4641 32.75 12 32.75ZM5.75 33.25H7.95215L8.01172 33.084C8.59905 31.437 10.158 30.25 12 30.25C13.842 30.25 15.4009 31.437 15.9883 33.084L16.0479 33.25H21.9824L40.4824 14.75H34.0479L33.9883 14.916C33.4009 16.563 31.842 17.75 30 17.75C28.158 17.75 26.5991 16.563 26.0117 14.916L25.9521 14.75H5.75V33.25ZM30 11.75C29.5359 11.75 29.0909 11.9345 28.7627 12.2627C28.4345 12.5909 28.25 13.0359 28.25 13.5C28.25 13.9641 28.4345 14.4091 28.7627 14.7373C29.0909 15.0655 29.5359 15.25 30 15.25C30.4641 15.25 30.9091 15.0655 31.2373 14.7373C31.5655 14.4091 31.75 13.9641 31.75 13.5C31.75 13.0359 31.5655 12.5909 31.2373 12.2627C30.9091 11.9345 30.4641 11.75 30 11.75Z" fill="url(#paint0_linear_226_12)" stroke="#E7000B" stroke-width="0.5"/>
<defs>
<linearGradient id="paint0_linear_226_12" x1="24.0015" y1="9" x2="24.0015" y2="39.0001" gradientUnits="userSpaceOnUse">
<stop stop-color="#F63D3D"/>
<stop offset="1" stop-color="#C85858"/>
</linearGradient>
</defs>
</svg>
