<svg width="24" height="24" viewBox="0 0 24 24" fill="none" xmlns="http://www.w3.org/2000/svg">
<path fill-rule="evenodd" clip-rule="evenodd" d="M9.00185 19.9899C9.00139 19.9876 9.00013 19.9855 8.9983 19.984C8.99647 19.9826 8.99419 19.9818 8.99185 19.9819C7.80318 20.0713 6.61278 19.8322 5.55086 19.2907C4.48894 18.7491 3.59639 17.926 2.97084 16.9112C2.34529 15.8965 2.01082 14.7293 2.00401 13.5373C1.99721 12.3453 2.31833 11.1743 2.93226 10.1526C3.54619 9.13076 4.42928 8.29747 5.48494 7.74382C6.54061 7.19017 7.7282 6.93748 8.91782 7.01339C10.1074 7.0893 11.2533 7.49088 12.23 8.17422C13.2068 8.85755 13.9768 9.79632 14.4559 10.8879C14.7319 11.5179 15.3139 11.9999 16.0019 11.9999C17.0627 11.9999 18.0801 12.4213 18.8303 13.1714C19.5804 13.9216 20.0019 14.939 20.0019 15.9999C20.0019 17.0607 19.5804 18.0781 18.8303 18.8283C18.0801 19.5784 17.0627 19.9999 16.0019 19.9999H9.01185C9.01054 19.9999 9.00924 19.9996 9.00803 19.9991C9.00681 19.9986 9.00571 19.9979 9.00478 19.9969C9.00385 19.996 9.00312 19.9949 9.00261 19.9937C9.00211 19.9925 9.00185 19.9912 9.00185 19.9899ZM19.4619 11.7249C20.1278 11.4642 20.7118 11.0298 21.1529 10.4669C21.594 9.90399 21.8762 9.23313 21.97 8.52415C22.0639 7.81517 21.966 7.09399 21.6866 6.43568C21.4071 5.77738 20.9563 5.206 20.3811 4.78104C19.8059 4.35607 19.1273 4.09305 18.416 4.01935C17.7046 3.94565 16.9865 4.06397 16.3364 4.36199C15.6863 4.66 15.1279 5.12683 14.7195 5.71386C14.311 6.3009 14.0673 6.98669 14.0139 7.69986C14.7849 8.43196 15.4022 9.3104 15.8299 10.2839C15.8729 10.3799 15.9299 10.4459 15.9749 10.4789L16.0079 10.4989C17.3179 10.4999 18.5199 10.9589 19.4639 11.7239" fill="url(#paint0_linear_3709_58389)"/>
<defs>
<linearGradient id="paint0_linear_3709_58389" x1="12.0043" y1="3.99805" x2="12.0043" y2="20.0002" gradientUnits="userSpaceOnUse">
<stop stop-color="#F63D3D"/>
<stop offset="1" stop-color="#C95757"/>
</linearGradient>
</defs>
</svg>
