<svg width="756" height="756" viewBox="0 0 756 756" fill="none" xmlns="http://www.w3.org/2000/svg">
<path d="M486.523 235.806C491.347 239.739 495.963 243.863 500.556 248.063C502.327 249.65 502.327 249.65 504.133 251.27C520.858 267.046 532.628 286.265 541.9 307.125C542.968 309.486 542.968 309.486 544.057 311.895C560.74 351.782 560.825 401.252 545.038 441.4C543.535 444.892 541.999 448.369 540.424 451.828C539.757 453.34 539.091 454.851 538.405 456.408C518.406 499.231 480.572 529.72 437.177 546.707C403.719 558.684 361.773 560.051 327.799 549.281C326.049 548.764 324.3 548.246 322.498 547.713C301.186 540.808 281.469 529.658 264.306 515.32C262.854 514.11 261.402 512.899 259.906 511.652C228.11 484.253 204.802 443.803 200.814 401.625C197.724 350.114 207.295 301.913 242.043 262.082C244.034 259.855 246.048 257.65 248.064 255.445C249.123 254.265 250.181 253.085 251.271 251.869C267.055 235.136 286.268 223.395 307.127 214.102C308.684 213.39 310.241 212.678 311.845 211.944C367.938 188.273 438.804 198.195 486.523 235.806ZM279.072 261.352C278.033 262.147 276.994 262.943 275.923 263.763C253.337 281.959 239.014 309.519 230.346 336.656C229.589 338.952 229.589 338.952 228.817 341.294C221.795 367.291 223.287 398.329 231.822 423.774C232.131 424.705 232.439 425.637 232.757 426.598C240.496 449.385 252.837 469.128 270.213 485.789C270.7 485.789 271.187 485.789 271.689 485.789C271.695 484.9 271.7 484.011 271.706 483.096C271.768 473.776 271.87 464.458 271.996 455.139C272.037 451.669 272.069 448.199 272.089 444.729C272.121 439.718 272.19 434.708 272.266 429.697C272.268 428.166 272.27 426.635 272.272 425.057C272.599 408.459 277.623 394.35 289.408 382.43C301.556 372.092 313.572 367.615 329.275 366.188C328.759 365.084 328.244 363.98 327.712 362.842C327.04 361.388 326.368 359.934 325.676 358.436C325.008 356.997 324.34 355.558 323.652 354.075C317.997 340.802 318.186 322.159 322.723 308.509C329.6 292.862 341.556 281.383 357.33 274.733C373.156 270.227 393.108 271.114 407.533 279.07C420.188 286.778 430.815 298.843 434.942 313.314C437.407 329.143 437.211 344.432 429.681 358.805C428.676 361.257 427.686 363.716 426.728 366.188C427.836 366.315 428.944 366.443 430.085 366.574C446.398 368.813 459.84 374.45 471.025 386.859C481.005 400.631 483.267 412.45 483.449 429.12C483.492 431.556 483.492 431.556 483.536 434.042C483.624 439.201 483.692 444.361 483.761 449.521C483.817 453.031 483.875 456.541 483.934 460.05C484.075 468.63 484.201 477.209 484.314 485.789C485.967 484.397 487.616 483.002 489.263 481.604C490.182 480.827 491.101 480.05 492.047 479.25C514.017 459.669 528.391 422.828 530.414 394.023C531.142 372.748 530.907 352.534 524.181 332.227C523.612 330.508 523.043 328.789 522.457 327.018C515.96 308.999 506.527 294.021 494.65 279.07C493.451 277.5 493.451 277.5 492.228 275.898C468.517 246.559 430.005 230.064 393.448 225.222C351.023 221.225 311.838 234.808 279.072 261.352ZM348.805 311.786C342.999 320.513 343.009 329.452 344.041 339.609C346.659 349.421 353.56 356.108 361.76 361.758C370.617 366.1 380.782 366.334 390.276 363.8C399.325 359.805 406.41 352.295 410.74 343.462C413.555 334.594 413.534 324.101 409.748 315.523C404.609 306.763 396.554 299.843 386.861 296.789C369.55 294.683 359.829 298.729 348.805 311.786ZM303.805 403.748C296.496 412.716 295.196 422.252 295.006 433.617C294.978 435.223 294.949 436.829 294.92 438.484C294.834 445.753 294.762 453.022 294.716 460.291C294.684 464.129 294.634 467.967 294.565 471.805C294.466 477.347 294.425 482.888 294.397 488.431C294.356 490.149 294.315 491.867 294.273 493.637C293.976 501.786 293.976 501.786 297.245 508.886C300.445 511.119 303.194 512.367 307.127 512.367C307.127 483.619 307.127 454.87 307.127 425.25C314.923 425.25 322.719 425.25 330.752 425.25C330.752 457.41 330.752 489.569 330.752 522.703C359.8 533.596 394.258 535.17 423.775 524.18C425.693 522.593 425.693 522.593 425.429 518.826C425.426 517.098 425.423 515.37 425.419 513.59C425.42 512.639 425.42 511.688 425.42 510.709C425.419 507.553 425.408 504.397 425.396 501.241C425.393 499.058 425.391 496.876 425.39 494.693C425.384 488.937 425.369 483.182 425.353 477.426C425.338 471.557 425.331 465.688 425.324 459.82C425.308 448.296 425.282 436.773 425.252 425.25C433.048 425.25 440.844 425.25 448.877 425.25C448.877 453.999 448.877 482.747 448.877 512.367C455.981 509.82 455.981 509.82 460.689 506.461C461.357 502.982 461.357 502.982 461.239 498.882C461.248 497.299 461.257 495.716 461.267 494.085C461.253 492.366 461.24 490.647 461.226 488.875C461.226 487.108 461.227 485.341 461.228 483.521C461.224 479.771 461.21 476.021 461.186 472.271C461.151 466.561 461.155 460.852 461.165 455.142C461.157 451.498 461.146 447.853 461.133 444.209C461.135 442.51 461.136 440.812 461.137 439.062C461.01 424.406 460.323 411.534 449.407 400.696C439.241 391.525 429.329 389.645 415.782 389.598C413.934 389.589 412.085 389.579 410.181 389.57C408.181 389.567 406.182 389.566 404.182 389.565C402.108 389.56 400.034 389.555 397.959 389.55C393.619 389.541 389.279 389.538 384.939 389.539C379.408 389.539 373.878 389.519 368.348 389.494C364.065 389.477 359.782 389.474 355.499 389.475C353.462 389.473 351.424 389.467 349.387 389.455C331.453 389.363 316.532 389.64 303.805 403.748Z" fill="white"/>
<path d="M698.137 530.547C700.236 532.318 702.295 534.137 704.32 535.992C705.654 537.209 706.989 538.425 708.363 539.678C722.01 552.697 731.537 567.114 738.281 584.719C738.863 586.236 739.446 587.753 740.046 589.316C749.695 619.106 746.169 651.969 732.652 679.773C728.031 688.749 722.971 696.841 716.133 704.32C714.951 705.638 713.769 706.955 712.551 708.312C692.759 729.278 665.05 743.631 635.908 744.828C632.719 744.863 629.529 744.864 626.339 744.834C624.656 744.82 622.972 744.807 621.238 744.793C594.218 744.24 567.941 734.542 547.804 716.133C546.487 714.951 545.17 713.769 543.813 712.551C522.847 692.759 508.494 665.05 507.297 635.908C507.262 632.719 507.261 629.529 507.291 626.339C507.305 624.656 507.318 622.973 507.332 621.238C507.897 593.658 517.919 568.675 535.992 547.805C536.873 546.634 537.754 545.464 538.662 544.258C550.77 529.905 567.384 520.421 584.718 513.844C586.359 513.204 588 512.565 589.69 511.906C626.03 500.04 667.693 507.972 698.137 530.547ZM558.51 559.894C537.333 582.655 531.749 608.187 532.768 638.391C533.34 646.654 535.649 653.904 538.945 661.5C539.48 662.792 540.015 664.085 540.566 665.416C550.954 688.271 570.664 705.558 593.67 715.025C618.807 723.464 645.426 721.751 669.238 710.137C692.179 697.892 709.137 676.891 716.883 652.249C722.298 632.295 721.416 609.609 713.179 590.625C712.377 588.686 712.377 588.686 711.559 586.709C701.17 563.854 681.461 546.567 658.454 537.1C622.395 524.995 586.241 534.655 558.51 559.894Z" fill="white"/>
<path d="M202.012 530.547C204.111 532.318 206.17 534.137 208.195 535.992C209.529 537.209 210.864 538.425 212.238 539.678C225.885 552.697 235.412 567.114 242.156 584.719C242.738 586.236 243.321 587.753 243.921 589.316C253.57 619.106 250.044 651.969 236.527 679.773C231.906 688.749 226.846 696.841 220.008 704.32C218.826 705.638 217.644 706.955 216.426 708.312C196.634 729.278 168.925 743.631 139.783 744.828C136.594 744.863 133.404 744.864 130.214 744.834C128.531 744.82 126.847 744.807 125.113 744.793C98.0934 744.24 71.8155 734.542 51.6794 716.133C50.3623 714.951 49.0452 713.769 47.6881 712.551C26.722 692.759 12.3686 665.05 11.172 635.908C11.137 632.719 11.1358 629.529 11.1662 626.339C11.1796 624.656 11.1929 622.973 11.2066 621.238C11.7716 593.658 21.7941 568.675 39.8669 547.805C40.7482 546.634 41.6295 545.464 42.5374 544.258C54.6453 529.905 71.2588 520.421 88.5935 513.844C90.2342 513.204 91.8749 512.565 93.5654 511.906C129.905 500.04 171.568 507.972 202.012 530.547ZM62.3845 559.894C41.2082 582.655 35.6244 608.187 36.6427 638.391C37.2151 646.654 39.5244 653.904 42.8201 661.5C43.3549 662.792 43.8898 664.085 44.4408 665.416C54.8292 688.271 74.539 705.558 97.5452 715.025C122.682 723.464 149.301 721.751 173.113 710.137C196.054 697.892 213.012 676.891 220.758 652.249C226.173 632.295 225.291 609.609 217.054 590.625C216.252 588.686 216.252 588.686 215.434 586.709C205.045 563.854 185.336 546.567 162.329 537.1C126.27 524.995 90.1158 534.655 62.3845 559.894Z" fill="white"/>
<path d="M698.137 34.4224C700.236 36.1928 702.295 38.0121 704.32 39.8673C705.654 41.0835 706.989 42.2998 708.363 43.5529C722.01 56.5722 731.537 70.9894 738.281 88.5938C738.863 90.1108 739.446 91.6278 740.046 93.1908C749.695 122.981 746.169 155.844 732.652 183.648C728.031 192.624 722.971 200.716 716.133 208.195C714.951 209.513 713.769 210.83 712.551 212.187C692.759 233.153 665.05 247.506 635.908 248.703C632.719 248.738 629.529 248.739 626.339 248.709C624.656 248.695 622.972 248.682 621.238 248.668C594.218 248.115 567.941 238.417 547.804 220.008C546.487 218.826 545.17 217.644 543.813 216.426C522.847 196.634 508.494 168.925 507.297 139.783C507.262 136.594 507.261 133.404 507.291 130.214C507.305 128.531 507.318 126.848 507.332 125.113C507.897 97.5332 517.919 72.5496 535.992 51.6798C536.873 50.5092 537.754 49.3386 538.662 48.1325C550.77 33.7801 567.384 24.2963 584.718 17.7188C586.359 17.0793 588 16.4398 589.69 15.7808C626.03 3.91473 667.693 11.8469 698.137 34.4224ZM558.51 63.7691C537.333 86.5297 531.749 112.062 532.768 142.266C533.34 150.529 535.649 157.779 538.945 165.375C539.48 166.667 540.015 167.96 540.566 169.291C550.954 192.146 570.664 209.433 593.67 218.9C618.807 227.339 645.426 225.626 669.238 214.012C692.179 201.767 709.137 180.766 716.883 156.124C722.298 136.17 721.416 113.484 713.179 94.5001C712.377 92.5615 712.377 92.5615 711.559 90.5837C701.17 67.7294 681.461 50.4417 658.454 40.9747C622.395 28.87 586.241 38.5298 558.51 63.7691Z" fill="white"/>
<path d="M202.012 34.4224C204.111 36.1928 206.17 38.0121 208.195 39.8673C209.529 41.0835 210.864 42.2998 212.238 43.5529C225.885 56.5722 235.412 70.9894 242.156 88.5938C242.738 90.1108 243.321 91.6278 243.921 93.1908C253.57 122.981 250.044 155.844 236.527 183.648C231.906 192.624 226.846 200.716 220.008 208.195C218.826 209.513 217.644 210.83 216.426 212.187C196.634 233.153 168.925 247.506 139.783 248.703C136.594 248.738 133.404 248.739 130.214 248.709C128.531 248.695 126.847 248.682 125.113 248.668C98.0934 248.115 71.8155 238.417 51.6794 220.008C50.3623 218.826 49.0452 217.644 47.6881 216.426C26.722 196.634 12.3686 168.925 11.172 139.783C11.137 136.594 11.1358 133.404 11.1662 130.214C11.1796 128.531 11.1929 126.848 11.2066 125.113C11.7716 97.5332 21.7941 72.5496 39.8669 51.6798C40.7482 50.5092 41.6295 49.3386 42.5374 48.1325C54.6453 33.7801 71.2588 24.2963 88.5935 17.7188C90.2342 17.0793 91.8749 16.4398 93.5654 15.7808C129.905 3.91473 171.568 11.8469 202.012 34.4224ZM62.3845 63.7691C41.2082 86.5297 35.6244 112.062 36.6427 142.266C37.2151 150.529 39.5244 157.779 42.8201 165.375C43.3549 166.667 43.8898 167.96 44.4408 169.291C54.8292 192.146 74.539 209.433 97.5452 218.9C122.682 227.339 149.301 225.626 173.113 214.012C196.054 201.767 213.012 180.766 220.758 156.124C226.173 136.17 225.291 113.484 217.054 94.5001C216.252 92.5615 216.252 92.5615 215.434 90.5837C205.045 67.7294 185.336 50.4417 162.329 40.9747C126.27 28.87 90.1158 38.5298 62.3845 63.7691Z" fill="white"/>
<path d="M628.772 46.4999C633.935 47.7114 636.804 51.0063 640.544 54.6153C654.673 67.5849 670.109 72.1266 688.717 74.2374C693.499 75.5839 694.425 76.9896 696.936 81.2107C697.51 84.9601 697.51 84.9601 697.525 89.1991C697.534 90.7694 697.543 92.3397 697.552 93.9576C697.521 96.4643 697.521 96.4643 697.49 99.0217C697.471 101.594 697.471 101.594 697.451 104.219C696.903 136.84 690.616 164.127 667.838 188.711C656.239 199.816 642.365 210.579 626.338 213.732C609.114 212.383 590.946 196.209 579.755 183.822C558.798 158.978 554.959 131.454 554.817 99.9446C554.787 98.223 554.756 96.5014 554.725 94.7276C554.714 92.248 554.714 92.248 554.702 89.7182C554.688 88.2254 554.674 86.7325 554.66 85.1945C555.271 80.5706 556.34 78.5883 559.616 75.3044C563.374 74.3335 566.781 73.6829 570.598 73.1819C587.637 70.403 600.143 65.3931 612.686 53.1387C617.803 48.1963 621.563 46.3164 628.772 46.4999ZM637.874 85.6404C637.874 116.338 637.874 147.036 637.874 178.664C653.355 169.375 663.959 156.283 668.605 138.704C671.602 124.846 672.032 111.619 671.835 97.4529C670.497 97.0951 669.159 96.7372 667.78 96.3685C665.981 95.8737 664.183 95.3788 662.33 94.8689C660.565 94.3892 658.801 93.9096 656.983 93.4154C650.435 91.313 644.158 88.4333 637.874 85.6404ZM606.405 89.0549C598.002 93.3352 589.476 95.511 580.288 97.4529C579.21 122.655 581.637 146.348 598.745 165.928C603.113 170.65 607.623 174.802 612.772 178.664C613.26 178.664 613.747 178.664 614.249 178.664C614.249 147.966 614.249 117.268 614.249 85.6404C611.44 85.6404 608.81 87.7543 606.405 89.0549Z" fill="white"/>
<path d="M113.696 554.403C114.984 554.397 116.273 554.392 117.6 554.386C120.321 554.382 123.042 554.393 125.762 554.417C129.924 554.449 134.082 554.418 138.243 554.38C140.889 554.384 143.535 554.391 146.18 554.403C147.423 554.391 148.666 554.379 149.946 554.367C155.498 554.456 158.551 554.559 163.217 557.75C165.709 561.61 166.069 563.573 165.952 568.13C165.933 569.444 165.914 570.757 165.894 572.11C165.845 573.469 165.795 574.828 165.744 576.228C165.718 577.61 165.691 578.992 165.664 580.416C165.594 583.82 165.497 587.222 165.375 590.625C166.671 590.578 166.671 590.578 167.992 590.531C171.919 590.408 175.844 590.331 179.772 590.256C181.81 590.181 181.81 590.181 183.89 590.106C185.203 590.087 186.517 590.068 187.87 590.048C189.076 590.017 190.282 589.986 191.525 589.954C196.456 590.932 197.971 592.375 200.813 596.531C201.676 600.964 201.641 605.316 201.597 609.82C201.606 611.753 201.606 611.753 201.614 613.725C201.618 616.445 201.608 619.166 201.583 621.886C201.551 626.048 201.583 630.206 201.62 634.368C201.616 637.014 201.609 639.659 201.597 642.305C201.609 643.547 201.621 644.79 201.633 646.071C201.545 651.623 201.441 654.675 198.25 659.341C194.39 661.833 192.427 662.193 187.87 662.077C186.557 662.058 185.243 662.039 183.89 662.019C182.531 661.969 181.172 661.92 179.772 661.869C178.39 661.842 177.008 661.816 175.584 661.788C172.18 661.719 168.778 661.622 165.375 661.5C165.422 662.795 165.422 662.795 165.469 664.117C165.592 668.043 165.669 671.969 165.744 675.896C165.794 677.255 165.843 678.614 165.894 680.015C165.923 681.985 165.923 681.985 165.952 683.994C165.999 685.804 165.999 685.804 166.046 687.65C165.068 692.581 163.625 694.096 159.469 696.937C155.037 697.801 150.684 697.765 146.18 697.722C144.891 697.727 143.603 697.733 142.275 697.739C139.555 697.743 136.834 697.732 134.114 697.707C129.952 697.676 125.794 697.707 121.632 697.745C118.987 697.741 116.341 697.733 113.696 697.722C111.831 697.74 111.831 697.74 109.929 697.758C104.377 697.669 101.325 697.565 96.6589 694.375C94.167 690.515 93.8067 688.552 93.9236 683.994C93.9521 682.024 93.9521 682.024 93.9812 680.015C94.0555 677.976 94.0555 677.976 94.1312 675.896C94.1578 674.514 94.1845 673.133 94.2119 671.709C94.2814 668.304 94.3785 664.903 94.5003 661.5C93.2048 661.546 93.2048 661.546 91.8832 661.594C87.957 661.717 84.0312 661.793 80.1039 661.869C78.7448 661.918 77.3858 661.968 75.9856 662.019C74.0156 662.047 74.0156 662.047 72.0058 662.077C70.7996 662.108 69.5933 662.138 68.3505 662.17C63.4197 661.193 61.9046 659.75 59.0628 655.594C58.1996 651.161 58.2351 646.809 58.2784 642.305C58.2728 641.016 58.2671 639.727 58.2613 638.4C58.2573 635.679 58.2681 632.959 58.2928 630.238C58.3245 626.076 58.2931 621.918 58.2553 617.757C58.2592 615.111 58.2668 612.466 58.2784 609.82C58.2665 608.577 58.2545 607.334 58.2422 606.054C58.3311 600.502 58.4349 597.45 61.6252 592.783C65.4855 590.292 67.4486 589.931 72.0058 590.048C73.9758 590.077 73.9758 590.077 75.9856 590.106C78.0242 590.18 78.0242 590.18 80.1039 590.256C81.4857 590.282 82.8676 590.309 84.2913 590.336C87.6959 590.406 91.0973 590.503 94.5003 590.625C94.4694 589.761 94.4385 588.898 94.4066 588.008C94.2836 584.082 94.2069 580.156 94.1312 576.228C94.0817 574.869 94.0322 573.51 93.9812 572.11C93.9622 570.797 93.9432 569.483 93.9236 568.13C93.8926 566.924 93.8617 565.718 93.8298 564.475C95.9551 553.757 104.742 554.317 113.696 554.403ZM118.125 578.812C118.07 580.893 118.015 582.973 117.958 585.117C117.861 587.845 117.763 590.573 117.664 593.301C117.631 594.673 117.597 596.044 117.563 597.457C117.511 598.775 117.458 600.093 117.404 601.451C117.366 602.665 117.327 603.879 117.287 605.13C116.495 609.119 115.532 610.438 112.219 612.773C109.005 613.412 109.005 613.412 105.327 613.529C104.008 613.581 102.69 613.634 101.332 613.687C99.2752 613.737 99.2752 613.737 97.1766 613.788C95.0938 613.864 95.0938 613.864 92.969 613.941C89.5426 614.063 86.1152 614.159 82.6878 614.25C82.6878 622.046 82.6878 629.842 82.6878 637.875C84.7682 637.93 86.8486 637.985 88.9921 638.042C91.7203 638.139 94.4485 638.237 97.1766 638.336C98.548 638.37 99.9194 638.403 101.332 638.437C102.65 638.49 103.969 638.542 105.327 638.596C107.148 638.654 107.148 638.654 109.005 638.713C112.994 639.505 114.314 640.468 116.649 643.781C117.287 646.995 117.287 646.995 117.404 650.674C117.483 652.651 117.483 652.651 117.563 654.668C117.596 656.039 117.63 657.411 117.664 658.824C117.74 660.906 117.74 660.906 117.817 663.031C117.939 666.458 118.034 669.885 118.125 673.312C125.922 673.312 133.718 673.312 141.75 673.312C141.806 671.232 141.861 669.152 141.918 667.008C142.015 664.28 142.113 661.552 142.212 658.824C142.245 657.452 142.278 656.081 142.313 654.668C142.365 653.35 142.417 652.032 142.471 650.674C142.51 649.46 142.549 648.246 142.588 646.995C143.381 643.006 144.344 641.686 147.657 639.351C150.87 638.713 150.87 638.713 154.549 638.596C155.867 638.543 157.185 638.491 158.543 638.437C160.6 638.387 160.6 638.387 162.699 638.336C164.088 638.286 165.476 638.235 166.907 638.183C170.333 638.062 173.76 637.966 177.188 637.875C177.188 630.079 177.188 622.282 177.188 614.25C175.107 614.195 173.027 614.139 170.884 614.083C168.155 613.986 165.427 613.888 162.699 613.788C161.328 613.755 159.956 613.722 158.543 613.687C157.225 613.635 155.907 613.583 154.549 613.529C152.728 613.471 152.728 613.471 150.87 613.412C146.881 612.619 145.562 611.657 143.227 608.344C142.588 605.13 142.588 605.13 142.471 601.451C142.419 600.133 142.367 598.815 142.313 597.457C142.263 595.4 142.263 595.4 142.212 593.301C142.161 591.913 142.111 590.524 142.059 589.093C141.937 585.667 141.841 582.24 141.75 578.812C133.954 578.812 126.158 578.812 118.125 578.812Z" fill="white"/>
<path d="M631.969 555.187C634.748 557.091 634.748 557.091 637.504 559.638C638.529 560.58 639.554 561.522 640.61 562.492C645.864 567.514 651.056 572.587 656.188 577.734C657.879 579.422 657.879 579.422 659.603 581.144C661.961 583.501 664.317 585.86 666.672 588.221C670.288 591.845 673.913 595.462 677.538 599.078C679.835 601.376 682.132 603.674 684.428 605.973C685.514 607.056 686.599 608.139 687.718 609.254C688.714 610.255 689.711 611.256 690.737 612.288C692.056 613.608 692.056 613.608 693.402 614.956C697.365 619.28 697.251 623.182 697.567 628.912C696.638 633.428 694.602 635.026 691.032 637.875C686.579 638.452 686.579 638.452 681.803 638.244C680.212 638.191 678.621 638.138 676.981 638.083C675.771 638.014 674.56 637.946 673.313 637.875C673.36 640.244 673.36 640.244 673.407 642.661C673.514 648.527 673.582 654.394 673.638 660.261C673.667 662.799 673.708 665.337 673.759 667.875C673.83 671.526 673.864 675.175 673.89 678.827C673.92 679.959 673.951 681.091 673.982 682.258C673.984 687.202 673.88 690.289 670.829 694.283C666.627 697.542 664.511 697.684 659.24 697.702C657.604 697.72 655.968 697.739 654.282 697.758C652.523 697.746 650.763 697.734 648.95 697.722C646.23 697.73 646.23 697.73 643.456 697.739C639.623 697.743 635.791 697.732 631.958 697.707C626.085 697.676 620.215 697.707 614.343 697.745C610.621 697.741 606.899 697.733 603.176 697.722C600.537 697.74 600.537 697.74 597.844 697.758C596.208 697.74 594.572 697.721 592.887 697.702C591.449 697.697 590.011 697.692 588.529 697.687C583.595 696.716 581.837 694.989 578.813 691.031C578.298 686.764 578.122 683.079 578.236 678.827C578.245 677.655 578.253 676.484 578.262 675.276C578.295 671.545 578.369 667.815 578.444 664.084C578.474 661.55 578.501 659.016 578.525 656.482C578.59 650.279 578.692 644.077 578.813 637.875C577.603 637.943 576.392 638.012 575.145 638.083C572.758 638.163 572.758 638.163 570.323 638.244C568.747 638.313 567.171 638.381 565.547 638.452C561.094 637.875 561.094 637.875 557.628 635.245C554.698 631.311 554.081 628.184 554.338 623.293C555.383 619.436 556.959 617.57 559.656 614.633C560.596 613.607 561.535 612.58 562.503 611.522C567.51 606.255 572.588 601.069 577.735 595.937C579.423 594.247 579.423 594.247 581.145 592.522C583.502 590.164 585.861 587.808 588.222 585.454C591.846 581.837 595.463 578.213 599.078 574.588C601.376 572.291 603.675 569.994 605.974 567.698C607.057 566.612 608.139 565.526 609.255 564.408C610.256 563.411 611.257 562.415 612.289 561.388C613.169 560.509 614.049 559.63 614.956 558.724C619.887 554.205 625.615 553.828 631.969 555.187ZM621.812 588.612C620.165 590.268 620.165 590.268 618.484 591.957C616.7 593.746 616.7 593.746 614.879 595.571C613.636 596.832 612.394 598.093 611.113 599.392C609.859 600.647 608.604 601.903 607.312 603.196C601.385 608.081 601.385 608.081 598.008 614.25C616.525 614.25 635.041 614.25 654.118 614.25C648.235 607.387 642.397 600.783 636.03 594.409C635.25 593.61 634.469 592.812 633.665 591.989C631.682 589.998 629.617 588.089 627.54 586.195C624.345 585.872 624.345 585.872 621.812 588.612ZM602.438 637.875C602.438 649.569 602.438 661.264 602.438 673.312C618.031 673.312 633.623 673.312 649.688 673.312C649.688 661.618 649.688 649.924 649.688 637.875C634.096 637.875 618.503 637.875 602.438 637.875Z" fill="white"/>
<path d="M118.127 59.0625C125.923 59.0625 133.719 59.0625 141.752 59.0625C141.752 63.4479 141.752 67.8333 141.752 72.3516C142.726 72.6256 143.701 72.8997 144.705 73.1821C152.616 76.973 160.071 82.7312 163.9 90.8086C165.377 95.9766 165.377 95.9766 165.377 106.312C157.093 106.312 148.81 106.312 140.275 106.312C139.3 103.876 138.326 101.44 137.322 98.9297C133.189 96.8635 130.079 97.0801 125.509 97.4531C122.556 98.9297 122.556 98.9297 121.08 101.883C120.305 107.839 120.305 107.839 122.747 113.101C126.582 115.976 130.137 116.423 134.83 117.294C147.309 119.992 155.188 125.361 162.423 135.844C167.183 145.362 167.04 157.307 164.465 167.509C160.981 175.371 154.726 181.284 147.658 186.047C144.734 186.778 144.734 186.778 141.752 187.523C141.752 191.909 141.752 196.294 141.752 200.812C133.955 200.812 126.159 200.812 118.127 200.812C118.127 196.427 118.127 192.042 118.127 187.523C116.665 187.112 116.665 187.112 115.173 186.693C107.262 182.902 99.8072 177.144 95.9781 169.066C94.5016 163.898 94.5016 163.898 94.5016 153.562C102.785 153.562 111.069 153.562 119.603 153.562C120.578 155.999 121.552 158.435 122.556 160.945C126.689 163.012 129.799 162.795 134.369 162.422C137.322 160.945 137.322 160.945 138.798 157.992C139.573 152.036 139.573 152.036 137.132 146.774C133.296 143.899 129.741 143.452 125.048 142.581C112.569 139.883 104.69 134.514 97.4547 124.031C92.6956 114.513 92.8379 102.568 95.4129 92.3659C98.897 84.5037 105.152 78.5908 112.22 73.8281C114.169 73.3409 116.118 72.8536 118.127 72.3516C118.127 67.9662 118.127 63.5808 118.127 59.0625Z" fill="white"/>
<path d="M720.562 364.711C720.562 373.969 720.562 383.227 720.562 392.766C712.279 392.279 703.995 391.791 695.461 391.289C695.461 383.006 695.461 374.722 695.461 366.188C703.904 364.077 711.862 364.624 720.562 364.711Z" fill="white"/>
<path d="M276.117 679.219C279.782 680.127 283.441 681.052 287.099 681.987C288.143 682.244 289.187 682.501 290.263 682.766C292.955 683.462 295.614 684.285 298.266 685.125C300.653 689.9 298.278 694.437 296.881 699.337C296.593 700.38 296.305 701.423 296.008 702.498C295.293 705.077 294.566 707.652 293.836 710.227C287.504 709.42 281.559 708.361 275.471 706.443C274.194 706.045 272.917 705.647 271.601 705.237C270.655 704.935 269.709 704.632 268.734 704.32C269.528 695.193 272.493 687.595 276.117 679.219Z" fill="white"/>
<path d="M51.6797 268.734C60.4337 270.457 68.4948 272.803 76.7812 276.117C75.9118 279.785 75.0167 283.442 74.105 287.099C73.8604 288.143 73.6158 289.187 73.3638 290.263C72.6771 292.971 71.7877 295.625 70.875 298.266C65.1578 300.171 61.3625 298.595 55.8325 296.881C54.8666 296.593 53.9006 296.305 52.9053 296.008C50.5246 295.295 48.1485 294.567 45.7734 293.836C46.5796 287.504 47.6389 281.559 49.5571 275.471C49.9549 274.194 50.3527 272.917 50.7626 271.601C51.0652 270.655 51.3679 269.709 51.6797 268.734Z" fill="white"/>
<path d="M462.164 45.7734C471.094 46.5853 478.858 48.5852 487.266 51.6797C486.595 54.2344 485.916 56.7873 485.235 59.3394C484.67 61.4721 484.67 61.4721 484.093 63.6479C482.913 67.6592 481.502 71.4529 479.883 75.3047C471.54 74.4171 464.14 72.2404 456.258 69.3984C456.678 66.8435 457.112 64.2907 457.55 61.7388C457.79 60.3169 458.029 58.8951 458.277 57.4302C459.182 53.2887 460.476 49.6535 462.164 45.7734Z" fill="white"/>
<path d="M295.313 47.2499C296.099 50.0753 296.864 52.9065 297.62 55.7402C298.048 57.3162 298.476 58.8922 298.917 60.5159C299.699 64.7374 299.718 66.9118 298.266 70.8749C295.684 71.6226 293.1 72.3586 290.514 73.0898C289.075 73.5009 287.636 73.912 286.153 74.3356C282.023 75.3046 282.023 75.3046 276.117 75.3046C274.881 71.9228 273.651 68.5388 272.426 65.1533C272.074 64.192 271.722 63.2308 271.359 62.2405C268.734 54.9673 268.734 54.9673 268.734 51.6796C271.773 50.6432 274.82 49.6331 277.871 48.6342C279.567 48.0689 281.262 47.5036 283.01 46.9212C287.892 45.7821 290.574 45.831 295.313 47.2499Z" fill="white"/>
<path d="M685.125 457.734C693.801 458.548 701.822 459.872 710.227 462.164C709.415 471.094 707.415 478.858 704.32 487.266C695.113 486.465 687.723 483.494 679.219 479.883C681.168 472.574 683.117 465.265 685.125 457.734Z" fill="white"/>
<path d="M39.8672 315.984C48.5092 316.745 56.5963 318.131 64.9688 320.414C63.9942 328.21 63.0197 336.007 62.0156 344.039C58.148 343.826 54.2803 343.613 50.2954 343.393C48.4655 343.298 48.4655 343.298 46.5986 343.2C38.5547 342.727 38.5547 342.727 36.9141 341.086C37.0095 337.975 37.2124 334.867 37.4678 331.765C37.601 330.065 37.7342 328.366 37.8715 326.614C38.2796 322.901 38.8263 319.557 39.8672 315.984Z" fill="white"/>
<path d="M320.414 691.031C328.21 692.006 336.007 692.98 344.039 693.984C342.747 714.103 342.747 714.103 341.086 719.086C338.286 718.876 335.487 718.659 332.688 718.44C331.129 718.32 329.57 718.2 327.964 718.077C323.883 717.662 319.987 717.016 315.984 716.133C316.155 713.609 316.343 711.087 316.538 708.565C316.641 707.161 316.744 705.756 316.85 704.309C317.461 699.891 317.461 699.891 320.414 691.031Z" fill="white"/>
<path d="M479.883 682.172C481.752 686.036 481.752 686.036 483.205 690.846C483.7 692.426 484.195 694.006 484.705 695.634C485.789 699.89 485.789 699.89 485.789 704.32C482.995 705.318 480.194 706.299 477.391 707.273C475.053 708.095 475.053 708.095 472.667 708.934C468.07 710.226 468.07 710.226 460.688 710.226C458.738 702.43 456.789 694.634 454.781 686.601C475.624 679.723 475.624 679.723 479.883 682.172Z" fill="white"/>
<path d="M70.8745 457.734C71.6222 460.316 72.3582 462.9 73.0893 465.486C73.5005 466.925 73.9116 468.364 74.3352 469.847C75.3042 473.977 75.3042 473.977 75.3042 479.883C72.478 480.878 69.6469 481.86 66.8139 482.836C65.2379 483.384 63.6619 483.932 62.0382 484.497C57.5854 485.789 57.5854 485.789 51.6792 485.789C50.6809 482.995 49.6998 480.194 48.726 477.391C48.1779 475.832 47.6297 474.273 47.0649 472.667C45.8627 468.39 45.5114 465.092 45.7729 460.688C48.5668 459.899 51.3675 459.135 54.1709 458.38C55.7297 457.952 57.2886 457.524 58.8947 457.083C63.5019 456.256 66.4107 456.484 70.8745 457.734Z" fill="white"/>
<path d="M693.984 411.961C702.268 412.935 710.551 413.91 719.086 414.914C717.702 434.689 717.702 434.689 716.133 440.016C713.333 439.806 710.534 439.589 707.735 439.37C706.176 439.25 704.617 439.13 703.011 439.006C698.414 438.539 698.414 438.539 691.031 437.062C692.006 428.779 692.98 420.495 693.984 411.961Z" fill="white"/>
<path d="M716.133 315.984C716.634 318.751 717.124 321.52 717.609 324.29C717.883 325.832 718.158 327.374 718.44 328.962C719.086 333.703 719.086 333.703 719.086 342.562C706.661 343.293 706.661 343.293 693.984 344.039C693.01 336.243 692.035 328.447 691.031 320.414C711.149 315.984 711.149 315.984 716.133 315.984Z" fill="white"/>
<path d="M413.436 36.9141C416.758 37.1228 420.081 37.3397 423.402 37.5601C426.178 37.7399 426.178 37.7399 429.009 37.9234C434.108 38.3906 434.108 38.3906 440.014 39.8672C438.552 48.1507 437.09 56.4342 435.584 64.9688C427.788 63.9942 419.992 63.0197 411.959 62.0156C411.825 53.4507 412.203 45.389 413.436 36.9141Z" fill="white"/>
<path d="M435.586 692.508C436.56 700.304 437.535 708.1 438.539 716.133C421.242 719.508 421.242 719.508 413.438 719.086C411.192 714.594 411.408 709.812 411.13 704.874C411.067 703.831 411.003 702.788 410.937 701.713C410.781 699.137 410.632 696.561 410.484 693.984C413.835 693.449 417.189 692.929 420.543 692.415C422.411 692.124 424.278 691.833 426.202 691.533C431.156 691.031 431.156 691.031 435.586 692.508Z" fill="white"/>
<path d="M62.0145 410.484C62.989 418.768 63.9636 427.051 64.9676 435.586C47.6708 438.961 47.6708 438.961 39.8661 438.539C39.3607 436.296 38.8719 434.05 38.3895 431.802C38.1154 430.552 37.8413 429.301 37.559 428.013C36.8116 423.108 36.815 418.391 36.913 413.438C40.2654 412.941 43.6186 412.45 46.972 411.961C49.7729 411.55 49.7729 411.55 52.6303 411.13C57.5848 410.484 57.5848 410.484 62.0145 410.484Z" fill="white"/>
<path d="M704.32 268.734C705.315 271.807 706.297 274.884 707.273 277.963C708.096 280.532 708.096 280.532 708.935 283.154C710.227 287.93 710.227 287.93 710.227 293.836C702.43 295.785 694.634 297.734 686.602 299.742C683.296 291.693 681.469 284.782 680.695 276.117C684.077 274.881 687.461 273.651 690.847 272.426C691.808 272.074 692.769 271.722 693.759 271.359C701.033 268.734 701.033 268.734 704.32 268.734Z" fill="white"/>
<path d="M342.563 36.9139C344.034 45.3737 344.157 53.4265 344.039 62.0155C336.243 62.99 328.447 63.9646 320.414 64.9686C318.952 56.6851 317.49 48.4016 315.984 39.867C325.021 38.082 333.357 36.5048 342.563 36.9139Z" fill="white"/>
<path d="M35.4375 364.711C41.239 364.665 41.239 364.665 47.1577 364.618C48.3777 364.605 49.5976 364.592 50.8545 364.578C53.5909 364.567 56.3272 364.637 59.0625 364.711C60.5391 366.187 60.5391 366.187 60.6833 371.176C60.6734 373.236 60.6557 375.295 60.6313 377.354C60.6247 378.404 60.618 379.453 60.6112 380.535C60.5937 383.135 60.5672 385.735 60.5391 388.336C56.0151 390.598 51.2815 389.964 46.3271 389.905C42.7336 389.874 39.14 389.844 35.4375 389.812C35.4375 381.529 35.4375 373.245 35.4375 364.711Z" fill="white"/>
<path d="M364.711 695.461C372.507 695.461 380.303 695.461 388.336 695.461C390.598 699.985 389.964 704.718 389.905 709.673C389.874 713.266 389.844 716.86 389.812 720.562C381.529 720.562 373.245 720.562 364.711 720.562C364.711 712.279 364.711 703.995 364.711 695.461Z" fill="white"/>
<path d="M364.711 35.4375C373.482 35.4375 382.253 35.4375 391.289 35.4375C391.41 44.2334 391.071 51.7325 389.813 60.5391C382.504 60.5391 375.195 60.5391 367.664 60.5391C365.419 56.0486 365.635 51.2633 365.357 46.3271C365.144 42.7336 364.931 39.14 364.711 35.4375Z" fill="white"/>
</svg>
