<svg width="24" height="24" viewBox="0 0 24 24" fill="none" xmlns="http://www.w3.org/2000/svg">
<path d="M8.002 20.004V21.004H4V18.004H5V20.004H8.002ZM20.004 18.004V21.004H17.004V20.004H19.004V18.004H20.004ZM16.003 21.005V23.005H9.002V21.005L9.5 20.5L10.002 20.005H12.002V19.005H11.002L10.5039 18.5L10.002 18.004V15.004L10.5039 14.5L11.002 14.003H14.003L14.5039 14.5L15.003 15.003V18.003L14.5039 18.5L14.003 19.004H13.003V20.004H15.003L15.5 20.5L16.003 21.005ZM23.005 15.003V17.003H16.003V15.003L16.5039 14.5L17.003 14.003H19.004V13.003H18.004L17.5 12.5L17.004 12.003V9.001L17.5 8.5L18.004 8.001H21.004L21.5 8.5L22.004 9.001V12.001L21.5 12.5L21.004 13.001H20.004V14.001H22.004L22.3789 14.5L23.005 15.003ZM8.002 15.003V17.003H1V15.003L1.50391 14.5L2 14.003H4V13.003H3L2.50391 12.5L2 12.003V9.001L2.50391 8.5L3 8.001H6.001L6.50781 8.5L7.001 9.001V12.001L6.50391 12.5L6.001 13.001H5.001V14.001H7.001L7.50391 14.5L8.002 15.003ZM8.002 3V4H5V7.001H4V3.001L8.002 3ZM20.004 3V7.001H19.004V4.001H15.004V3.001L20.004 3ZM15.003 8.002V10.002H8.002V8.002L8.50391 7.5L9.002 7.002H11.002V6.002H10.002L9.5 5.5L9.002 5V2L9.5 1.50488L10.002 1H13.002L13.5078 1.50488L14.003 2V5L13.5 5.5L13.003 6.001H12.003V7.001H14.003L14.5039 7.5L15.003 8.002Z" fill="url(#paint0_linear_3709_58370)"/>
<defs>
<linearGradient id="paint0_linear_3709_58370" x1="12.0025" y1="1" x2="12.0025" y2="23.005" gradientUnits="userSpaceOnUse">
<stop stop-color="#F63D3D"/>
<stop offset="1" stop-color="#C85757"/>
</linearGradient>
</defs>
</svg>
