<svg width="556" height="556" viewBox="0 0 556 556" fill="none" xmlns="http://www.w3.org/2000/svg">
<path d="M56.2991 78.6031C63.1608 83.7494 66.1692 88.3994 68.414 96.6483C69.2343 96.6387 70.0545 96.629 70.8996 96.6191C78.633 96.532 86.366 96.4659 94.0997 96.4233C98.0756 96.4006 102.051 96.3699 106.027 96.3206C109.864 96.2734 113.701 96.2475 117.539 96.2362C119.714 96.2243 121.889 96.1904 124.064 96.1562C125.39 96.1559 126.716 96.1555 128.082 96.1552C129.249 96.1456 130.417 96.1359 131.619 96.126C135.519 96.7967 136.578 97.8974 139 100.992C139.534 104.172 139.534 104.172 139.522 107.946C139.528 109.377 139.534 110.809 139.54 112.283C139.525 113.868 139.509 115.452 139.493 117.036C139.492 118.706 139.493 120.375 139.495 122.045C139.496 126.577 139.471 131.109 139.44 135.641C139.413 140.377 139.411 145.113 139.406 149.85C139.392 158.818 139.356 167.787 139.313 176.756C139.264 186.966 139.24 197.177 139.219 207.387C139.173 228.391 139.097 249.395 139 270.398C140.138 270.348 141.276 270.298 142.449 270.246C143.946 270.205 145.443 270.165 146.941 270.127C147.691 270.09 148.44 270.054 149.212 270.017C154.777 269.909 154.777 269.909 157.403 272.419C158.766 275.187 159.125 277.382 159.387 280.456C159.495 281.572 159.603 282.689 159.714 283.839C159.822 285.025 159.929 286.212 160.04 287.434C162.031 306.043 166.79 321.412 175.922 337.726C176.525 338.81 177.129 339.893 177.75 341.01C182.626 349.171 188.812 355.987 195.469 362.703C196.409 363.658 197.35 364.612 198.319 365.596C216.781 383.343 244.602 395.786 270.398 396.367C271.538 396.409 272.677 396.451 273.851 396.494C297.063 396.96 317.633 391.326 337.727 380.078C338.81 379.475 339.894 378.871 341.01 378.25C349.171 373.374 355.987 367.188 362.703 360.531C363.658 359.59 364.613 358.65 365.596 357.681C384.955 337.542 393.687 311.333 396.23 284.005C396.344 282.872 396.458 281.738 396.575 280.571C396.667 279.553 396.759 278.535 396.853 277.486C397.581 274.155 398.233 272.764 400.711 270.398C403.656 270.076 406.138 269.985 409.059 270.127C409.821 270.146 410.584 270.166 411.369 270.186C413.247 270.237 415.123 270.315 417 270.398C416.996 269.529 416.992 268.66 416.988 267.765C416.892 246.63 416.82 225.495 416.775 204.36C416.753 194.139 416.722 183.919 416.672 173.698C416.629 164.791 416.601 155.884 416.591 146.977C416.586 142.259 416.572 137.542 416.541 132.825C416.511 128.386 416.502 123.947 416.509 119.508C416.508 117.878 416.499 116.248 416.482 114.618C416.461 112.394 416.468 110.17 416.478 107.946C416.474 106.7 416.47 105.455 416.466 104.172C417.119 100.285 418.24 99.0072 421.344 96.6483C424.381 96.126 424.381 96.126 427.918 96.1552C429.244 96.1555 430.569 96.1559 431.936 96.1562C433.362 96.1786 434.789 96.201 436.258 96.2241C437.737 96.2322 439.216 96.2384 440.695 96.2428C444.58 96.2593 448.465 96.302 452.349 96.3501C456.316 96.3946 460.284 96.4144 464.251 96.4362C472.03 96.4828 479.808 96.5569 487.586 96.6483C488.077 94.8428 488.077 94.8428 488.579 93.0008C490.756 85.7008 495.756 80.9304 502.246 77.1015C510.25 73.5144 519.326 73.4274 527.698 75.8543C535.657 79.4215 540.492 85.1315 545.073 92.3725C548.051 100.539 547.615 111.057 544.055 118.91C539.884 125.971 533.798 131.695 525.874 134.181C514.879 136.312 506.041 134.159 496.545 128.548C492.876 124.675 487.586 118.486 487.586 112.937C469.668 112.937 451.75 112.937 433.289 112.937C433.289 164.9 433.289 216.862 433.289 270.398C443.323 270.398 453.357 270.398 463.695 270.398C463.661 267.126 463.661 267.126 463.626 263.788C463.554 256.58 463.506 249.372 463.47 242.164C463.448 237.794 463.417 233.424 463.368 229.054C463.32 224.836 463.294 220.619 463.283 216.401C463.275 214.792 463.26 213.183 463.236 211.574C463.205 209.32 463.2 207.067 463.202 204.813C463.193 203.53 463.183 202.247 463.173 200.925C463.802 196.97 464.903 195.705 468.039 193.297C470.327 192.804 470.327 192.804 472.739 192.873C474.041 192.894 474.041 192.894 475.369 192.915C476.265 192.951 477.161 192.988 478.084 193.025C478.997 193.045 479.909 193.064 480.85 193.085C483.096 193.136 485.341 193.214 487.586 193.297C487.865 192.147 488.143 190.998 488.43 189.814C490.588 183.121 494.928 178.227 500.808 174.373C509.048 170.348 517.797 169.538 526.646 171.875C535.519 175.049 540.965 181.985 545.141 190.039C547.769 197.923 547.496 208.079 543.987 215.626C538.938 224.13 531.837 228.765 522.336 231.305C514.231 232.557 506.727 230.806 499.531 226.961C494.17 222.803 490.028 218.168 487.586 211.758C487.586 211.041 487.586 210.324 487.586 209.586C485.077 209.586 482.569 209.586 479.984 209.586C479.984 229.654 479.984 249.722 479.984 270.398C484.493 270.361 489.002 270.323 493.648 270.284C497.242 270.263 500.836 270.245 504.43 270.23C508.224 270.213 512.019 270.19 515.813 270.153C520.166 270.11 524.519 270.095 528.873 270.08C530.234 270.063 531.595 270.047 532.997 270.029C534.888 270.029 534.888 270.029 536.817 270.028C537.929 270.021 539.04 270.014 540.186 270.007C542.969 270.398 542.969 270.398 544.955 271.818C547.084 274.896 546.712 278.37 546.697 281.983C546.703 282.801 546.709 283.62 546.715 284.463C546.722 286.197 546.72 287.93 546.711 289.663C546.702 292.293 546.733 294.92 546.767 297.549C546.84 313.285 546.84 313.285 541.883 320.351C535.2 327.035 528.553 329.248 519.35 330.057C505.536 331.556 493.579 336.087 484.214 346.876C474.594 360.064 472.15 372.696 473.469 388.766C475.634 399.258 481.774 407.351 488.4 415.507C493.281 421.713 494.781 427.58 494.102 435.461C491.639 449.784 476.711 460.715 466.891 470.593C465.433 472.065 463.979 473.541 462.53 475.022C460.405 477.193 458.266 479.349 456.123 481.503C455.486 482.159 454.849 482.815 454.193 483.491C447.873 489.779 440.978 493.669 432 494.373C422.534 493.752 417.041 490.271 410.051 484.085C398.546 474.11 386.217 472.672 371.58 473.279C366.299 473.703 361.928 475.377 357.273 477.812C356.26 478.34 355.246 478.868 354.202 479.412C343.648 485.511 336.075 494.391 332.297 506.047C331.054 510.794 330.286 515.557 329.705 520.427C328.632 528.955 327.244 535.571 320.593 541.403C315.395 545.283 311.608 546.36 305.252 546.419C303.932 546.433 302.612 546.447 301.253 546.461C299.824 546.469 298.395 546.477 296.923 546.485C295.83 546.492 295.83 546.492 294.714 546.499C290.853 546.521 286.991 546.537 283.13 546.547C279.158 546.559 275.187 546.596 271.216 546.639C268.148 546.668 265.08 546.677 262.012 546.681C259.842 546.689 257.672 546.717 255.502 546.746C246.569 546.725 240.455 545.947 233.451 540.025C232.725 539.13 232.725 539.13 231.983 538.218C231.482 537.627 230.981 537.036 230.465 536.428C227.185 531.142 226.587 525.483 226.011 519.417C224.363 504.993 219.292 492.207 207.618 482.835C196.109 475.103 183.337 471.188 169.406 472.858C157.916 475.266 148.569 480.924 140.175 488.96C135.481 492.871 130.285 493.872 124.34 494.509C107.504 492.705 96.8195 478.236 85.4067 466.891C83.9353 465.432 82.4591 463.979 80.9782 462.529C78.807 460.405 76.6506 458.266 74.497 456.123C73.8409 455.486 73.1848 454.849 72.5088 454.193C66.2209 447.873 62.3311 440.978 61.6269 431.999C62.2476 422.534 65.7287 417.041 71.915 410.051C81.8895 398.546 83.3277 386.217 82.7211 371.58C82.2966 366.299 80.6232 361.928 78.1875 357.273C77.6597 356.26 77.132 355.246 76.5883 354.202C70.4891 343.648 61.6088 336.075 49.9531 332.297C45.2059 331.054 40.4431 330.286 35.5729 329.705C27.0446 328.632 20.4285 327.244 14.5965 320.593C10.2395 314.755 9.59331 310.198 9.55284 303.146C9.54665 302.315 9.54046 301.484 9.53409 300.627C9.52384 298.871 9.51673 297.115 9.51255 295.358C9.50198 292.67 9.46827 289.982 9.43407 287.294C9.42698 285.587 9.42128 283.881 9.4171 282.174C9.40369 281.37 9.39029 280.565 9.37647 279.737C9.40053 274.198 9.40053 274.198 11.042 271.812C13.8266 269.833 15.7834 270.006 19.1829 270.028C20.4436 270.029 21.7043 270.029 23.0033 270.029C24.3642 270.046 25.7251 270.063 27.1272 270.08C28.5206 270.085 29.914 270.089 31.3496 270.094C35.0506 270.107 38.7512 270.139 42.4521 270.175C46.2299 270.208 50.0078 270.223 53.7857 270.239C61.196 270.272 68.6052 270.336 76.0156 270.398C76.0156 250.33 76.0156 230.262 76.0156 209.586C73.5071 209.586 70.9986 209.586 68.414 209.586C68.1117 210.93 68.1117 210.93 67.8032 212.301C64.7827 219.655 59.0964 225.357 52.125 229.133C44.0591 232.235 36.148 232.501 28.0307 229.54C19.8876 225.864 14.4773 221.028 10.7321 212.818C8.07674 203.865 8.38235 193.781 12.8107 185.47C14.7496 182.581 16.9041 180.35 19.5469 178.094C20.8907 176.918 20.8907 176.918 22.2617 175.718C28.3633 171.294 34.9491 170.413 42.3515 170.492C51.8202 172.12 58.47 176.377 64.8338 183.443C66.7742 186.546 67.5206 189.769 68.414 193.297C69.7747 193.246 71.1353 193.196 72.5372 193.144C74.3301 193.103 76.1231 193.064 77.916 193.025C78.8119 192.989 79.7078 192.952 80.6308 192.915C81.9327 192.894 81.9327 192.894 83.2608 192.873C84.057 192.85 84.8532 192.827 85.6735 192.804C89.0198 193.525 90.1886 194.98 92.3047 197.641C92.827 200.925 92.827 200.925 92.7978 204.813C92.7984 205.523 92.7991 206.233 92.7997 206.965C92.7967 209.304 92.763 211.642 92.7289 213.98C92.7208 215.606 92.7146 217.231 92.7102 218.856C92.6937 223.126 92.651 227.396 92.6029 231.667C92.5584 236.027 92.5386 240.387 92.5168 244.747C92.4702 253.298 92.3938 261.848 92.3047 270.398C102.339 270.398 112.373 270.398 122.711 270.398C122.711 218.436 122.711 166.474 122.711 112.937C104.793 112.937 86.875 112.937 68.414 112.937C67.6973 115.088 66.9806 117.238 66.2422 119.453C62.7683 126.517 56.8898 130.209 49.9531 133.57C42.8339 135.92 34.2571 135.751 27.352 132.891C19.7194 128.916 14.3466 124.093 10.7321 116.17C8.12576 107.382 8.28119 97.1395 12.6834 88.9662C22.5173 74.6226 40.7266 69.4153 56.2991 78.6031ZM28.2344 95.5624C25.4716 100.116 25.1707 104.482 26.0625 109.68C27.8773 113.1 30.4063 115.399 33.5283 117.688C38.6057 119.182 42.2684 118.974 46.9668 116.535C51.2776 112.91 52.9702 110.485 53.686 104.861C53.0149 99.3961 50.6406 96.447 47.0347 92.4403C40.2651 89.147 33.7609 90.7098 28.2344 95.5624ZM503.468 98.6845C501.974 103.762 502.182 107.425 504.622 112.123C508.247 116.434 510.671 118.126 516.295 118.842C521.76 118.171 524.709 115.797 528.716 112.191C530.679 108.155 530.63 104.299 529.937 99.9061C527.669 95.4503 525.849 93.0884 521.25 91.2186C512.983 89.7907 508.427 91.9224 503.468 98.6845ZM30.4062 190.039C27.0457 193.658 25.7619 196.592 25.4516 201.441C25.6991 206.877 27.5621 209.182 31.4922 212.844C35.6211 215.389 38.5523 215.177 43.2339 214.515C47.7375 213.405 50.12 211.048 52.5322 207.21C53.5357 202.695 53.5864 198.806 52.125 194.383C49.1674 190.474 45.8526 188.338 41.2656 186.713C36.8783 186.805 34.2104 187.855 30.4062 190.039ZM505.64 191.804C502.965 195.713 502.602 199.474 502.789 204.156C504.124 208.58 505.821 210.818 509.644 213.251C513.311 215.084 516.04 215.717 520.164 215.016C524.248 212.773 527.87 210.577 529.937 206.328C530.721 201.269 530.401 197.556 528.241 192.89C524.944 189.339 522.56 188.304 517.992 186.781C513.45 186.781 509.301 189.299 505.64 191.804ZM24.9765 285.601C24.9177 288.565 24.8747 291.528 24.8408 294.493C24.8226 295.328 24.8044 296.163 24.7857 297.023C24.7382 302.555 24.973 307.039 28.8113 311.367C32.9505 313.502 37.2214 313.723 41.8086 314.243C59.4864 316.598 74.1826 323.869 85.789 337.726C97.9843 355.172 101.733 374.258 98.0737 395.213C95.1437 405.371 90.4988 414.488 83.2778 422.226C80.644 425.057 79.329 426.621 77.9839 430.303C78.4837 437.633 84.9611 442.602 89.8486 447.525C91.0839 448.775 91.0839 448.775 92.3442 450.05C94.0838 451.806 95.8264 453.558 97.5718 455.307C100.238 457.987 102.884 460.685 105.529 463.386C107.224 465.091 108.92 466.795 110.617 468.497C111.405 469.306 112.192 470.115 113.004 470.948C116.335 474.25 118.558 476.446 123.087 477.865C128.722 477.762 132.217 473.946 136.285 470.414C151.995 457.682 169.494 455.745 188.953 457.18C206.433 460.128 220.943 470.018 231.182 484.146C238.474 495.078 240.565 506.36 242.728 519.159C242.9 520.117 243.073 521.076 243.25 522.064C243.384 522.887 243.519 523.711 243.657 524.559C244.493 527.171 245.425 528.271 247.594 529.937C250.817 530.958 253.76 531.166 257.129 531.181C258.155 531.188 259.181 531.195 260.238 531.202C261.338 531.203 262.439 531.204 263.573 531.206C265.28 531.211 265.28 531.211 267.021 531.217C269.427 531.222 271.832 531.225 274.237 531.225C277.914 531.227 281.591 531.247 285.269 531.267C287.607 531.27 289.945 531.273 292.283 531.274C293.381 531.281 294.48 531.289 295.611 531.297C296.641 531.294 297.67 531.291 298.73 531.287C300.081 531.289 300.081 531.289 301.46 531.292C305.342 530.891 308.439 529.786 311.367 527.189C313.502 523.049 313.723 518.778 314.243 514.191C316.598 496.513 323.869 481.817 337.727 470.211C355.173 458.016 374.258 454.267 395.213 457.926C405.371 460.856 414.488 465.501 422.226 472.722C425.057 475.356 426.621 476.671 430.303 478.016C437.634 477.516 442.602 471.039 447.525 466.151C448.358 465.328 449.192 464.504 450.05 463.656C451.806 461.916 453.558 460.173 455.307 458.428C457.987 455.762 460.686 453.116 463.386 450.471C465.091 448.776 466.795 447.08 468.497 445.383C469.71 444.201 469.71 444.201 470.948 442.996C474.25 439.665 476.446 437.442 477.865 432.913C477.762 427.278 473.946 423.783 470.415 419.715C457.696 404.021 455.718 386.493 457.18 367.047C460.246 349.486 470.778 334.621 485.024 324.182C495.634 317.313 506.864 315.349 519.159 313.272C520.597 313.013 520.597 313.013 522.064 312.75C522.888 312.616 523.711 312.481 524.559 312.343C527.171 311.507 528.271 310.575 529.937 308.406C530.869 305.41 531.153 302.728 531.129 299.6C531.124 298.372 531.124 298.372 531.119 297.118C531.11 296.274 531.101 295.43 531.091 294.56C531.084 293.269 531.084 293.269 531.076 291.952C531.064 289.835 531.044 287.718 531.023 285.601C515.751 285.576 500.478 285.557 485.205 285.545C478.114 285.54 471.023 285.532 463.932 285.52C457.095 285.508 450.258 285.501 443.421 285.498C440.807 285.496 438.192 285.492 435.577 285.487C431.929 285.479 428.28 285.478 424.632 285.478C423.539 285.474 422.446 285.47 421.32 285.466C420.332 285.468 419.343 285.469 418.325 285.471C417.461 285.47 416.597 285.469 415.707 285.468C413.719 285.387 413.719 285.387 412.656 286.687C412.355 289.034 412.059 291.382 411.79 293.732C407.527 329.68 389.934 361.636 361.617 384.422C331.662 407.083 295.445 416.249 258.249 411.502C223.582 406.44 191.462 387.902 170.237 359.844C154.418 338.17 146.713 315.076 143.68 288.628C143.532 286.667 143.532 286.667 142.258 285.601C140.733 285.498 139.203 285.469 137.675 285.471C136.686 285.469 135.698 285.468 134.68 285.466C133.587 285.47 132.494 285.474 131.368 285.478C130.224 285.478 129.08 285.478 127.902 285.478C124.1 285.478 120.298 285.487 116.496 285.495C113.869 285.497 111.241 285.499 108.613 285.5C101.68 285.504 94.7483 285.515 87.8161 285.527C80.7485 285.538 73.6809 285.543 66.6133 285.548C52.7344 285.56 38.8555 285.578 24.9765 285.601Z" fill="white"/>
<path d="M282.345 9.77327C285.194 11.334 287.403 13.3734 289.743 15.6102C290.722 16.4969 290.722 16.4969 291.721 17.4016C293.681 19.1837 295.616 20.9915 297.548 22.8045C299.6 24.6889 301.663 26.5626 303.724 28.4378C304.681 29.3169 305.639 30.196 306.625 31.1018C309.484 33.6554 312.414 36.0783 315.398 38.4827C320.324 42.456 324.977 46.6394 329.606 50.9477C333.093 54.174 336.67 57.2282 340.374 60.2015C345.622 64.425 350.578 68.8912 355.481 73.5048C358.78 76.6048 362.146 79.506 365.69 82.3275C368.642 84.9034 369.239 85.8417 370.645 89.7254C370.306 93.3905 370.306 93.3905 368.063 96.3012C364.061 99.4645 362.031 99.4543 356.982 99.3504C356.242 99.3427 355.503 99.335 354.741 99.3271C352.394 99.2969 350.05 99.2288 347.704 99.1595C346.107 99.1323 344.51 99.1075 342.913 99.0853C339.012 99.0256 335.112 98.932 331.212 98.8201C331.216 99.5707 331.22 100.321 331.224 101.095C331.32 119.357 331.392 137.62 331.437 155.882C331.459 164.714 331.49 173.546 331.539 182.377C331.583 190.075 331.611 197.772 331.62 205.47C331.626 209.546 331.639 213.622 331.671 217.698C331.706 222.248 331.707 226.797 331.705 231.348C331.72 232.699 331.736 234.05 331.752 235.443C331.746 236.684 331.74 237.925 331.734 239.203C331.738 240.279 331.742 241.355 331.746 242.464C331.051 246.309 329.63 248.127 326.868 250.851C323.536 251.398 320.804 251.595 317.472 251.554C316.525 251.564 315.578 251.573 314.603 251.583C311.474 251.607 308.346 251.591 305.217 251.573C303.043 251.576 300.868 251.581 298.693 251.588C294.136 251.596 289.579 251.585 285.022 251.559C279.179 251.528 273.337 251.546 267.494 251.579C263.004 251.598 258.514 251.592 254.023 251.578C251.869 251.574 249.715 251.579 247.56 251.591C244.549 251.605 241.54 251.584 238.53 251.554C237.638 251.565 236.747 251.576 235.828 251.587C231.774 251.512 229.675 251.386 226.732 248.482C224.528 245.01 224.252 243.273 224.268 239.203C224.262 237.962 224.256 236.721 224.249 235.443C224.265 234.091 224.281 232.74 224.297 231.348C224.296 229.917 224.295 228.486 224.295 227.012C224.294 223.097 224.319 219.183 224.349 215.268C224.377 211.174 224.379 207.079 224.384 202.985C224.398 195.236 224.433 187.486 224.477 179.737C224.526 170.913 224.549 162.089 224.571 153.265C224.617 135.116 224.693 116.968 224.79 98.8201C223.799 98.8486 222.807 98.877 221.786 98.9063C218.092 98.9991 214.4 99.067 210.705 99.1184C209.109 99.1456 207.514 99.1826 205.918 99.2298C203.619 99.296 201.321 99.3265 199.02 99.3504C197.638 99.3788 196.256 99.4073 194.832 99.4366C190.142 98.6566 188.557 97.118 185.696 93.3905C185.459 89.5474 185.757 87.1409 188.126 84.0168C189.906 82.1867 191.763 80.5237 193.705 78.866C194.737 77.9477 194.737 77.9477 195.789 77.0107C200.737 72.6412 205.834 68.458 210.987 64.3331C214.244 61.6387 217.353 58.8048 220.446 55.9256C224.473 52.1773 228.574 48.579 232.867 45.1341C237.411 41.4789 241.712 37.6473 245.966 33.6639C251.224 28.7407 256.618 24.0807 262.263 19.5976C265.482 16.9538 268.432 14.0842 271.328 11.0925C274.948 9.04177 278.365 8.93884 282.345 9.77327ZM268.702 35.7679C267.338 37.0786 265.97 38.3865 264.601 39.6917C263.926 40.3351 263.251 40.9785 262.556 41.6414C259.975 44.0424 257.271 46.2596 254.517 48.4598C250.245 51.8799 246.169 55.4564 242.165 59.1834C236.225 64.7077 230.016 69.8345 223.704 74.9295C221.127 77.062 218.603 79.2224 216.102 81.4451C216.102 81.8035 216.102 82.1619 216.102 82.5311C216.71 82.5469 217.318 82.5628 217.945 82.5791C220.702 82.66 223.458 82.7649 226.215 82.8704C227.65 82.9072 227.65 82.9072 229.115 82.9447C230.035 82.9832 230.955 83.0217 231.904 83.0613C233.175 83.104 233.175 83.104 234.471 83.1475C237.37 83.7487 238.197 84.5329 239.993 86.8748C240.411 89.5822 240.411 89.5822 240.426 92.8734C240.446 94.7441 240.446 94.7441 240.467 96.6526C240.465 98.7065 240.465 98.7065 240.463 100.802C240.472 102.257 240.484 103.713 240.496 105.168C240.526 109.122 240.536 113.074 240.543 117.028C240.553 121.158 240.581 125.289 240.608 129.419C240.655 137.242 240.686 145.064 240.711 152.887C240.746 163.457 240.806 174.027 240.865 184.597C240.957 201.252 241.015 217.907 241.079 234.562C265.447 234.562 289.816 234.562 314.923 234.562C314.963 223.939 315.004 213.316 315.046 202.37C315.079 195.655 315.112 188.939 315.15 182.223C315.209 171.555 315.265 160.887 315.299 150.22C315.324 142.451 315.36 134.683 315.41 126.914C315.436 122.8 315.456 118.685 315.463 114.57C315.47 110.699 315.491 106.828 315.525 102.957C315.539 100.856 315.537 98.7542 315.534 96.6526C315.555 94.7819 315.555 94.7819 315.576 92.8734C315.581 91.7873 315.586 90.7012 315.591 89.5822C316.074 86.4505 316.744 85.4741 319.266 83.617C321.53 83.1475 321.53 83.1475 324.098 83.0613C325.018 83.0228 325.939 82.9843 326.887 82.9447C327.844 82.9202 328.801 82.8957 329.786 82.8704C331.241 82.8148 331.241 82.8148 332.724 82.758C335.116 82.6685 337.507 82.5934 339.899 82.5311C332.515 75.067 324.795 68.0134 316.619 61.4232C311.7 57.4553 307.052 53.279 302.43 48.9749C297.884 44.7672 293.141 40.8486 288.288 36.9981C285.602 34.7498 285.602 34.7498 282.815 31.755C276.898 26.3031 273.207 31.3126 268.702 35.7679Z" fill="white"/>
<path d="M189.933 270.246C191.103 270.241 191.103 270.241 192.297 270.236C194.924 270.227 197.55 270.225 200.177 270.224C202.055 270.219 203.933 270.213 205.811 270.207C210.922 270.193 216.033 270.186 221.144 270.181C224.335 270.178 227.525 270.174 230.715 270.169C240.689 270.154 250.662 270.143 260.636 270.139C272.164 270.134 283.693 270.115 295.221 270.084C304.123 270.06 313.024 270.049 321.926 270.048C327.247 270.047 332.568 270.04 337.889 270.021C342.892 270.003 347.895 270.001 352.898 270.01C354.737 270.011 356.576 270.006 358.415 269.996C360.92 269.982 363.425 269.988 365.93 270C367.333 269.998 368.737 269.996 370.183 269.995C373.563 270.399 373.563 270.399 375.601 271.917C380.559 278.988 377.54 289.686 376.179 297.673C372.996 315.027 364.683 331.14 352.93 344.242C352.048 345.226 351.166 346.211 350.258 347.224C332.343 366.163 308.034 376.487 282.115 378.127C256.046 378.513 231.371 370.522 211.758 352.93C210.774 352.048 209.79 351.166 208.776 350.257C190.061 332.554 179.563 308.419 177.912 282.768C177.905 282.001 177.898 281.234 177.89 280.444C177.875 279.665 177.86 278.887 177.844 278.085C178.136 275.447 178.872 273.734 180.266 271.485C183.476 269.879 186.348 270.254 189.933 270.246ZM195.469 285.602C195.469 291.656 195.905 295.913 197.709 301.484C197.951 302.238 198.194 302.992 198.444 303.769C206.692 328.293 223.466 344.079 246.029 355.411C264.732 363.706 286.223 363.476 305.437 357.201C308.686 355.913 311.796 354.493 314.922 352.93C315.992 352.395 317.061 351.86 318.163 351.309C338.03 340.553 351.115 323.157 358.394 301.874C360.129 295.994 360.532 291.966 360.532 285.602C306.061 285.602 251.59 285.602 195.469 285.602Z" fill="white"/>
</svg>
