<svg width="691" height="693" viewBox="0 0 691 693" fill="none" xmlns="http://www.w3.org/2000/svg">
<path d="M315.176 107.581C316.671 107.563 318.167 107.546 319.707 107.529C321.316 107.54 322.924 107.551 324.581 107.562C326.238 107.557 327.895 107.552 329.603 107.546C333.106 107.543 336.609 107.553 340.112 107.575C345.48 107.604 350.845 107.576 356.213 107.541C359.615 107.544 363.017 107.551 366.419 107.562C368.027 107.551 369.636 107.54 371.293 107.529C373.536 107.554 373.536 107.554 375.824 107.581C377.139 107.585 378.453 107.589 379.807 107.594C384.291 108.479 385.871 110.156 388.688 113.695C390.044 117.681 390.044 117.681 390.986 122.276C391.334 123.938 391.682 125.6 392.041 127.312C392.382 129.044 392.723 130.776 393.074 132.56C393.617 135.149 393.617 135.149 394.17 137.791C397.018 151.684 397.018 151.684 396.785 158.361C397.509 158.447 398.233 158.532 398.978 158.62C412.069 160.672 424.742 166.376 436.156 173.044C439.827 175.012 439.827 175.012 443.144 173.641C446.969 171.775 450.301 169.63 453.79 167.191C455.785 165.83 455.785 165.83 457.821 164.441C460.593 162.535 463.356 160.614 466.108 158.678C467.444 157.775 468.779 156.871 470.154 155.94C471.355 155.106 472.556 154.273 473.794 153.414C478.95 151.048 483.094 150.048 488.559 151.594C493.201 154.67 496.948 158.489 500.832 162.464C501.955 163.58 503.078 164.696 504.235 165.846C506.598 168.208 508.948 170.585 511.285 172.974C514.864 176.622 518.498 180.208 522.141 183.792C524.432 186.098 526.72 188.406 529.005 190.719C530.637 192.322 530.637 192.322 532.302 193.959C540.499 202.462 540.499 202.462 540.841 208.681C539.737 214.412 538.114 217.601 534.73 222.325C534.214 223.072 533.699 223.818 533.168 224.588C530.983 227.75 528.741 230.871 526.499 233.993C524.862 236.292 523.258 238.613 521.656 240.936C520.68 242.299 519.705 243.662 518.7 245.066C516.448 248.997 516.448 248.997 517.816 253.314C518.405 254.586 518.993 255.857 519.6 257.168C520.322 258.754 521.044 260.34 521.788 261.974C522.602 263.672 523.42 265.369 524.239 267.065C533.096 285.773 533.096 285.773 533.096 295.066C533.884 295.128 534.672 295.189 535.485 295.252C544.684 296.061 553.592 297.621 562.619 299.55C563.993 299.821 565.367 300.092 566.783 300.372C568.106 300.654 569.428 300.935 570.79 301.226C571.976 301.472 573.163 301.719 574.385 301.973C578.462 303.497 580.271 305.234 583.031 308.601C583.717 312.094 583.717 312.094 583.73 316.088C583.755 318.337 583.755 318.337 583.781 320.632C583.765 323.052 583.765 323.052 583.748 325.52C583.754 327.182 583.759 328.844 583.764 330.556C583.768 334.07 583.758 337.583 583.735 341.096C583.706 346.48 583.735 351.86 583.769 357.243C583.766 360.655 583.759 364.067 583.748 367.479C583.759 369.092 583.77 370.705 583.781 372.367C583.756 374.617 583.756 374.617 583.73 376.912C583.726 378.23 583.721 379.548 583.717 380.906C582.834 385.403 581.162 386.988 577.633 389.812C573.658 391.172 573.658 391.172 569.077 392.118C567.42 392.466 565.762 392.815 564.055 393.175C562.328 393.517 560.602 393.859 558.823 394.211C556.241 394.756 556.241 394.756 553.606 395.311C539.753 398.167 539.753 398.167 533.096 397.933C533.011 398.659 532.925 399.385 532.838 400.133C530.792 413.262 525.104 425.971 518.456 437.418C516.493 441.099 516.493 441.099 517.86 444.426C519.72 448.262 521.859 451.604 524.292 455.104C525.196 456.437 526.101 457.771 527.033 459.146C528.934 461.926 530.85 464.697 532.78 467.457C533.681 468.796 534.582 470.135 535.51 471.515C536.341 472.719 537.172 473.924 538.028 475.165C540.387 480.336 541.385 484.492 539.844 489.972C536.776 494.628 532.968 498.386 529.005 502.281C527.892 503.407 526.779 504.534 525.633 505.694C523.277 508.064 520.908 510.421 518.526 512.764C514.888 516.354 511.312 519.998 507.738 523.652C505.439 525.95 503.137 528.245 500.832 530.536C499.766 531.627 498.7 532.718 497.601 533.842C489.122 542.063 489.122 542.063 482.921 542.406C477.206 541.298 474.027 539.671 469.316 536.278C468.572 535.76 467.827 535.243 467.061 534.71C463.907 532.519 460.795 530.271 457.682 528.023C455.39 526.38 453.076 524.772 450.759 523.165C449.4 522.187 448.041 521.209 446.641 520.201C442.721 517.943 442.721 517.943 438.414 519.315C437.147 519.905 435.88 520.495 434.574 521.103C432.226 522.189 432.226 522.189 429.83 523.298C428.149 524.115 426.469 524.935 424.79 525.756C406.23 534.638 406.23 534.638 396.785 534.638C396.724 535.429 396.663 536.22 396.6 537.034C395.794 546.26 394.238 555.194 392.315 564.247C392.044 565.625 391.774 567.003 391.495 568.424C391.214 569.75 390.933 571.076 390.643 572.442C390.398 573.631 390.152 574.821 389.899 576.047C388.379 580.136 386.647 581.95 383.289 584.719C379.807 585.406 379.807 585.406 375.824 585.419C374.329 585.436 372.834 585.453 371.293 585.471C369.685 585.46 368.076 585.449 366.419 585.438C363.933 585.445 363.933 585.445 361.398 585.453C357.894 585.457 354.391 585.447 350.888 585.424C345.52 585.395 340.155 585.424 334.788 585.459C331.385 585.455 327.983 585.448 324.581 585.438C322.973 585.449 321.364 585.46 319.707 585.471C317.464 585.445 317.464 585.445 315.176 585.419C313.862 585.415 312.547 585.411 311.193 585.406C306.71 584.521 305.129 582.844 302.313 579.305C300.956 575.318 300.956 575.318 300.014 570.723C299.666 569.062 299.318 567.4 298.96 565.687C298.619 563.956 298.278 562.224 297.926 560.44C297.384 557.85 297.384 557.85 296.83 555.208C293.982 541.315 293.982 541.315 294.215 534.638C293.491 534.553 292.767 534.468 292.022 534.379C278.931 532.328 266.258 526.624 254.844 519.956C251.174 517.988 251.174 517.988 247.857 519.358C244.032 521.224 240.699 523.37 237.21 525.809C235.88 526.716 234.55 527.623 233.179 528.558C230.407 530.465 227.644 532.386 224.892 534.321C222.889 535.677 222.889 535.677 220.846 537.06C219.645 537.893 218.444 538.727 217.206 539.585C212.05 541.951 207.906 542.952 202.442 541.406C197.799 538.33 194.052 534.511 190.168 530.536C189.045 529.42 187.922 528.304 186.765 527.154C184.402 524.791 182.052 522.415 179.716 520.026C176.136 516.378 172.502 512.791 168.859 509.207C166.568 506.902 164.28 504.593 161.995 502.281C160.907 501.212 159.82 500.143 158.699 499.041C150.501 490.538 150.501 490.538 150.159 484.319C151.264 478.587 152.886 475.399 156.27 470.674C156.786 469.928 157.301 469.181 157.833 468.412C160.018 465.249 162.259 462.128 164.501 459.006C166.139 456.707 167.742 454.387 169.344 452.063C170.32 450.701 171.295 449.338 172.3 447.934C174.557 443.995 174.557 443.995 173.163 439.64C172.581 438.383 172 437.127 171.4 435.832C170.792 434.488 170.183 433.145 169.555 431.761C168.884 430.368 168.212 428.976 167.52 427.542C157.904 406.93 157.904 406.93 157.904 397.933C157.116 397.872 156.328 397.811 155.516 397.747C146.316 396.939 137.408 395.379 128.382 393.45C127.007 393.179 125.633 392.907 124.217 392.628C122.895 392.346 121.572 392.064 120.21 391.774C118.431 391.404 118.431 391.404 116.615 391.027C112.538 389.502 110.729 387.766 107.969 384.398C107.283 380.906 107.283 380.906 107.27 376.912C107.253 375.412 107.236 373.912 107.219 372.367C107.23 370.754 107.241 369.141 107.252 367.479C107.247 365.817 107.242 364.156 107.236 362.443C107.233 358.93 107.242 355.417 107.265 351.903C107.294 346.52 107.265 341.139 107.231 335.756C107.234 332.344 107.241 328.932 107.252 325.52C107.241 323.907 107.23 322.294 107.219 320.632C107.236 319.133 107.253 317.633 107.27 316.088C107.275 314.77 107.279 313.452 107.283 312.094C108.166 307.597 109.838 306.012 113.367 303.187C117.342 301.827 117.342 301.827 121.924 300.882C123.581 300.533 125.238 300.184 126.945 299.825C128.672 299.483 130.398 299.141 132.177 298.788C134.76 298.244 134.76 298.244 137.394 297.689C151.247 294.833 151.247 294.833 157.904 295.066C158.183 293.475 158.461 291.884 158.748 290.244C161.336 278.527 166.254 266.786 172.075 256.322C174.557 252.043 174.557 252.043 173.17 248.528C171.275 244.735 169.127 241.376 166.708 237.896C165.804 236.562 164.899 235.228 163.967 233.854C162.066 231.073 160.151 228.303 158.221 225.543C157.32 224.203 156.418 222.864 155.49 221.485C154.659 220.28 153.828 219.076 152.972 217.835C150.613 212.664 149.615 208.508 151.156 203.027C154.224 198.372 158.032 194.614 161.995 190.719C163.108 189.592 164.221 188.466 165.367 187.306C167.723 184.936 170.093 182.579 172.475 180.235C176.112 176.645 179.688 173.001 183.262 169.348C185.561 167.05 187.863 164.755 190.168 162.464C191.235 161.373 192.301 160.282 193.399 159.158C201.878 150.936 201.878 150.936 208.079 150.594C213.794 151.701 216.973 153.328 221.684 156.722C222.428 157.239 223.173 157.756 223.94 158.289C227.093 160.48 230.205 162.728 233.318 164.977C235.611 166.619 237.924 168.227 240.241 169.834C241.6 170.812 242.959 171.791 244.359 172.798C248.287 175.062 248.287 175.062 252.629 173.664C253.882 173.08 255.135 172.497 256.426 171.896C257.765 171.286 259.105 170.675 260.485 170.046C261.874 169.372 263.262 168.699 264.692 168.005C285.244 158.361 285.244 158.361 294.215 158.361C294.276 157.571 294.337 156.78 294.4 155.965C295.207 146.74 296.762 137.806 298.686 128.753C298.956 127.375 299.227 125.996 299.505 124.576C299.786 123.25 300.067 121.924 300.357 120.558C300.726 118.773 300.726 118.773 301.102 116.953C303.758 109.806 307.803 107.605 315.176 107.581ZM322.557 129.937C319.667 144.004 319.667 144.004 316.825 158.08C316.453 159.847 316.079 161.613 315.703 163.379C315.439 164.75 315.439 164.75 315.169 166.15C314.301 170.14 313.552 172.796 310.674 175.751C307.453 177.446 304.391 178.602 300.905 179.647C299.577 180.061 298.25 180.474 296.882 180.9C294.768 181.552 294.768 181.552 292.612 182.217C280.897 185.94 270.168 190.216 259.604 196.538C254.111 199.758 250.61 200.98 244.279 200.32C240.472 198.311 240.472 198.311 236.593 195.535C235.182 194.552 233.771 193.569 232.317 192.556C230.849 191.508 229.381 190.459 227.915 189.407C225.029 187.341 222.129 185.3 219.217 183.269C217.94 182.355 216.662 181.44 215.346 180.498C212.138 178.449 212.138 178.449 209.155 178.668C203.118 181.726 198.623 187.208 193.9 191.966C191.899 193.974 189.872 195.951 187.841 197.928C186.582 199.187 185.324 200.445 184.027 201.742C182.867 202.896 181.707 204.05 180.511 205.239C177.868 208.143 177.868 208.143 178.192 211.169C179.776 214.428 181.618 217.265 183.716 220.221C184.558 221.437 185.4 222.653 186.267 223.906C188.043 226.44 189.828 228.968 191.624 231.488C196.66 238.804 200.17 244.069 199.742 253.107C198.156 256.776 196.602 259.745 194.513 263.089C187.753 274.739 183.545 286.942 179.391 299.724C178.913 301.186 178.435 302.648 177.943 304.155C177.526 305.469 177.108 306.782 176.678 308.136C175.449 311.308 175.449 311.308 172.75 314.015C169.508 314.909 166.326 315.67 163.039 316.352C162.193 316.536 161.347 316.719 160.475 316.909C157.315 317.591 154.151 318.255 150.988 318.922C143.917 320.429 136.847 321.937 129.563 323.49C129.563 338.677 129.563 353.863 129.563 369.51C143.588 372.408 143.588 372.408 157.624 375.258C159.386 375.631 161.147 376.006 162.907 376.383C164.275 376.648 164.275 376.648 165.67 376.919C169.686 377.797 172.306 378.543 175.26 381.48C176.817 384.432 177.926 387.185 178.881 390.383C179.239 391.538 179.597 392.694 179.966 393.884C180.341 395.108 180.715 396.333 181.101 397.595C185.463 411.337 190.746 425.033 198.788 437.095C200.438 441.932 199.945 445.982 198.393 450.721C195.337 456.074 191.751 460.988 188.102 465.948C186.185 468.566 184.283 471.195 182.398 473.836C181.551 474.986 180.705 476.137 179.832 477.322C177.932 480.296 177.932 480.296 178.174 483.197C181.148 489.294 186.668 493.802 191.412 498.539C193.414 500.545 195.386 502.579 197.357 504.615C198.612 505.878 199.867 507.14 201.16 508.441C202.886 510.186 202.886 510.186 204.647 511.966C207.537 514.608 207.537 514.608 210.517 514.313C213.996 512.612 217.082 510.613 220.271 508.409C221.618 507.497 222.964 506.586 224.352 505.646C227.173 503.716 229.988 501.778 232.797 499.83C234.822 498.466 234.822 498.466 236.888 497.073C238.112 496.231 239.336 495.389 240.596 494.522C244.921 492.359 247.601 492.168 252.377 492.68C255.783 494.344 258.923 496.067 262.162 498.009C273.851 504.669 286.107 508.92 298.858 513.09C300.317 513.569 301.775 514.048 303.277 514.542C304.587 514.961 305.897 515.379 307.247 515.811C310.41 517.043 310.41 517.043 313.109 519.75C314 523.001 314.759 526.192 315.44 529.489C315.623 530.338 315.806 531.186 315.994 532.061C316.674 535.23 317.337 538.403 318.002 541.575C319.505 548.666 321.008 555.757 322.557 563.062C337.699 563.062 352.842 563.062 368.443 563.062C371.333 548.996 371.333 548.996 374.175 534.92C374.548 533.153 374.921 531.387 375.297 529.621C375.473 528.707 375.65 527.792 375.831 526.85C376.707 522.822 377.451 520.195 380.379 517.233C383.323 515.671 386.067 514.559 389.257 513.601C390.985 513.062 390.985 513.062 392.747 512.513C394.579 511.95 394.579 511.95 396.448 511.375C410.15 507 423.807 501.702 435.834 493.636C440.657 491.982 444.695 492.477 449.42 494.033C454.758 497.097 459.658 500.694 464.603 504.354C467.214 506.276 469.835 508.184 472.469 510.074C473.616 510.923 474.763 511.772 475.944 512.647C478.91 514.553 478.91 514.553 481.802 514.31C487.882 511.328 492.378 505.792 497.1 501.034C499.101 499.026 501.128 497.049 503.159 495.072C504.418 493.813 505.677 492.554 506.974 491.257C508.714 489.527 508.714 489.527 510.489 487.761C513.132 484.857 513.132 484.857 512.808 481.831C511.224 478.572 509.382 475.735 507.285 472.779C506.443 471.562 505.6 470.346 504.733 469.093C502.957 466.559 501.172 464.032 499.377 461.512C494.34 454.196 490.831 448.931 491.258 439.892C492.844 436.223 494.399 433.254 496.488 429.91C503.247 418.261 507.455 406.058 511.609 393.276C512.326 391.083 512.326 391.083 513.057 388.845C513.475 387.531 513.892 386.217 514.322 384.864C515.551 381.691 515.551 381.691 518.25 378.984C521.492 378.091 524.674 377.33 527.961 376.647C528.807 376.464 529.654 376.28 530.525 376.091C533.685 375.409 536.849 374.744 540.013 374.078C547.083 372.57 554.153 371.063 561.438 369.51C561.438 354.323 561.438 339.137 561.438 323.49C547.412 320.592 547.412 320.592 533.376 317.742C531.615 317.368 529.854 316.994 528.093 316.617C527.181 316.44 526.269 316.263 525.33 316.081C521.351 315.21 518.703 314.459 515.756 311.572C514.066 308.343 512.914 305.271 511.871 301.776C511.252 299.779 511.252 299.779 510.621 297.741C510.188 296.328 509.755 294.915 509.309 293.459C505.607 281.71 501.374 270.978 494.911 260.474C491.174 254.152 491.011 250.72 492.608 243.633C494.743 239.575 494.743 239.575 497.463 235.601C498.433 234.166 499.403 232.731 500.402 231.253C501.431 229.768 502.46 228.283 503.489 226.798C504.525 225.278 505.559 223.756 506.591 222.233C509.113 218.527 511.65 214.833 514.201 211.148C507.916 203.624 501.318 196.498 494.463 189.492C492.944 187.893 492.944 187.893 491.395 186.262C490.414 185.262 489.433 184.262 488.422 183.232C487.1 181.866 487.1 181.866 485.751 180.472C483.325 178.387 483.325 178.387 480.529 178.791C477.176 180.277 474.403 182.114 471.414 184.247C470.202 185.092 468.989 185.936 467.74 186.806C465.213 188.587 462.693 190.377 460.18 192.178C452.885 197.229 447.635 200.749 438.623 200.32C434.965 198.729 432.004 197.17 428.67 195.075C417.054 188.296 404.886 184.076 392.141 179.91C390.683 179.431 389.225 178.951 387.723 178.458C386.413 178.039 385.103 177.62 383.753 177.189C380.59 175.957 380.59 175.957 377.891 173.25C377 169.998 376.241 166.807 375.561 163.511C375.378 162.662 375.195 161.813 375.006 160.939C374.326 157.77 373.663 154.597 372.998 151.424C371.495 144.334 369.992 137.243 368.443 129.937C353.301 129.937 338.158 129.937 322.557 129.937Z" fill="white"/>
<path d="M345.332 31.9768C346.471 31.9771 347.61 31.9773 348.784 31.9776C369.229 32.0285 388.866 33.7283 408.932 37.8984C410.135 38.1446 411.337 38.3909 412.576 38.6446C470.464 50.9136 521.482 79.7583 564.137 120.463C564.904 121.193 565.67 121.923 566.46 122.675C602.937 157.66 629.354 202.428 645.114 250.4C648.087 247.419 649.02 245.19 650.591 241.306C651.112 240.045 651.633 238.783 652.17 237.484C653.257 234.817 654.34 232.149 655.418 229.479C655.941 228.218 656.463 226.956 657.002 225.656C657.473 224.497 657.943 223.338 658.428 222.143C659.96 219.269 659.96 219.269 664.008 216.562C673.541 215.652 673.541 215.652 678.095 218.931C680.326 222.153 681.143 223.525 681.553 227.391C680.583 230.945 679.514 234.248 678.227 237.685C677.859 238.694 677.492 239.702 677.113 240.742C673.217 251.304 668.974 261.722 664.566 272.079C663.227 275.239 661.916 278.41 660.605 281.581C659.743 283.619 658.88 285.655 658.014 287.691C657.632 288.627 657.249 289.563 656.855 290.527C654.349 296.309 651.831 299.851 646.463 303.187C635.58 303.777 626.75 297.532 617.531 292.359C615.846 291.429 614.16 290.501 612.473 289.574C609.957 288.191 607.441 286.806 604.929 285.414C600.118 282.748 595.281 280.146 590.397 277.619C588.799 276.792 588.799 276.792 587.17 275.948C585.254 274.961 583.334 273.981 581.411 273.008C577.085 270.76 575 269.449 572.235 265.289C571.348 255.944 571.348 255.944 574.259 251.077C579.115 248.155 582.997 248.008 588.43 249.047C594.969 251.764 601.126 255.118 607.325 258.521C609.03 259.436 610.736 260.349 612.444 261.26C616.599 263.482 620.738 265.731 624.87 267.996C600.152 189.856 551.147 126.187 478.13 87.8916C413.88 55.0755 342.505 48.0742 272.622 64.9687C271.578 65.2178 270.535 65.4668 269.46 65.7235C219.852 77.9523 177.101 106.04 140.36 140.766C139.372 141.699 138.384 142.632 137.366 143.594C87.7124 191.909 58.002 265.097 55.925 333.811C55.9099 335.529 55.9099 335.529 55.8944 337.282C55.764 344.497 54.7103 349.576 51.2857 355.975C47.0622 358.092 42.3637 358.272 37.7897 357.328C34.4264 354.586 32.6085 352.936 31.6927 348.627C31.6866 347.405 31.6805 346.183 31.6742 344.924C31.6631 343.535 31.6521 342.146 31.6406 340.715C31.6656 339.218 31.6906 337.721 31.7164 336.179C31.7327 334.619 31.749 333.059 31.7658 331.451C33.0202 275.294 52.3499 218.305 83.6764 171.896C84.2187 171.086 84.7611 170.276 85.3199 169.441C105.892 138.943 131.906 111.838 161.954 90.6855C162.802 90.0814 163.65 89.4773 164.523 88.8548C199.682 63.964 239.073 47.1123 281.141 38.1522C282.379 37.8883 283.616 37.6244 284.891 37.3525C304.975 33.3295 324.895 31.9289 345.332 31.9768Z" fill="white"/>
<path d="M653.211 335.672C656.574 338.413 658.392 340.064 659.308 344.372C659.317 346.205 659.317 346.205 659.326 348.076C659.338 349.465 659.349 350.854 659.36 352.285C659.335 353.782 659.31 355.278 659.284 356.82C659.268 358.381 659.252 359.941 659.235 361.549C657.598 434.851 625.524 509.978 574.331 562.271C572.098 564.556 569.895 566.867 567.69 569.18C558.024 579.209 547.94 588.224 536.766 596.528C534.513 598.203 532.284 599.906 530.054 601.611C492.474 629.893 448.096 647.598 402.184 656.455C401.029 656.681 399.875 656.906 398.686 657.138C360.835 664.163 319.655 662.879 282.068 655.102C280.286 654.743 280.286 654.743 278.468 654.377C198.654 637.807 127.615 587.568 82.8878 519.679C67.3133 495.569 54.9894 469.858 45.8869 442.6C42.9141 445.581 41.9804 447.809 40.4094 451.693C39.8883 452.955 39.3673 454.216 38.8304 455.516C37.7434 458.183 36.6609 460.851 35.5829 463.521C35.0601 464.782 34.5373 466.044 33.9987 467.344C33.293 469.083 33.293 469.083 32.573 470.857C31.0412 473.73 31.0412 473.73 26.9923 476.437C17.6745 477.327 17.6745 477.327 12.8214 474.407C10.0136 469.714 10.1952 465.485 10.797 460.195C11.9505 455.997 13.5755 452.065 15.2834 448.066C15.7467 446.942 16.21 445.818 16.6874 444.66C18.1647 441.089 19.6684 437.53 21.1722 433.971C22.157 431.592 23.1402 429.213 24.1218 426.833C36.9477 395.897 36.9477 395.897 42.3441 390.912C49.8147 388.593 56.382 391.304 62.9852 394.791C63.8894 395.287 64.7935 395.783 65.7251 396.294C66.6918 396.811 67.6585 397.327 68.6545 397.859C71.7289 399.506 74.7921 401.173 77.8557 402.84C79.8856 403.929 81.9162 405.016 83.9474 406.102C116.773 423.714 116.773 423.714 118.766 427.711C119.533 437.256 119.533 437.256 116.741 441.923C111.886 444.845 108.004 444.992 102.57 443.953C96.0321 441.236 89.8751 437.881 83.6759 434.478C81.9707 433.563 80.2643 432.651 78.5569 431.74C74.4022 429.518 70.2628 427.268 66.131 425.004C90.1051 500.793 137.69 565.594 208.865 602.914C280.308 639.565 360.404 647.417 437.149 622.688C480.749 607.809 517.269 583.722 550.641 552.234C552.076 550.905 552.076 550.905 553.54 549.548C562.106 541.344 569.142 531.896 576.283 522.457C577.247 521.197 578.211 519.938 579.204 518.64C613.931 472.156 634.56 413.287 635.106 355.168C635.241 348.165 636.423 343.249 639.715 337.025C643.938 334.907 648.637 334.728 653.211 335.672Z" fill="white"/>
<path d="M428.684 231.224C458.609 254.18 478.254 284.986 485.294 322.232C487.683 344.756 487.482 368.15 480.46 389.812C480.037 391.126 480.037 391.126 479.605 392.465C472.492 413.678 460.938 430.859 445.37 446.66C444.502 447.628 443.634 448.597 442.739 449.595C422.735 471.397 389.707 485.75 360.391 487.505C340.433 487.899 321.435 488.087 302.311 481.852C301.002 481.427 301.002 481.427 299.666 480.994C278.514 473.861 261.383 462.274 245.628 446.66C244.179 445.354 244.179 445.354 242.702 444.022C221.482 424.439 206.56 391.41 204.9 362.664C204.039 317.003 212.786 280.744 244.864 246.583C293.041 196.732 372.585 192.133 428.684 231.224ZM264.522 259.875C263.67 260.62 262.817 261.365 261.939 262.133C241.677 280.922 229.019 309.848 227.524 337.195C226.391 371.98 235.369 401.85 259.124 427.711C260.235 428.988 260.235 428.988 261.37 430.291C280.075 450.622 309.082 463.455 336.363 464.769C370.484 465.709 399.181 457.077 425.126 434.478C426.133 433.604 427.14 432.73 428.178 431.83C448.771 412.556 462.082 383.742 463.426 355.663C464.363 321.442 455.757 292.662 433.223 266.643C432.352 265.632 431.48 264.622 430.582 263.581C409.855 241.306 379.083 228.716 349.036 227.348C317.073 227.625 288.258 238.246 264.522 259.875Z" fill="white"/>
<path d="M345.502 248.37C346.393 248.356 347.283 248.342 348.201 248.328C352.127 249.373 353.723 251.357 356.299 254.461C356.999 257.784 356.999 257.784 357.035 261.536C357.062 262.945 357.089 264.354 357.116 265.805C357.118 267.317 357.119 268.828 357.121 270.386C357.155 272.718 357.155 272.718 357.189 275.097C357.254 280.061 357.283 285.025 357.311 289.991C357.349 293.357 357.389 296.723 357.432 300.089C357.532 308.34 357.602 316.592 357.648 324.844C358.717 324.195 359.785 323.546 360.886 322.877C364.868 320.465 368.855 318.062 372.846 315.665C374.57 314.628 376.291 313.587 378.01 312.542C380.487 311.038 382.971 309.546 385.458 308.057C386.949 307.157 388.44 306.256 389.977 305.329C393.792 303.341 396.577 302.207 400.836 301.834C405.116 303.433 408.013 304.731 410.874 308.348C411.964 312.602 411.567 315.225 410.283 319.43C405.664 324.681 400.817 328.125 394.789 331.606C393.548 332.329 393.548 332.329 392.282 333.066C389.656 334.593 387.022 336.106 384.387 337.617C381.786 339.123 379.187 340.632 376.588 342.141C374.898 343.12 373.206 344.097 371.513 345.071C365.497 348.537 359.583 352.146 353.726 355.876C348.813 358.4 345.523 358.265 340.103 357.328C335.982 354.311 334.83 352.702 334.019 347.6C334.015 345.897 334.011 344.194 334.006 342.439C333.997 341.497 333.987 340.554 333.978 339.583C333.954 336.474 333.97 333.367 333.988 330.258C333.984 328.093 333.979 325.929 333.972 323.765C333.964 319.232 333.976 314.699 334.001 310.166C334.032 304.358 334.014 298.552 333.982 292.744C333.962 288.276 333.969 283.808 333.983 279.34C333.986 277.198 333.982 275.057 333.969 272.916C333.955 269.921 333.976 266.929 334.006 263.935C334.011 262.232 334.015 260.53 334.019 258.775C335.077 252.118 338.621 248.262 345.502 248.37Z" fill="white"/>
<path d="M345.5 410.792C346.391 410.778 347.281 410.764 348.199 410.75C352.312 411.845 353.809 413.425 356.297 416.883C356.838 420.714 357.054 423.899 356.971 427.711C356.992 428.674 357.013 429.637 357.035 430.629C357 435.295 356.64 438.062 353.893 441.88C350.737 444.065 349.283 444.689 345.5 444.63C344.609 444.644 343.718 444.658 342.801 444.672C338.687 443.576 337.19 441.997 334.703 438.539C334.162 434.708 333.945 431.523 334.028 427.711C334.007 426.748 333.986 425.785 333.965 424.792C334 420.127 334.36 417.36 337.107 413.541C340.263 411.357 341.717 410.733 345.5 410.792Z" fill="white"/>
<path d="M426.475 334.995C427.435 334.974 428.395 334.953 429.385 334.932C434.037 334.966 436.796 335.328 440.604 338.083C442.782 341.248 443.404 342.706 443.345 346.5C443.359 347.393 443.373 348.287 443.387 349.207C442.294 353.332 440.719 354.833 437.272 357.328C433.451 357.871 430.276 358.088 426.475 358.005C425.514 358.026 424.554 358.047 423.565 358.068C418.913 358.033 416.154 357.672 412.346 354.917C410.168 351.752 409.546 350.294 409.605 346.5C409.584 345.16 409.584 345.16 409.562 343.793C411.863 335.105 418.714 334.826 426.475 334.995Z" fill="white"/>
<path d="M264.522 334.995C265.482 334.974 266.442 334.953 267.432 334.932C272.084 334.966 274.843 335.328 278.65 338.083C280.829 341.248 281.451 342.706 281.392 346.5C281.406 347.393 281.42 348.287 281.434 349.207C280.341 353.332 278.766 354.833 275.319 357.328C271.498 357.871 268.323 358.088 264.522 358.005C263.561 358.026 262.601 358.047 261.612 358.068C256.96 358.033 254.2 357.672 250.393 354.917C248.215 351.752 247.592 350.294 247.652 346.5C247.631 345.16 247.631 345.16 247.609 343.793C249.91 335.105 256.761 334.826 264.522 334.995Z" fill="white"/>
</svg>
