<svg width="776" height="776" viewBox="0 0 776 776" fill="none" xmlns="http://www.w3.org/2000/svg">
<g clip-path="url(#clip0_3748_12439)">
<path d="M552.704 44.3734C562.888 50.2145 562.888 50.2145 573.959 50.2701C577.497 47.9113 577.497 47.9113 580.572 45.0365C587.037 39.3254 596.145 38.7435 604.537 39.0391C618.915 40.6748 630.095 46.7254 639.326 57.9134C647.77 69.8953 649.602 81.037 648.686 95.4843C648.338 96.7972 647.99 98.1101 647.632 99.4628C646.773 103.085 646.773 103.085 648.917 105.75C650.256 106.952 650.256 106.952 651.622 108.178C652.607 109.063 653.592 109.948 654.606 110.86C655.654 111.788 656.701 112.716 657.78 113.672C658.764 114.709 659.749 115.747 660.764 116.816C663.689 119.77 666.31 122.186 669.905 124.281C675.3 123.685 675.3 123.685 678.708 122.322C689.314 118.9 700.352 120.808 710.294 125.305C722.596 132.233 730.4 142.068 735.55 155.067C738.467 170.711 735.856 182.041 728.712 196.047C727.11 199.979 727.11 199.979 728.607 203.545C729.644 205.329 729.644 205.329 730.701 207.149C731.462 208.51 732.223 209.871 733.007 211.273C733.846 212.731 734.685 214.19 735.55 215.692C760.932 262.066 775.885 316.607 776.36 369.617C776.374 370.999 776.389 372.381 776.405 373.805C776.665 404.311 776.417 433.831 769.936 463.781C769.611 465.323 769.286 466.864 768.952 468.452C754.83 533.818 723.653 594.187 677.483 642.625C675.639 644.761 673.806 646.908 671.989 649.066C666.313 655.64 659.831 661.249 653.233 666.875C653.452 667.701 653.67 668.528 653.896 669.379C657.621 684.512 657.424 696.67 650.202 710.828C642.549 722.219 632.508 729.764 619.066 732.964C606.599 734.966 596.457 732.948 585.03 727.5C583.623 726.312 582.216 725.124 580.767 723.9C579.673 723.088 578.579 722.275 577.452 721.437C570.758 723.093 564.685 726.111 558.477 729.047C471.444 769.986 367.832 771.506 277.707 739.921C266.618 735.857 255.981 730.974 245.566 725.405C239.202 721.955 239.202 721.955 232.215 722.385C231.107 723.072 229.999 723.76 228.858 724.469C216.557 731.418 204.779 732.154 190.967 730.531C185.322 728.719 180.693 726.291 175.811 722.953C174.404 722.015 172.998 721.077 171.548 720.111C161.614 710.461 155.977 698.923 155.729 684.873C156.108 679 156.108 679 156.889 675.927C157.854 672.404 157.854 672.404 157.623 666.875C155.131 663.754 152.368 661.579 149.205 659.143C136.628 649.379 126.489 636.887 116.702 624.437C115.52 622.978 114.338 621.519 113.12 620.015C60.949 554.365 31.0194 468.975 33.3422 384.969C31.279 384.714 31.279 384.714 29.1742 384.454C18.3359 382.252 11.281 374.026 4.88869 365.455C-2.03366 353.462 -2.0492 337.546 1.09371 324.261C5.90091 311.455 13.5612 303.234 25.7641 297.062C32.6452 294.571 38.2084 293.919 45.4672 294.031C45.8599 292.065 45.8599 292.065 46.2605 290.059C53.8022 256.259 68.7778 210.096 93.9672 184.906C100.567 184.145 103.567 184.176 109.029 188.127C112.9 193.523 113.045 195.03 112.155 201.578C109.783 206.878 106.844 211.822 103.913 216.829C91.9843 237.979 82.3417 259.659 74.8324 282.759C74.438 283.959 74.0436 285.159 73.6372 286.395C71.2563 294.028 71.2563 294.028 72.7484 301.609C74.8888 303.464 77.035 305.321 79.3142 307.003C82.6612 309.895 85.1751 313.296 87.9047 316.766C89.2956 316.514 90.6866 316.262 92.1196 316.003C137.6 307.865 182.522 301.811 228.858 303.125C229.293 301.968 229.729 300.812 230.178 299.62C235.413 287.157 245.544 282.026 257.471 277.057C262.937 275.655 266.517 276.378 272.053 277.265C277.699 277.366 281.639 277.249 286.175 273.67C292.158 267.463 297.157 260.475 302.17 253.479C305.627 248.717 309.334 244.215 313.164 239.753C313.864 238.931 314.564 238.11 315.285 237.263C341.977 206.528 341.977 206.528 357.277 195.588C360.967 192.804 360.967 192.804 361.78 188.861C362.445 170.563 362.445 170.563 355.022 154.584C347.92 149.16 339.852 145.838 331.569 142.614C327.597 141.042 323.792 139.298 319.955 137.424C301.524 128.508 282.297 121.655 262.961 114.981C259.933 113.935 256.915 112.858 253.901 111.771C249.772 110.354 249.772 110.354 244.014 110.641C242.157 113.201 240.31 115.77 238.555 118.402C231.755 127.539 221.552 131.307 210.67 133.375C199.861 134.641 191.882 133.242 182.164 128.343C178.864 126.961 178.864 126.961 175.71 128.384C168.317 133.328 162.028 139.329 156.143 145.979C154.961 147.309 154.961 147.309 153.754 148.665C152.189 150.444 150.643 152.24 149.119 154.054C145.464 158.214 142.98 160.502 137.624 162.113C132.29 162.187 129.971 160.872 125.795 157.625C122.764 153.078 122.764 153.078 122.806 148.099C124.65 141.055 127.652 137.745 132.71 132.712C133.53 131.863 134.349 131.015 135.194 130.141C137.598 127.661 140.03 125.212 142.467 122.766C143.702 121.492 144.937 120.218 146.209 118.905C150.387 114.634 154.152 110.934 159.139 107.609C158.92 106.656 158.701 105.702 158.476 104.72C155.132 89.2986 154.609 76.0997 162.502 61.8327C170.696 49.9051 182.956 42.4328 197.03 39.4062C207.71 38.389 218.787 39.9277 227.65 46.3863C229.628 48.0355 231.561 49.7407 233.428 51.5134C236.516 53.4889 236.516 53.4889 240.58 52.135C245.203 50.1554 249.78 48.1129 254.332 45.9767C342.871 4.67499 464.173 -0.101654 552.704 44.3734ZM248.561 75.7812C249.061 78.7821 249.561 81.783 250.077 84.8749C251.11 85.2008 252.143 85.5267 253.208 85.8625C291.084 97.9055 326.912 112.525 361.829 131.626C365.458 133.474 368.975 135.12 372.842 136.406C376.41 134.887 376.41 134.887 379.757 132.238C390.789 125.102 401.932 123.286 414.901 125.134C421.651 126.614 426.756 129.138 432.325 133.191C435.449 135.189 437.32 136.147 441.045 136.406C445.175 134.524 445.175 134.524 449.665 131.575C482.582 111.836 518.376 98.339 554.717 86.3905C555.217 81.8891 555.717 77.3877 556.233 72.7499C521.278 57.2722 486.578 46.0875 448.623 40.9218C447.492 40.7655 446.361 40.6092 445.195 40.4481C377.771 32.4207 309.034 45.6227 248.561 75.7812ZM582.851 74.0761C579.24 81.2986 578.141 86.3346 580.578 94.0634C583.28 100.563 586.849 103.65 592.608 107.609C598.772 109.664 604.327 110.316 610.6 108.142C617.675 104.582 621.794 99.9382 624.436 92.453C625.411 84.5117 624.254 79.4433 619.889 72.7499C614.354 66.9578 609.77 63.8772 601.832 63.3601C593.654 64.1258 588.059 67.9333 582.851 74.0761ZM185.852 71.4237C181.342 79.4021 179.483 86.1394 181.873 95.1054C185.821 101.52 190.199 105.71 197.03 109.125C204.949 109.796 210.668 109.578 217.42 105.164C222.8 100.341 225.457 94.6506 226.17 87.4917C225.826 79.7451 223.459 74.3434 218.047 68.7892C207.392 60.8755 195.336 62.9381 185.852 71.4237ZM460.69 151.451C457.717 153.078 457.717 153.078 453.076 155.138C449.572 157.536 449.572 157.536 449.506 162.669C449.621 164.631 449.736 166.592 449.855 168.613C450.302 177.008 449.748 183.1 447.108 190.969C452.93 196.93 458.77 202.791 465.106 208.209C476.717 218.223 487.213 229.306 497.123 240.984C498.315 242.344 499.507 243.704 500.735 245.105C527.468 275.807 549.077 309.809 568.358 345.562C569.457 347.591 570.556 349.62 571.655 351.649C574.108 356.18 576.537 360.722 578.967 365.266C585.469 365.266 591.971 365.266 598.67 365.266C626.787 315.668 649.442 265.043 666.873 210.672C665.721 209.525 664.568 208.378 663.38 207.197C651.872 195.638 645.34 185.977 644.027 169.335C644.3 159.305 647.262 149.862 651.717 140.953C645.215 134.951 638.713 128.949 632.014 122.766C629.638 123.985 627.263 125.204 624.815 126.46C613.151 132.445 601.416 133.954 588.475 130.876C577.551 126.919 568.754 120.328 562.295 110.641C529.3 110.641 488.69 135.724 460.69 151.451ZM672.557 152.51C667.424 159.476 666.533 166.88 667.537 175.339C670.643 181.925 674.165 185.858 680.514 189.453C687.231 191.54 692.402 191.542 699.08 189.358C705.156 185.078 709.688 181.227 711.792 174.024C713.003 166.287 712.429 161.17 707.795 154.594C701.764 148.131 697.213 145.814 688.359 145.293C681.854 145.701 677.679 148.81 672.557 152.51ZM385.725 157.057C382.636 164.006 382.256 169.84 383.452 177.328C386.982 184.661 391.335 188.848 398.608 192.484C406.683 193.922 412.934 192.48 419.827 187.937C426.029 181.232 427.966 176.02 427.831 166.807C426.905 160.031 422.521 155.806 417.932 151.089C405.758 143.619 395.017 147.3 385.725 157.057ZM378.905 209.156C351.124 234.501 351.124 234.501 326.166 262.546C323.728 265.616 321.263 268.628 318.73 271.616C318.039 272.432 317.349 273.248 316.638 274.088C314.695 276.378 312.749 278.666 310.802 280.953C307.039 285.635 307.039 285.635 304.639 291C306.595 297.855 310.123 302.774 315.248 307.672C322.204 310.424 328.974 311.455 336.378 312.294C339.949 312.7 343.497 313.194 347.053 313.714C350.677 314.244 354.301 314.771 357.929 315.271C413.682 322.972 469.2 341.821 520.326 364.939C525.714 367.372 531.121 369.762 536.527 372.154C541.585 374.394 546.636 376.649 551.686 378.906C553.186 376.906 554.687 374.905 556.233 372.844C533.248 327.188 505.994 286.202 471.358 248.562C469.02 245.943 466.683 243.322 464.348 240.7C454.051 229.278 443.293 217.727 430.436 209.156C426.826 210.151 426.826 210.151 422.953 211.998C407.204 218.098 394.068 215.842 378.905 209.156ZM697.091 213.703C695.002 214.125 695.002 214.125 692.87 214.556C691.255 214.884 691.255 214.884 689.608 215.219C689.05 216.963 689.05 216.963 688.481 218.743C670.694 274.052 648.803 327.73 618.373 377.391C619.305 378.821 619.305 378.821 620.256 380.28C631.566 398.245 631.566 398.245 629.705 409.45C628.862 415.703 628.715 419.798 630.498 425.891C637.015 433.234 645.932 438.145 654.19 443.292C659.301 446.569 664.037 450.228 668.768 454.024C669.614 454.695 670.459 455.365 671.331 456.055C686.501 468.158 701.016 481.045 715.373 494.094C718.214 496.653 721.056 499.21 723.899 501.767C726.109 503.756 728.319 505.745 730.53 507.734C735.692 502.572 736.682 495.307 738.676 488.41C739.146 486.791 739.616 485.172 740.101 483.505C764.942 395.458 753.913 298.604 709.82 218.418C708.653 216.334 707.468 214.259 706.28 212.187C703.191 212.187 700.104 213.093 697.091 213.703ZM253.108 307.672C248.394 314.3 247.217 320.904 248.561 328.891C250.741 335.649 254.157 339.754 260.307 343.289C266.829 346.101 272.135 346.223 278.873 344.047C285.44 340.578 289.78 337.393 292.514 330.406C293.534 322.888 293.356 317.068 290.146 310.135C284.287 303.825 279.17 300.638 270.632 299.241C263.471 300.372 258.603 302.981 253.108 307.672ZM26.8061 327.849C23.104 333.744 21.9406 338.787 23.4018 345.693C26.2241 354.369 30.4813 358.3 38.4574 362.708C45.2433 364.485 50.8323 363.264 57.1186 360.34C63.4129 355.576 66.8525 351.411 68.2016 343.573C68.7094 335.955 66.8513 330.342 62.1391 324.344C57.1441 319.866 52.0433 317.932 45.3725 317.523C36.9163 318.597 32.7203 321.934 26.8061 327.849ZM174.579 329.933C173.356 330.064 172.132 330.195 170.871 330.33C144.622 333.151 118.528 336.92 92.4516 341.016C92.1684 342.351 91.8852 343.687 91.5935 345.063C91.2065 346.824 90.8195 348.585 90.4209 350.399C90.0439 352.141 89.667 353.883 89.2786 355.678C86.2532 366.778 80.7893 373.598 71.0434 379.569C66.6155 381.99 62.1057 384.229 57.5922 386.484C56.3337 440.57 73.275 496.043 96.9984 544.109C97.8798 545.912 97.8798 545.912 98.779 547.752C114.399 579.415 134.383 607.891 158.192 633.91C159.076 634.887 159.959 635.865 160.87 636.871C167.212 643.936 167.212 643.936 175.811 647.172C181.096 645.462 181.096 645.462 184.905 641.109C185.362 636.166 185.269 632.418 184.715 627.563C184.486 624.685 184.268 621.806 184.058 618.926C183.939 617.374 183.82 615.822 183.698 614.222C178.588 532.4 194.845 448.638 228.609 374.152C229.706 371.697 230.8 369.24 231.889 366.781C232.404 365.641 232.918 364.5 233.448 363.325C236.064 357.483 236.064 357.483 235.382 351.353C234.667 350.505 233.952 349.657 233.215 348.783C228.254 342.106 226.395 335.335 224.311 327.375C207.535 327 191.242 328.089 174.579 329.933ZM316.764 331.922C316.196 333.147 315.627 334.372 315.041 335.634C307.563 351.251 299.248 360.621 283.136 367.255C274.644 368.786 266.258 368.53 257.655 368.297C228.528 422.265 213.639 483.401 207.639 544.109C207.34 547.014 207.34 547.014 207.035 549.976C204.814 576.421 204.679 604.115 207.639 630.5C207.748 631.881 207.858 633.262 207.971 634.686C208.831 638.399 208.831 638.399 212.523 639.825C214.654 640.414 214.654 640.414 216.828 641.015C226.974 644.265 235 648.807 240.983 657.781C319.015 649.727 410.566 576.512 465.864 525.034C468.978 522.169 472.132 519.404 475.342 516.65C482.648 510.276 489.525 503.49 496.379 496.635C498.528 494.489 500.69 492.355 502.851 490.222C511.113 481.977 518.75 473.492 526.038 464.376C530.332 459.032 534.968 454.074 539.644 449.063C542.702 445.465 545.181 442.324 547.139 438.016C546.444 434.459 546.444 434.459 544.487 431.195C540.348 423.359 539.36 416.827 539.466 407.987C539.48 406.508 539.494 405.029 539.508 403.505C539.534 401.832 539.534 401.832 539.561 400.125C471.533 364.261 393.418 339.579 316.764 331.922ZM566.842 397.094C562.719 403.923 561.55 409.201 562.941 416.915C564.822 423.212 568.236 427.477 573.094 431.764C579.653 434.33 585.662 434.439 592.608 433.469C599.993 430.186 603.603 425.759 606.811 418.537C609.062 410.846 607.251 405.053 603.596 398.136C599.146 392.821 596.113 390.052 589.127 388.983C579.722 388.441 573.293 390.018 566.842 397.094ZM610.795 450.141C612.029 461.863 614.564 473.211 617.136 484.704C618.843 492.602 620.298 500.49 621.263 508.516C621.439 509.966 621.616 511.416 621.798 512.91C621.405 516.828 621.405 516.828 618.72 520.337C613.905 523.977 610.61 523.639 604.733 522.891C600.842 520.238 600.179 518.32 598.907 513.731C598.579 511.873 598.251 510.015 597.912 508.101C597.728 507.097 597.543 506.093 597.353 505.059C596.765 501.849 596.2 498.635 595.639 495.42C594.894 491.214 594.137 487.011 593.366 482.809C593.089 481.302 593.089 481.302 592.807 479.765C591.353 472.115 589.271 465.003 586.545 457.719C579.262 455.154 573.047 453.83 565.327 454.687C558.686 458.935 554.432 465.891 549.922 472.2C538.187 487.83 524.634 501.904 510.762 515.627C508.084 518.277 505.418 520.939 502.754 523.604C494.059 532.272 485.294 540.735 475.905 548.656C474.443 549.938 472.982 551.219 471.476 552.54C456.853 565.144 441.462 576.663 425.889 588.062C424.187 589.31 424.187 589.31 422.451 590.582C406.434 602.26 389.924 612.874 372.842 622.922C371.6 623.656 370.357 624.391 369.077 625.148C335.754 644.774 301.416 660.806 265.674 675.424C260.454 677.58 255.263 679.796 250.077 682.031C249.576 688.033 249.076 694.035 248.561 700.219C296.779 725.178 350.252 737.294 404.386 737.162C405.671 737.161 406.955 737.16 408.279 737.16C462.671 737 515.772 724.539 563.811 698.703C563.741 697.474 563.67 696.245 563.598 694.979C563.104 679.831 565.097 667.562 574.894 655.602C582.509 647.647 591.635 643.702 601.702 639.594C602.852 630.783 603.48 621.995 603.922 613.124C604.01 611.387 604.01 611.387 604.1 609.616C604.345 604.761 604.586 599.906 604.808 595.05C604.973 591.475 605.157 587.901 605.343 584.327C605.389 583.225 605.434 582.123 605.482 580.988C605.904 573.25 605.904 573.25 609.28 569.875C612.453 569.472 612.453 569.472 616.1 569.496C617.303 569.488 618.507 569.48 619.747 569.472C622.92 569.875 622.92 569.875 625.952 572.906C627.391 577.19 627.622 581.006 627.5 585.5C627.47 586.774 627.439 588.048 627.408 589.361C627.367 590.722 627.326 592.083 627.284 593.486C627.248 594.89 627.212 596.294 627.175 597.741C627.059 602.22 626.932 606.698 626.804 611.176C626.723 614.215 626.643 617.254 626.564 620.293C626.369 627.737 626.163 635.181 625.952 642.625C630.867 646.056 630.867 646.056 636.531 647.13C648.466 641.382 658.587 628.465 666.873 618.375C668.353 616.628 669.833 614.882 671.314 613.135C686.914 594.547 699.803 574.813 711.679 553.677C712.312 552.552 712.946 551.426 713.598 550.267C716.881 544.297 719.519 538.562 721.436 531.984C713.958 524.921 706.469 517.869 698.967 510.831C696.978 508.962 694.991 507.092 693.007 505.218C682.239 495.05 671.037 485.746 659.306 476.736C655.914 474.121 652.542 471.481 649.171 468.837C646.736 466.931 644.301 465.024 641.866 463.118C640.723 462.222 639.581 461.325 638.404 460.402C625.64 448.534 625.64 448.534 610.795 450.141ZM183.579 671.895C180.512 679.221 179.685 684.409 182.063 692.072C185.452 698.172 189.173 703.111 195.514 706.281C202.935 707.095 208.954 707.076 215.786 703.913C222.096 698.054 225.282 692.937 226.679 684.399C225.318 675.777 221.33 669.614 214.838 663.844C202.899 659.502 191.732 661.84 183.579 671.895ZM590.435 672.529C586.653 679.086 585.672 684.914 586.936 692.368C589.404 699.616 594.342 704.457 600.66 708.555C609.292 710.161 616.03 709.272 623.489 704.576C628.531 699.053 631.632 694.217 632.263 686.608C631.882 679.038 629.024 674.426 623.844 669.012C619.304 665.034 615.442 664.059 609.564 663.275C601.927 664.174 595.455 666.469 590.435 672.529Z" fill="white"/>
</g>
<defs>
<clipPath id="clip0_3748_12439">
<rect width="776" height="776" fill="white"/>
</clipPath>
</defs>
</svg>
