<svg width="644" height="645" viewBox="0 0 644 645" fill="none" xmlns="http://www.w3.org/2000/svg">
<path d="M293.738 221.067C295.132 221.051 296.526 221.035 297.961 221.019C299.46 221.029 300.959 221.039 302.504 221.049C304.048 221.045 305.593 221.04 307.184 221.035C310.449 221.031 313.714 221.041 316.978 221.062C321.981 221.089 326.981 221.062 331.984 221.03C335.154 221.033 338.325 221.04 341.496 221.049C342.995 221.039 344.494 221.029 346.038 221.019C348.129 221.042 348.129 221.042 350.261 221.067C352.099 221.073 352.099 221.073 353.973 221.079C358.201 221.912 359.689 223.33 362.25 226.758C362.855 229.468 362.855 229.468 362.821 232.418C362.821 233.527 362.82 234.637 362.82 235.78C362.794 236.966 362.768 238.153 362.741 239.375C362.734 240.598 362.727 241.821 362.72 243.082C362.691 246.984 362.628 250.885 362.564 254.788C362.539 257.435 362.516 260.082 362.496 262.73C362.44 269.216 362.353 275.702 362.25 282.187C363.9 282.161 365.55 282.135 367.25 282.107C373.373 282.016 379.496 281.958 385.619 281.911C388.269 281.885 390.919 281.851 393.569 281.807C397.378 281.746 401.186 281.718 404.996 281.695C406.18 281.669 407.365 281.643 408.586 281.617C409.693 281.616 410.801 281.616 411.942 281.615C413.4 281.599 413.4 281.599 414.888 281.581C418.779 282.453 420.243 284.07 422.625 287.227C423.264 290.477 423.264 290.477 423.276 294.195C423.292 295.59 423.308 296.986 423.324 298.424C423.314 299.925 423.304 301.427 423.293 302.974C423.298 304.52 423.303 306.067 423.308 307.661C423.311 310.931 423.302 314.201 423.281 317.471C423.254 322.481 423.281 327.489 423.313 332.499C423.309 335.675 423.303 338.851 423.293 342.026C423.303 343.528 423.313 345.029 423.324 346.576C423.3 348.669 423.3 348.669 423.276 350.805C423.272 352.032 423.268 353.259 423.264 354.523C422.431 358.757 421.016 360.248 417.594 362.812C414.888 363.418 414.888 363.418 411.942 363.385C410.834 363.384 409.727 363.384 408.586 363.383C406.809 363.344 406.809 363.344 404.996 363.305C403.775 363.297 402.553 363.29 401.295 363.283C397.398 363.255 393.503 363.192 389.607 363.127C386.964 363.102 384.321 363.079 381.677 363.059C375.201 363.003 368.726 362.916 362.25 362.812C362.289 365.292 362.289 365.292 362.33 367.821C362.421 373.953 362.479 380.085 362.526 386.218C362.552 388.872 362.586 391.526 362.629 394.18C362.69 397.995 362.719 401.809 362.741 405.625C362.767 406.811 362.793 407.998 362.82 409.22C362.82 410.884 362.82 410.884 362.821 412.582C362.832 413.555 362.843 414.529 362.855 415.532C361.985 419.429 360.37 420.895 357.219 423.281C353.973 423.921 353.973 423.921 350.261 423.933C348.868 423.949 347.474 423.965 346.038 423.981C343.79 423.966 343.79 423.966 341.496 423.95C339.179 423.958 339.179 423.958 336.816 423.965C333.551 423.969 330.286 423.959 327.021 423.938C322.019 423.911 317.018 423.938 312.016 423.97C308.845 423.967 305.674 423.96 302.504 423.95C301.005 423.961 299.506 423.971 297.961 423.981C295.871 423.958 295.871 423.958 293.738 423.933C291.901 423.927 291.901 423.927 290.026 423.921C285.799 423.088 284.311 421.67 281.75 418.242C281.145 415.532 281.145 415.532 281.179 412.582C281.179 411.472 281.179 410.363 281.18 409.22C281.206 408.034 281.232 406.847 281.259 405.625C281.266 404.402 281.273 403.178 281.28 401.918C281.308 398.016 281.371 394.114 281.435 390.212C281.461 387.565 281.484 384.917 281.504 382.27C281.56 375.784 281.646 369.298 281.75 362.812C279.275 362.852 279.275 362.852 276.749 362.892C270.627 362.984 264.504 363.041 258.381 363.089C255.731 363.115 253.081 363.149 250.431 363.193C246.622 363.254 242.814 363.282 239.004 363.305C237.227 363.344 237.227 363.344 235.414 363.383C234.307 363.384 233.199 363.384 232.058 363.385C231.086 363.396 230.114 363.407 229.112 363.418C225.221 362.547 223.757 360.93 221.375 357.773C220.736 354.523 220.736 354.523 220.724 350.805C220.708 349.41 220.692 348.014 220.676 346.576C220.686 345.074 220.696 343.573 220.707 342.026C220.702 340.48 220.697 338.933 220.692 337.339C220.689 334.069 220.698 330.799 220.719 327.529C220.746 322.519 220.719 317.511 220.687 312.501C220.69 309.325 220.697 306.149 220.707 302.974C220.696 301.472 220.686 299.971 220.676 298.424C220.692 297.028 220.707 295.633 220.724 294.195C220.728 292.968 220.732 291.741 220.736 290.477C221.568 286.243 222.984 284.752 226.406 282.187C229.112 281.581 229.112 281.581 232.058 281.615C233.719 281.616 233.719 281.616 235.414 281.617C237.191 281.656 237.191 281.656 239.004 281.695C240.225 281.702 241.446 281.71 242.705 281.717C246.601 281.745 250.496 281.808 254.392 281.873C257.036 281.898 259.679 281.921 262.323 281.941C268.799 281.997 275.274 282.084 281.75 282.187C281.724 280.535 281.697 278.882 281.67 277.179C281.579 271.047 281.521 264.915 281.473 258.782C281.448 256.128 281.414 253.474 281.37 250.82C281.309 247.005 281.281 243.191 281.259 239.375C281.233 238.189 281.207 237.002 281.18 235.78C281.179 234.67 281.179 233.561 281.179 232.418C281.168 231.445 281.156 230.471 281.145 229.468C282.669 222.641 287.357 221.088 293.738 221.067ZM301.875 241.875C301.828 245.832 301.781 249.79 301.732 253.867C301.674 257.695 301.61 261.522 301.545 265.349C301.503 268.012 301.468 270.675 301.439 273.337C301.397 277.162 301.331 280.986 301.261 284.81C301.249 286.6 301.249 286.6 301.236 288.425C301.211 289.535 301.187 290.644 301.161 291.787C301.147 292.764 301.133 293.74 301.119 294.746C300.474 298.033 299.549 299.14 296.844 301.084C294.289 301.586 294.289 301.586 291.335 301.629C289.673 301.666 289.673 301.666 287.978 301.704C286.787 301.712 285.596 301.72 284.369 301.729C283.146 301.751 281.923 301.774 280.662 301.797C276.754 301.865 272.845 301.908 268.936 301.95C266.287 301.992 263.638 302.035 260.989 302.08C254.492 302.191 247.997 302.266 241.5 302.344C241.5 315.647 241.5 328.95 241.5 342.656C247.427 342.727 247.427 342.727 253.474 342.799C257.295 342.857 261.117 342.922 264.938 342.987C267.596 343.029 270.255 343.064 272.914 343.093C276.732 343.135 280.55 343.201 284.369 343.271C285.56 343.279 286.751 343.287 287.978 343.296C289.086 343.321 290.194 343.346 291.335 343.371C292.797 343.392 292.797 343.392 294.289 343.414C297.57 344.059 298.676 344.986 300.617 347.695C301.119 350.254 301.119 350.254 301.161 353.213C301.198 354.877 301.198 354.877 301.236 356.575C301.244 357.768 301.252 358.96 301.261 360.19C301.283 361.415 301.306 362.64 301.329 363.902C301.397 367.816 301.44 371.731 301.482 375.646C301.524 378.3 301.567 380.953 301.612 383.606C301.722 390.112 301.798 396.618 301.875 403.125C315.157 403.125 328.44 403.125 342.125 403.125C342.172 399.167 342.219 395.21 342.267 391.133C342.325 387.305 342.39 383.478 342.455 379.65C342.497 376.988 342.532 374.325 342.561 371.663C342.603 367.838 342.669 364.014 342.739 360.19C342.747 358.997 342.755 357.804 342.763 356.575C342.788 355.465 342.813 354.356 342.839 353.213C342.853 352.236 342.867 351.26 342.881 350.254C343.525 346.967 344.451 345.86 347.156 343.916C349.711 343.414 349.711 343.414 352.665 343.371C353.773 343.346 354.88 343.321 356.022 343.296C357.213 343.288 358.404 343.28 359.631 343.271C360.854 343.249 362.077 343.226 363.337 343.203C367.246 343.135 371.155 343.092 375.064 343.05C377.713 343.008 380.362 342.965 383.011 342.919C389.507 342.809 396.003 342.734 402.5 342.656C402.5 329.353 402.5 316.05 402.5 302.344C396.573 302.273 396.573 302.273 390.526 302.201C386.705 302.143 382.883 302.078 379.062 302.013C376.403 301.971 373.745 301.936 371.086 301.907C367.267 301.865 363.449 301.799 359.631 301.729C358.44 301.721 357.249 301.712 356.022 301.704C354.914 301.679 353.806 301.654 352.665 301.629C351.69 301.615 350.715 301.601 349.711 301.586C346.429 300.941 345.324 300.014 343.383 297.305C342.881 294.746 342.881 294.746 342.839 291.787C342.814 290.678 342.789 289.568 342.763 288.425C342.755 287.232 342.747 286.039 342.739 284.81C342.716 283.585 342.694 282.36 342.671 281.098C342.602 277.183 342.56 273.269 342.518 269.354C342.476 266.7 342.433 264.047 342.388 261.394C342.278 254.888 342.202 248.382 342.125 241.875C328.842 241.875 315.56 241.875 301.875 241.875Z" fill="white"/>
<path d="M333.755 39.1537C339.68 39.2291 345.604 39.2384 351.529 39.2459C357.305 39.2571 363.08 39.2958 368.856 39.3438C371.583 39.3659 374.309 39.383 377.036 39.3946C397.605 39.5195 417.632 41.1008 436.618 49.7607C437.582 50.1824 438.545 50.6041 439.538 51.0386C450.373 55.8669 460.932 61.2836 471.508 66.6494C508.027 85.1556 539.519 99.2174 580.957 99.7429C582.048 99.7581 583.139 99.7732 584.263 99.7889C588.798 99.85 593.332 99.91 597.867 99.9321C601.219 99.9515 604.57 100.002 607.921 100.058C608.945 100.055 609.968 100.053 611.022 100.051C615.612 100.15 618.294 100.362 622 103.188C624.032 106.041 624.558 107.394 624.504 110.859C624.523 112.107 624.523 112.107 624.543 113.379C623.571 117.046 621.733 118.535 618.844 120.937C615.739 121.569 615.739 121.569 612.222 121.57C610.898 121.581 609.574 121.593 608.21 121.605C606.068 121.584 606.068 121.584 603.883 121.562C602.399 121.564 600.915 121.566 599.387 121.568C596.239 121.566 593.091 121.551 589.944 121.525C585.185 121.489 580.427 121.499 575.668 121.516C545.574 121.497 545.574 121.497 530.797 117.158C529.933 116.909 529.068 116.659 528.178 116.402C514.744 112.451 502.213 107.169 489.717 100.883C486.916 99.4745 484.106 98.0855 481.294 96.7005C475.566 93.8765 469.849 91.032 464.133 88.1836C431.982 71.4531 431.982 71.4531 397.077 62.9101C396.095 62.8039 395.113 62.6976 394.101 62.5881C383.363 61.4868 372.629 61.0401 361.842 60.7738C360.269 60.7341 360.269 60.7341 358.663 60.6935C350.766 60.5049 342.87 60.3878 334.971 60.3113C333.236 60.294 333.236 60.294 331.465 60.2763C296.995 59.9904 268.025 61.5201 237.565 79.1905C230.064 83.4725 222.021 86.536 214.011 89.7169C211.63 90.6706 209.263 91.6524 206.899 92.6481C196.533 97.0019 196.533 97.0019 193.703 97.0019C194.472 101.218 195.327 105.408 196.219 109.6C196.452 110.821 196.686 112.042 196.926 113.3C200.114 117.88 204.768 118.655 210.055 119.678C226.571 122.008 244.755 115.905 260.21 110.466C265.507 108.624 269.807 107.3 275.461 108.34C280.105 111.605 281.535 113.431 282.536 119.048C281.749 123.465 280.899 125.198 277.682 128.222C272.93 131.504 267.283 132.776 261.782 134.322C260.485 134.699 259.188 135.075 257.851 135.462C254.086 136.534 250.314 137.566 246.531 138.574C245.591 138.825 244.651 139.076 243.682 139.335C227.045 143.611 206.438 145.951 190.976 136.995C181.332 130.344 174.506 121.221 172.32 109.6C171.481 100.756 171.446 92.1935 176.094 84.4043C182.067 77.8126 189.22 74.5306 197.354 71.3145C198.554 70.8238 199.754 70.3331 200.991 69.8275C204.818 68.2667 208.654 66.7292 212.492 65.1928C216.229 63.6779 219.963 62.1583 223.696 60.634C226.241 59.6048 228.792 58.5925 231.35 57.596C237.504 55.1777 243.351 52.6746 249.088 49.3738C274.952 35.248 305.211 38.7123 333.755 39.1537Z" fill="white"/>
<path d="M455.643 509.812C464.953 517.46 470.776 526.713 472.034 538.801C472.283 546.273 471.914 554.101 467.906 560.596C461.711 567.064 454.876 570.432 446.647 573.686C445.446 574.176 444.246 574.667 443.01 575.173C439.182 576.734 435.346 578.271 431.509 579.807C427.772 581.322 424.037 582.842 420.304 584.366C417.76 585.395 415.208 586.408 412.651 587.404C406.497 589.822 400.649 592.326 394.913 595.626C369.048 609.752 338.789 606.288 310.245 605.846C304.32 605.771 298.396 605.762 292.471 605.754C286.695 605.743 280.92 605.704 275.144 605.656C272.418 605.634 269.691 605.617 266.964 605.606C245.672 605.476 225.552 603.581 205.967 594.531C204.879 594.047 203.791 593.563 202.67 593.064C192.248 588.364 182.048 583.211 171.859 578.031C159.963 571.994 147.924 566.253 135.844 560.596C134.962 560.181 134.08 559.767 133.171 559.34C110.46 548.77 87.7552 545.56 62.9203 545.257C61.8307 545.242 60.741 545.227 59.6184 545.211C55.1004 545.15 50.5829 545.09 46.0646 545.068C42.7205 545.049 39.3782 544.998 36.0346 544.942C34.5056 544.946 34.5056 544.946 32.9458 544.95C28.3659 544.849 25.6997 544.634 22.0028 541.812C19.9675 538.959 19.4422 537.608 19.4963 534.141C19.4769 532.894 19.4769 532.894 19.457 531.621C20.4295 527.955 22.2676 526.465 25.1565 524.063C28.2609 523.431 28.2609 523.431 31.7787 523.431C33.1025 523.419 34.4263 523.407 35.7901 523.395C37.2182 523.409 38.6462 523.423 40.1176 523.438C41.6012 523.436 43.0849 523.434 44.6135 523.432C47.7612 523.434 50.9088 523.449 54.0564 523.475C58.8156 523.511 63.5731 523.501 68.3324 523.484C98.4264 523.503 98.4264 523.503 113.203 527.842C114.068 528.091 114.932 528.341 115.822 528.598C129.256 532.549 141.788 537.832 154.284 544.117C157.084 545.526 159.894 546.915 162.707 548.3C168.434 551.124 174.152 553.968 179.867 556.817C212.018 573.547 212.018 573.547 246.924 582.09C247.906 582.196 248.888 582.303 249.899 582.412C260.637 583.513 271.371 583.96 282.158 584.226C283.207 584.253 284.256 584.279 285.337 584.307C293.234 584.495 301.13 584.612 309.029 584.689C310.186 584.7 311.343 584.712 312.535 584.724C347.005 585.01 375.976 583.48 406.436 565.81C413.936 561.528 421.979 558.464 429.99 555.283C432.371 554.33 434.738 553.348 437.101 552.352C447.467 547.998 447.467 547.998 450.297 547.998C449.529 543.782 448.674 539.592 447.781 535.401C447.548 534.179 447.315 532.958 447.074 531.7C443.873 527.101 439.262 526.325 433.946 525.322C417.01 523.155 399.7 528.977 383.869 534.534C378.549 536.366 374.209 537.703 368.539 536.66C363.896 533.395 362.466 531.569 361.464 525.952C362.252 521.536 363.101 519.802 366.318 516.778C371.07 513.497 376.718 512.224 382.218 510.678C383.515 510.302 384.813 509.926 386.149 509.538C389.914 508.466 393.687 507.434 397.469 506.426C398.409 506.175 399.35 505.924 400.319 505.665C418.126 501.088 439.775 498.869 455.643 509.812Z" fill="white"/>
<path d="M221.076 415.737C222.005 416.564 222.934 417.39 223.891 418.242C224.677 418.926 225.464 419.609 226.274 420.314C229.666 423.466 232.308 426.326 234.488 430.458C241.778 444.025 252.381 447.516 266.185 452.728C268.294 453.562 270.402 454.4 272.508 455.243C276.603 456.875 280.705 458.488 284.814 460.083C290.037 462.119 295.226 464.224 300.387 466.413C301.709 466.972 303.031 467.532 304.394 468.108C321.326 476.122 336.585 489.047 343.147 506.977C346.989 521.352 346.057 538.324 339.61 551.777C337.546 554.745 337.546 554.745 334.578 556.816C326.196 557.583 320.323 555.645 312.689 552.333C311.558 551.86 310.427 551.386 309.261 550.898C305.56 549.344 301.871 547.766 298.18 546.187C295.611 545.103 293.04 544.02 290.469 542.939C285.17 540.71 279.875 538.472 274.582 536.228C266.95 532.997 259.297 529.818 251.636 526.656C249.861 525.922 249.861 525.922 248.049 525.174C243.498 523.295 238.946 521.416 234.395 519.538C231.285 518.254 228.177 516.966 225.07 515.677C224.165 515.304 223.259 514.931 222.326 514.547C206.404 507.93 206.404 507.93 203.766 502.646C203.143 497.654 202.94 494.992 205.888 490.836C209.242 488.476 211.009 487.889 215.086 487.529C218.209 488.411 221.009 489.37 223.994 490.59C224.867 490.932 225.739 491.275 226.638 491.628C229.504 492.761 232.358 493.921 235.211 495.088C236.659 495.676 236.659 495.676 238.135 496.276C245.433 499.247 252.705 502.281 259.974 505.323C262.234 506.266 264.494 507.208 266.754 508.15C271.276 510.035 275.797 511.921 280.317 513.808C288.824 517.358 297.34 520.887 305.857 524.413C308.207 525.386 310.557 526.359 312.907 527.333C316.357 528.763 319.807 530.192 323.258 531.621C322.916 528.599 322.559 525.58 322.192 522.561C322.098 521.712 322.003 520.863 321.906 519.988C320.555 509.134 315.718 503.048 307.378 496.348C293.89 487.198 278.276 481.636 263.286 475.463C262.33 475.069 261.375 474.676 260.39 474.27C255.572 472.289 250.751 470.317 245.922 468.361C245.013 467.991 244.104 467.621 243.168 467.24C241.456 466.543 239.743 465.85 238.028 465.161C230.285 462 225.245 459.817 221.611 452.098C212.643 434.817 199.057 426.15 181.179 419.433C162.494 413.619 135.943 414.413 118.235 423.281C115.32 423.423 112.402 423.482 109.485 423.504C108.134 423.517 108.134 423.517 106.757 423.529C103.773 423.554 100.789 423.569 97.805 423.581C96.7867 423.586 95.7684 423.592 94.7192 423.597C89.3308 423.623 83.9424 423.641 78.554 423.653C72.9847 423.667 67.4161 423.71 61.847 423.76C57.5675 423.793 53.2882 423.804 49.0085 423.808C46.9554 423.814 44.9023 423.829 42.8492 423.852C39.9763 423.883 37.1051 423.882 34.232 423.873C32.5973 423.881 30.9625 423.888 29.2782 423.896C24.4798 423.18 23.0096 422.068 20.1252 418.242C19.457 415.723 19.457 415.723 19.4963 413.203C19.4769 411.956 19.4769 411.956 19.457 410.683C20.4421 406.969 22.1871 405.522 25.1565 403.125C28.817 402.513 28.817 402.513 33.1244 402.537C34.7422 402.533 36.36 402.528 38.0269 402.523C39.3213 402.537 39.3213 402.537 40.642 402.551C43.3698 402.579 46.096 402.574 48.8239 402.561C55.6124 402.534 62.4005 402.555 69.189 402.588C98.4182 403.362 98.4182 403.362 126.678 397.081C157.297 385.867 196.734 395.091 221.076 415.737Z" fill="white"/>
<path d="M319.485 88.1837C323.576 89.3467 327.412 90.9751 331.311 92.6667C332.442 93.1404 333.574 93.614 334.739 94.102C338.44 95.6558 342.13 97.2342 345.82 98.813C348.39 99.8974 350.96 100.98 353.532 102.061C358.83 104.29 364.126 106.528 369.418 108.772C377.051 112.003 384.703 115.182 392.364 118.344C393.548 118.833 394.732 119.322 395.951 119.826C400.503 121.705 405.054 123.584 409.606 125.462C412.715 126.746 415.823 128.034 418.93 129.323C420.289 129.882 420.289 129.882 421.674 130.453C437.597 137.07 437.597 137.07 440.235 142.354C440.858 147.346 441.06 150.008 438.112 154.164C434.759 156.524 432.991 157.111 428.914 157.471C425.792 156.589 422.991 155.63 420.006 154.41C419.134 154.068 418.261 153.725 417.363 153.372C414.496 152.239 411.642 151.079 408.789 149.912C407.342 149.324 407.342 149.324 405.865 148.724C398.567 145.753 391.295 142.719 384.026 139.677C381.766 138.734 379.506 137.792 377.246 136.85C372.725 134.965 368.204 133.079 363.684 131.192C355.176 127.642 346.66 124.113 338.143 120.587C335.793 119.614 333.444 118.641 331.094 117.667C327.644 116.237 324.193 114.808 320.742 113.379C320.896 115.563 321.062 117.746 321.234 119.929C321.371 121.753 321.371 121.753 321.51 123.613C322.852 133.533 328.058 141.904 335.782 148.111C350.254 158.18 367.582 164.057 383.783 170.719C387.338 172.183 390.891 173.654 394.444 175.126C397.038 176.194 399.638 177.247 402.239 178.299C403.851 178.964 405.463 179.629 407.075 180.294C408.498 180.874 409.921 181.453 411.387 182.05C417.417 185.114 420.435 189.127 423.647 194.949C433.228 211.204 447.108 221.094 465.289 226.172C472.917 228.076 480.268 228.501 488.11 228.49C489.368 228.491 490.626 228.492 491.921 228.492C503.383 228.324 515.366 226.927 525.766 221.719C528.68 221.577 531.598 221.518 534.516 221.496C535.866 221.483 535.866 221.483 537.244 221.471C540.228 221.446 543.211 221.431 546.196 221.419C547.214 221.414 548.232 221.408 549.281 221.403C554.67 221.377 560.058 221.359 565.447 221.347C571.016 221.333 576.584 221.29 582.154 221.24C586.433 221.207 590.712 221.196 594.992 221.192C597.045 221.186 599.098 221.171 601.151 221.148C604.024 221.117 606.895 221.118 609.769 221.127C611.403 221.119 613.038 221.112 614.722 221.104C619.521 221.82 620.991 222.932 623.875 226.758C624.543 229.277 624.543 229.277 624.504 231.797C624.524 233.044 624.524 233.044 624.543 234.317C623.558 238.031 621.813 239.478 618.844 241.875C615.184 242.487 615.184 242.487 610.876 242.463C608.449 242.47 608.449 242.47 605.974 242.477C605.111 242.467 604.248 242.458 603.359 242.449C600.631 242.421 597.905 242.426 595.177 242.439C588.388 242.466 581.6 242.445 574.812 242.412C545.584 241.639 545.584 241.639 517.323 247.912C494.883 256.172 467.089 252.326 445.502 243.292C443.73 242.432 441.974 241.538 440.235 240.615C439.233 240.088 438.231 239.56 437.198 239.016C424.22 231.712 411.941 221.17 404.832 207.911C401.185 202.034 397.065 200.094 390.748 197.695C389.734 197.28 388.721 196.864 387.677 196.437C384.454 195.123 381.215 193.854 377.973 192.587C375.836 191.729 373.7 190.868 371.566 190.003C368.437 188.737 365.308 187.471 362.174 186.217C338.118 176.562 313.24 165.957 301.924 140.941C296.702 126.714 298.245 110.679 302.799 96.5445C306.649 88.5114 310.879 87.1429 319.485 88.1837Z" fill="white"/>
<path d="M164.773 191.485C168.468 194.083 168.468 194.083 171.062 197.783C172.016 205.353 169.792 209.471 165.402 215.341C144.023 245.776 133.091 282.083 133.095 319.15C133.092 321.994 133.069 324.838 133.045 327.682C133.008 337.577 133.472 346.976 135.302 356.742C136.187 362.542 136.862 367.935 133.328 372.891C129.989 375.492 128.186 375.406 123.894 375.253C118.877 373.996 117.577 373.16 114.461 369.111C113.481 365.622 112.802 362.492 112.294 358.935C112.141 357.936 111.989 356.937 111.831 355.908C110.274 344.888 110.051 333.927 110.137 322.815C110.14 321.776 110.144 320.737 110.147 319.666C110.23 302.953 111.483 287.077 115.719 270.85C116.062 269.445 116.062 269.445 116.412 268.011C122.979 241.389 135.776 213.846 153.453 192.744C157.401 190.767 160.419 191.041 164.773 191.485Z" fill="white"/>
<path d="M523.249 270.849C530.633 276.773 531.508 283.122 532.678 292.078C535.116 317.134 535.587 344.583 529.538 369.111C529.163 370.678 529.163 370.678 528.781 372.277C522.888 396.28 510.11 439.303 488.227 453.791C484.274 455.25 481.569 454.726 477.575 453.594C474.194 450.996 474.194 450.996 472.15 446.98C471.31 438.423 475.931 433.12 480.798 426.43C501.267 397.72 510.908 360.674 510.904 325.85C510.907 323.006 510.929 320.162 510.953 317.318C510.99 307.365 510.508 297.914 508.682 288.089C507.911 283.137 508.156 279.486 509.413 274.629C513.208 269.95 517.527 270.045 523.249 270.849Z" fill="white"/>
<path d="M197.476 159.99C201.608 162.714 202.381 164.568 203.686 169.36C203.774 174.389 203.091 176.266 199.991 180.147C195.274 183.297 193 183.342 187.413 182.666C183.718 180.068 183.718 180.068 181.124 176.367C180.254 170.947 180.475 168.545 183.482 163.927C187.973 159.43 191.202 159.449 197.476 159.99Z" fill="white"/>
<path d="M459.103 463.594C462.957 466.168 463.909 467.928 465.313 472.334C465.408 476.984 464.443 478.853 461.618 482.49C456.901 485.64 454.627 485.685 449.04 485.01C444.396 481.744 442.966 479.919 441.965 474.302C442.751 469.893 442.751 469.893 445.267 466.192C450.488 462.597 452.851 462.699 459.103 463.594Z" fill="white"/>
</svg>
