<svg width="48" height="48" viewBox="0 0 48 48" fill="none" xmlns="http://www.w3.org/2000/svg">
<mask id="path-1-inside-1_226_22" fill="white">
<path d="M24 30C24.844 30 25.5547 29.7107 26.132 29.132C26.7107 28.5547 27 27.844 27 27C27 26.156 26.7107 25.4453 26.132 24.868C25.5533 24.2907 24.8427 24.0013 24 24C23.1573 23.9987 22.4467 24.288 21.868 24.868C21.2893 25.4453 21 26.156 21 27C21 27.844 21.2893 28.5547 21.868 29.132C22.4467 29.7093 23.1573 29.9987 24 30ZM9.232 40C8.31067 40 7.542 39.692 6.926 39.076C6.31 38.46 6.00133 37.6907 6 36.768V17.232C6 16.3107 6.30867 15.542 6.926 14.926C7.54333 14.31 8.31133 14.0013 9.23 14H18V11.23C18 10.31 18.3087 9.54134 18.926 8.924C19.5433 8.30667 20.312 7.99867 21.232 8H26.77C27.69 8 28.4587 8.308 29.076 8.924C29.6933 9.54 30.0013 10.3087 30 11.23V14H38.77C39.69 14 40.458 14.3087 41.074 14.926C41.69 15.5433 41.9987 16.312 42 17.232V36.77C42 37.69 41.6913 38.4587 41.074 39.076C40.4567 39.6933 39.6887 40.0013 38.77 40H9.232ZM9.232 38H38.77C39.0767 38 39.3587 37.872 39.616 37.616C39.8733 37.36 40.0013 37.0773 40 36.768V17.232C40 16.924 39.872 16.6413 39.616 16.384C39.36 16.1267 39.078 15.9987 38.77 16H9.23C8.92333 16 8.64133 16.128 8.384 16.384C8.12667 16.64 7.99867 16.9227 8 17.232V36.77C8 37.0767 8.128 37.3587 8.384 37.616C8.64 37.8733 8.922 38.0013 9.23 38M20 14H28V11.23C28 10.9233 27.872 10.6413 27.616 10.384C27.36 10.1267 27.078 9.99867 26.77 10H21.23C20.9233 10 20.6413 10.128 20.384 10.384C20.1267 10.64 19.9987 10.922 20 11.23V14Z"/>
</mask>
<path d="M24 30C24.844 30 25.5547 29.7107 26.132 29.132C26.7107 28.5547 27 27.844 27 27C27 26.156 26.7107 25.4453 26.132 24.868C25.5533 24.2907 24.8427 24.0013 24 24C23.1573 23.9987 22.4467 24.288 21.868 24.868C21.2893 25.4453 21 26.156 21 27C21 27.844 21.2893 28.5547 21.868 29.132C22.4467 29.7093 23.1573 29.9987 24 30ZM9.232 40C8.31067 40 7.542 39.692 6.926 39.076C6.31 38.46 6.00133 37.6907 6 36.768V17.232C6 16.3107 6.30867 15.542 6.926 14.926C7.54333 14.31 8.31133 14.0013 9.23 14H18V11.23C18 10.31 18.3087 9.54134 18.926 8.924C19.5433 8.30667 20.312 7.99867 21.232 8H26.77C27.69 8 28.4587 8.308 29.076 8.924C29.6933 9.54 30.0013 10.3087 30 11.23V14H38.77C39.69 14 40.458 14.3087 41.074 14.926C41.69 15.5433 41.9987 16.312 42 17.232V36.77C42 37.69 41.6913 38.4587 41.074 39.076C40.4567 39.6933 39.6887 40.0013 38.77 40H9.232ZM9.232 38H38.77C39.0767 38 39.3587 37.872 39.616 37.616C39.8733 37.36 40.0013 37.0773 40 36.768V17.232C40 16.924 39.872 16.6413 39.616 16.384C39.36 16.1267 39.078 15.9987 38.77 16H9.23C8.92333 16 8.64133 16.128 8.384 16.384C8.12667 16.64 7.99867 16.9227 8 17.232V36.77C8 37.0767 8.128 37.3587 8.384 37.616C8.64 37.8733 8.922 38.0013 9.23 38M20 14H28V11.23C28 10.9233 27.872 10.6413 27.616 10.384C27.36 10.1267 27.078 9.99867 26.77 10H21.23C20.9233 10 20.6413 10.128 20.384 10.384C20.1267 10.64 19.9987 10.922 20 11.23V14Z" fill="url(#paint0_linear_226_22)"/>
<path d="M8 38H8.5V16H8H7.5V38H8ZM24 30L23.9984 31H24V30ZM26.132 29.132L25.4257 28.4241L25.4241 28.4257L26.132 29.132ZM21.868 24.868L22.5743 25.5759L22.5759 25.5743L21.868 24.868ZM6 36.768H5L5 36.7695L6 36.768ZM9.23 14V13L9.22855 13L9.23 14ZM18 14V15H19V14H18ZM21.232 8L21.2306 9H21.232V8ZM30 11.23L29 11.2286V11.23H30ZM30 14H29V15H30V14ZM42 17.232H43V17.2306L42 17.232ZM38.77 40L38.7715 39H38.77V40ZM40 36.768H39L39 36.7723L40 36.768ZM38.77 16V17L38.7743 17L38.77 16ZM8 17.232H9.00001L8.99999 17.2277L8 17.232ZM20 14H19V15H20V14ZM28 14V15H29V14H28ZM26.77 10V11L26.7743 11L26.77 10ZM20 11.23H21L21 11.2257L20 11.23ZM24 30V31C25.1 31 26.0683 30.6117 26.8399 29.8383L26.132 29.132L25.4241 28.4257C25.0411 28.8096 24.588 29 24 29V30ZM26.132 29.132L26.8383 29.8399C27.6117 29.0683 28 28.1 28 27H27H26C26 27.588 25.8096 28.0411 25.4257 28.4241L26.132 29.132ZM27 27H28C28 25.9 27.6117 24.9317 26.8383 24.1601L26.132 24.868L25.4257 25.5759C25.8096 25.9589 26 26.412 26 27H27ZM26.132 24.868L26.8383 24.1601C26.0662 23.3898 25.0994 23.0017 24.0016 23L24 24L23.9984 25C24.5859 25.0009 25.0405 25.1916 25.4257 25.5759L26.132 24.868ZM24 24L24.0016 23C22.9013 22.9983 21.9327 23.3874 21.1601 24.1617L21.868 24.868L22.5759 25.5743C22.9607 25.1887 23.4134 24.9991 23.9984 25L24 24ZM21.868 24.868L21.1617 24.1601C20.3883 24.9317 20 25.9 20 27H21H22C22 26.412 22.1904 25.9589 22.5743 25.5759L21.868 24.868ZM21 27H20C20 28.1 20.3883 29.0683 21.1617 29.8399L21.868 29.132L22.5743 28.4241C22.1904 28.0411 22 27.588 22 27H21ZM21.868 29.132L21.1617 29.8399C21.9338 30.6103 22.9006 30.9983 23.9984 31L24 30L24.0016 29C23.4141 28.9991 22.9595 28.8084 22.5743 28.4241L21.868 29.132ZM9.232 40V39C8.55892 39 8.0499 38.7857 7.63311 38.3689L6.926 39.076L6.21889 39.7831C7.0341 40.5983 8.06242 41 9.232 41V40ZM6.926 39.076L7.63311 38.3689C7.21622 37.952 7.00097 37.4419 7 36.7666L6 36.768L5 36.7695C5.00169 37.9395 5.40378 38.968 6.21889 39.7831L6.926 39.076ZM6 36.768H7V17.232H6H5V36.768H6ZM6 17.232H7C7 16.5596 7.21449 16.0508 7.63234 15.6339L6.926 14.926L6.21966 14.2181C5.40284 15.0332 5 16.0617 5 17.232H6ZM6.926 14.926L7.63234 15.6339C8.05174 15.2154 8.56144 15.001 9.23145 15L9.23 14L9.22855 13C8.06122 13.0017 7.03493 13.4046 6.21966 14.2181L6.926 14.926ZM9.23 14V15H18V14V13H9.23V14ZM18 14H19V11.23H18H17V14H18ZM18 11.23H19C19 10.5594 19.2142 10.05 19.6331 9.63111L18.926 8.924L18.2189 8.2169C17.4031 9.03269 17 10.0606 17 11.23H18ZM18.926 8.924L19.6331 9.63111C20.0516 9.21262 20.5604 8.99903 21.2306 9L21.232 8L21.2334 7.00001C20.0636 6.99831 19.0351 7.40072 18.2189 8.2169L18.926 8.924ZM21.232 8V9H26.77V8V7H21.232V8ZM26.77 8V9C27.4413 9 27.9509 9.21406 28.3697 9.63187L29.076 8.924L29.7823 8.21613C28.9664 7.40195 27.9387 7 26.77 7V8ZM29.076 8.924L28.3697 9.63187C28.7871 10.0484 29.001 10.5566 29 11.2286L30 11.23L31 11.2315C31.0017 10.0607 30.5995 9.03156 29.7823 8.21613L29.076 8.924ZM30 11.23H29V14H30H31V11.23H30ZM30 14V15H38.77V14V13H30V14ZM38.77 14V15C39.4406 15 39.9489 15.2142 40.3661 15.6323L41.074 14.926L41.7819 14.2197C40.9671 13.4031 39.9394 13 38.77 13V14ZM41.074 14.926L40.3661 15.6323C40.7843 16.0514 40.999 16.5617 41 17.2335L42 17.232L43 17.2306C42.9983 16.0623 42.5957 15.0352 41.7819 14.2197L41.074 14.926ZM42 17.232H41V36.77H42H43V17.232H42ZM42 36.77H41C41 37.4406 40.7858 37.95 40.3669 38.3689L41.074 39.076L41.7811 39.7831C42.5969 38.9673 43 37.9394 43 36.77H42ZM41.074 39.076L40.3669 38.3689C39.9481 38.7877 39.4399 39.001 38.7715 39L38.77 40L38.7686 41C39.9375 41.0017 40.9652 40.599 41.7811 39.7831L41.074 39.076ZM38.77 40V39H9.232V40V41H38.77V40ZM9.232 38V39H38.77V38V37H9.232V38ZM38.77 38V39C39.3889 39 39.9135 38.7306 40.3213 38.3249L39.616 37.616L38.9107 36.9071C38.8523 36.9652 38.8137 36.9864 38.7982 36.9934C38.7857 36.9991 38.7793 37 38.77 37V38ZM39.616 37.616L40.3213 38.3249C40.7328 37.9156 41.0027 37.3869 41 36.7637L40 36.768L39 36.7723C39.0001 36.7828 38.9989 36.7887 38.994 36.7995C38.9878 36.8133 38.9678 36.8503 38.9107 36.9071L39.616 37.616ZM40 36.768H41V17.232H40H39V36.768H40ZM40 17.232H41C41 16.6129 40.7316 16.0875 40.3249 15.6787L39.616 16.384L38.9071 17.0893C38.9648 17.1473 38.9859 17.1858 38.993 17.2015C38.9988 17.2142 39 17.2214 39 17.232H40ZM39.616 16.384L40.3249 15.6787C39.9165 15.2682 39.3888 14.9973 38.7657 15L38.77 16L38.7743 17C38.7835 17 38.7886 17.0008 38.7992 17.0056C38.8129 17.0118 38.85 17.0319 38.9071 17.0893L39.616 16.384ZM38.77 16V15H9.23V16V17H38.77V16ZM9.23 16V15C8.61109 15 8.08649 15.2694 7.67873 15.6751L8.384 16.384L9.08927 17.0929C9.14768 17.0348 9.1863 17.0136 9.20182 17.0066C9.21432 17.0009 9.22068 17 9.23 17V16ZM8.384 16.384L7.67873 15.6751C7.26722 16.0844 6.99732 16.6131 7.00001 17.2363L8 17.232L8.99999 17.2277C8.99995 17.2172 9.00105 17.2113 9.00595 17.2005C9.01222 17.1867 9.03224 17.1497 9.08927 17.0929L8.384 16.384ZM8 17.232H7V36.77H8H9V17.232H8ZM8 36.77H7C7 37.3889 7.26941 37.9135 7.67506 38.3213L8.384 37.616L9.09294 36.9107C9.03484 36.8523 9.01363 36.8137 9.00659 36.7982C9.00091 36.7857 9 36.7793 9 36.77H8ZM8.384 37.616L7.67506 38.3213C8.08346 38.7318 8.61124 39.0027 9.23433 39L9.23 38L9.22567 37C9.21651 37.0001 9.21141 36.9992 9.20081 36.9944C9.18714 36.9882 9.15003 36.9681 9.09294 36.9107L8.384 37.616ZM20 14V15H28V14V13H20V14ZM28 14H29V11.23H28H27V14H28ZM28 11.23H29C29 10.6111 28.7306 10.0865 28.3249 9.67874L27.616 10.384L26.9071 11.0893C26.9652 11.1477 26.9864 11.1863 26.9934 11.2018C26.9991 11.2143 27 11.2207 27 11.23H28ZM27.616 10.384L28.3249 9.67874C27.9165 9.26821 27.3888 8.99732 26.7657 9.00001L26.77 10L26.7743 11C26.7835 11 26.7886 11.0008 26.7992 11.0056C26.8129 11.0118 26.85 11.0319 26.9071 11.0893L27.616 10.384ZM26.77 10V9H21.23V10V11H26.77V10ZM21.23 10V9C20.6111 9 20.0865 9.26942 19.6787 9.67506L20.384 10.384L21.0893 11.0929C21.1477 11.0348 21.1863 11.0136 21.2018 11.0066C21.2143 11.0009 21.2207 11 21.23 11V10ZM20.384 10.384L19.6787 9.67506C19.2682 10.0835 18.9973 10.6112 19 11.2343L20 11.23L21 11.2257C21 11.2165 21.0008 11.2114 21.0056 11.2008C21.0118 11.1871 21.0319 11.15 21.0893 11.0929L20.384 10.384ZM20 11.23H19V14H20H21V11.23H20Z" fill="#E7000B" mask="url(#path-1-inside-1_226_22)"/>
<defs>
<linearGradient id="paint0_linear_226_22" x1="24" y1="8" x2="24" y2="40.0001" gradientUnits="userSpaceOnUse">
<stop stop-color="#F63D3D"/>
<stop offset="1" stop-color="#C85858"/>
</linearGradient>
</defs>
</svg>
