<svg width="24" height="24" viewBox="0 0 24 24" fill="none" xmlns="http://www.w3.org/2000/svg">
<path d="M6.75 15.75H2.25C1.42275 15.75 0.75 15.0773 0.75 14.25V9.75002C0.75 8.92277 1.42275 8.25002 2.25 8.25002H6.75C7.57725 8.25002 8.25 8.92277 8.25 9.75002V14.25C8.25 15.0773 7.57725 15.75 6.75 15.75ZM2.25 9.75002V14.25H6.75V9.75002H2.25ZM12 22.5C11.7285 22.5 11.4595 22.49 11.193 22.47C7.929 22.221 4.923 20.421 3.15075 17.655L4.4145 16.845C5.16762 18.0177 6.18155 19.0005 7.37716 19.7167C8.57276 20.4329 9.9177 20.8631 11.307 20.9738C11.5355 20.9913 11.7665 21 12 21V22.5ZM17.25 22.5L15.675 21.75C14.4 21.15 13.5 19.8 13.5 18.375V13.5H21V18.375C21 19.8 20.175 21.15 18.825 21.75L17.25 22.5ZM15 15V18.375C15 19.275 15.525 20.025 16.275 20.4L17.25 20.85L18.225 20.4C18.975 20.025 19.5 19.2 19.5 18.375V15H15ZM20.4765 9.00002C20.817 9.96152 21 10.9658 21 12H22.5C22.5 10.9725 22.3508 9.96902 22.062 9.00002H20.4765ZM20.25 7.50002H18C17.1727 7.50002 16.5 6.82727 16.5 6.00002V3.75002C16.5 2.92277 17.1727 2.25002 18 2.25002H20.25C21.0773 2.25002 21.75 2.92277 21.75 3.75002V6.00002C21.75 6.82727 21.0773 7.50002 20.25 7.50002ZM18 3.75002V6.00002H20.25V3.75002H18ZM15 1.93802C14.0265 1.64766 13.0159 1.50012 12 1.50002C10.2363 1.49632 8.50024 1.93855 6.95324 2.78562C5.40623 3.63268 4.09847 4.85708 3.1515 6.34502L4.4145 7.15502C5.50611 5.43956 7.14818 4.14587 9.07148 3.48606C10.9948 2.82624 13.0852 2.83945 15 3.52352V1.93802Z" fill="url(#paint0_linear_3709_58385)"/>
<defs>
<linearGradient id="paint0_linear_3709_58385" x1="11.625" y1="1.5" x2="11.625" y2="22.5" gradientUnits="userSpaceOnUse">
<stop stop-color="#F63D3D"/>
<stop offset="1" stop-color="#C95757"/>
</linearGradient>
</defs>
</svg>
