<svg width="592" height="591" viewBox="0 0 592 591" fill="none" xmlns="http://www.w3.org/2000/svg">
<g clip-path="url(#clip0_3748_12456)">
<path d="M288.865 24.1455C301.311 33.693 311.702 46.1731 316.813 61.1777C317.091 64.5887 317.091 64.5887 317.076 68.4025C317.076 69.8349 317.076 71.2672 317.075 72.743C317.064 74.2942 317.051 75.8453 317.039 77.3965C317.035 78.9928 317.032 80.5891 317.029 82.1853C317.02 86.3735 316.998 90.5614 316.972 94.7495C316.948 99.0284 316.938 103.307 316.926 107.586C316.902 115.972 316.862 124.358 316.813 132.744C321.628 132.836 326.437 132.86 331.252 132.822C332.887 132.818 334.523 132.833 336.157 132.867C345.791 133.277 345.791 133.277 354.241 129.398C356.279 126.606 357.635 124.567 358.438 121.201C357.455 117.894 356.118 115.416 354.319 112.472C349.972 105.112 350.753 95.9836 351.501 87.7265C353.706 80.6369 357.388 75.2279 363.063 70.4121C364.315 69.1979 364.315 69.1979 365.593 67.9592C372.97 63.0492 382.037 61.0637 390.813 62.332C401.104 64.7029 409.7 69.7142 415.569 78.6725C420.206 87.566 421.309 97.214 418.97 107.034C415.042 117.86 408.605 124.512 398.248 129.385C394.067 130.948 390.917 131.802 386.464 131.053C382.319 130.385 379.808 130.287 375.782 131.59C371.297 136.283 368.411 142.316 365.586 148.101C363.761 150.716 362.654 151.371 359.595 152.367C356.285 152.562 353.091 152.636 349.785 152.593C348.842 152.589 347.899 152.586 346.927 152.583C343.923 152.57 340.919 152.541 337.915 152.511C335.875 152.5 333.835 152.489 331.795 152.48C326.801 152.456 321.808 152.411 316.813 152.367C316.813 166.08 316.813 179.793 316.813 193.922C331.178 194.163 345.538 194.329 359.905 194.367C366.577 194.388 373.246 194.44 379.917 194.567C386.366 194.688 392.81 194.723 399.26 194.701C401.71 194.708 404.16 194.744 406.61 194.812C421.229 195.504 421.229 195.504 433.688 188.993C436.997 185.416 439.765 181.567 442.473 177.526C444.818 174.344 447.641 172.023 450.649 169.465C459.68 158.976 457.086 142.303 456.72 129.281C455.37 129.037 455.37 129.037 453.994 128.788C447.398 127.361 441.379 122.758 437.208 117.522C431.437 108.42 430.157 98.1306 432.438 87.7265C436.271 76.1041 442.542 70.2803 453.251 64.6406C461.82 61.7892 473.444 62.0107 481.651 65.867C489.235 70.4095 495.446 76.1832 498.733 84.5161C501.202 94.8374 501.046 106.033 495.517 115.294C490.899 121.573 486.093 126.425 478.688 129.281C477.544 129.281 476.399 129.281 475.22 129.281C475.274 130.992 475.274 130.992 475.33 132.737C475.456 137.005 475.535 141.273 475.601 145.542C475.635 147.382 475.683 149.223 475.743 151.063C476.295 168.319 476.295 168.319 472.18 173.879C470.916 175.208 469.616 176.503 468.282 177.762C467.071 179.166 465.871 180.581 464.682 182.005C463.452 183.406 462.219 184.806 460.983 186.202C455.531 192.417 450.215 198.703 445.044 205.154C444.318 206.018 443.592 206.883 442.845 207.773C442.277 208.578 441.709 209.384 441.124 210.213C436.571 213.626 432.095 212.997 426.55 212.915C425.365 212.915 424.18 212.916 422.96 212.917C419.043 212.914 415.127 212.878 411.21 212.841C408.495 212.833 405.78 212.826 403.064 212.822C395.917 212.804 388.77 212.759 381.623 212.708C374.33 212.66 367.037 212.639 359.744 212.616C345.433 212.567 331.123 212.485 316.813 212.391C316.813 223.437 316.813 234.484 316.813 245.865C356.496 245.865 396.178 245.865 437.063 245.865C437.826 244.342 438.59 242.818 439.376 241.248C441.289 239.051 443.22 236.932 445.229 234.827C449.424 230.355 453.454 225.829 457.298 221.048C461.555 215.77 466.023 210.758 470.643 205.799C474.369 201.797 477.952 197.706 481.425 193.484C485.053 189.889 488.005 188.256 493.147 187.757C495.427 187.784 495.427 187.784 497.753 187.812C498.566 187.817 499.379 187.822 500.217 187.827C502.797 187.846 505.376 187.89 507.956 187.934C509.712 187.951 511.468 187.967 513.225 187.981C517.515 188.019 521.805 188.079 526.095 188.15C526.248 187.267 526.402 186.383 526.56 185.472C528.344 177.484 534.744 172.02 541.126 167.373C549.276 162.467 559.19 162.929 568.32 164.37C577.617 166.873 584.84 173.621 589.761 181.73C593.76 190.731 593.689 201.939 590.976 211.317C587.099 219.727 581.276 226.252 572.85 230.21C562.697 233.774 551.2 233.565 541.415 229.002C533.223 223.947 528.923 217.444 524.938 208.928C506.916 206.479 506.916 206.479 490.413 211.565C487.068 214.91 484.653 218.779 482.157 222.779C480.452 224.919 478.719 227.037 476.954 229.128C475.702 230.681 475.702 230.681 474.425 232.266C471.017 236.358 467.411 240.24 463.777 244.131C459.195 249.068 454.969 254.223 450.794 259.509C448.379 262.312 446.506 264.176 442.726 264.618C441.783 264.616 440.839 264.614 439.868 264.612C438.241 264.616 438.241 264.616 436.581 264.621C435.393 264.613 434.205 264.605 432.982 264.596C431.729 264.596 430.477 264.597 429.187 264.597C425.039 264.595 420.891 264.577 416.743 264.559C413.871 264.555 410.998 264.552 408.126 264.55C401.332 264.542 394.539 264.523 387.745 264.5C377.896 264.467 368.046 264.455 358.196 264.441C344.402 264.418 330.608 264.374 316.813 264.334C316.813 284.904 316.813 305.473 316.813 326.666C325.887 326.572 334.961 326.479 344.31 326.382C350.065 326.341 355.819 326.302 361.573 326.271C370.703 326.223 379.833 326.166 388.963 326.056C396.325 325.969 403.686 325.92 411.049 325.899C413.855 325.884 416.662 325.855 419.468 325.812C423.405 325.753 427.338 325.745 431.275 325.749C432.431 325.72 433.587 325.691 434.778 325.661C442.294 325.738 446.066 327.416 451.4 332.731C452.011 333.396 452.622 334.061 453.251 334.746C454.179 335.692 455.108 336.639 456.065 337.614C460.389 342.494 464.612 347.426 468.716 352.493C473.92 358.916 479.411 365.038 485.152 370.986C486.782 372.838 486.782 372.838 488.405 375.271C491.357 379.41 493.382 381.719 498.446 382.916C502.654 383.239 506.772 383.293 510.991 383.227C513.17 383.247 513.17 383.247 515.393 383.267C518.962 383.294 522.526 383.279 526.095 383.227C526.248 382.343 526.402 381.459 526.56 380.548C528.332 372.616 534.697 366.979 541.126 362.449C549.51 358.022 559.407 357.534 568.537 359.744C577.4 362.897 584.692 368.131 589.038 376.589C593.116 385.717 593.669 396.618 591.075 406.308C587.182 414.869 580.138 421.98 571.55 425.936C561.866 428.888 550.574 428.349 541.415 424.078C533.223 419.023 528.923 412.52 524.938 404.004C523.848 403.987 522.757 403.97 521.634 403.953C517.571 403.882 513.51 403.797 509.448 403.701C507.693 403.663 505.938 403.63 504.183 403.604C501.653 403.565 499.125 403.505 496.597 403.44C495.077 403.41 493.557 403.38 491.991 403.349C486.44 402.665 483.483 400.843 479.763 396.758C478.979 395.745 478.195 394.731 477.388 393.687C473.553 388.861 469.599 384.261 465.391 379.764C461.351 375.431 457.482 371.028 453.757 366.417C452.543 364.971 452.543 364.971 451.305 363.496C448.626 360.141 448.626 360.141 446.56 356.803C443.182 351.986 440.152 348.276 434.384 346.721C426.179 345.538 417.897 345.817 409.63 345.951C406.95 345.949 404.27 345.941 401.591 345.928C394.568 345.908 387.548 345.964 380.526 346.036C373.349 346.097 366.171 346.085 358.994 346.079C344.933 346.079 330.874 346.165 316.813 346.289C316.813 356.574 316.813 366.859 316.813 377.455C320.321 377.443 323.828 377.431 327.442 377.418C339.025 377.38 350.609 377.355 362.193 377.335C369.217 377.323 376.24 377.307 383.264 377.281C390.041 377.256 396.819 377.242 403.596 377.236C406.183 377.232 408.769 377.223 411.356 377.211C414.977 377.194 418.597 377.192 422.218 377.193C423.289 377.185 424.361 377.176 425.464 377.168C432.451 377.19 437.084 377.604 442.357 382.573C443.398 383.718 444.427 384.875 445.446 386.04C445.998 386.656 446.55 387.272 447.119 387.906C451.548 392.887 455.768 398.03 459.949 403.219C463.417 407.422 467.078 411.433 470.771 415.439C475.241 420.495 475.535 424.018 475.445 430.494C475.441 431.832 475.441 431.832 475.436 433.197C475.423 436.043 475.394 438.889 475.364 441.735C475.353 443.666 475.342 445.596 475.333 447.527C475.307 452.258 475.267 456.988 475.22 461.719C476.105 461.872 476.99 462.025 477.902 462.183C485.912 463.967 491.333 470.382 496.032 476.725C501.031 485.545 501.898 494.792 499.212 504.5C496.009 514.255 489.955 521.129 481.227 526.486C472.221 530.576 460.639 530.104 451.516 526.72C441.965 522.241 436.131 515.534 432.303 505.74C429.686 496.457 430.391 486.853 434.457 478.127C438.96 470.187 444.759 465.223 453.251 461.719C454.396 461.719 455.54 461.719 456.72 461.719C458.277 441.385 458.277 441.385 451.227 423.338C449.235 421.477 447.207 419.653 445.157 417.855C442.38 414.845 439.728 411.731 437.063 408.621C436.397 407.872 435.732 407.123 435.046 406.352C434.113 405.297 434.113 405.297 433.161 404.22C432.604 403.594 432.046 402.967 431.472 402.322C430.126 400.541 430.126 400.541 428.97 397.078C391.958 397.078 354.946 397.078 316.813 397.078C316.813 410.791 316.813 424.504 316.813 438.633C319.918 438.566 323.023 438.499 326.221 438.43C329.237 438.385 332.252 438.35 335.268 438.316C337.36 438.287 339.451 438.247 341.543 438.197C344.554 438.127 347.563 438.095 350.575 438.069C351.972 438.024 351.972 438.024 353.397 437.979C358.297 437.976 360.158 438.159 364.116 441.318C366.832 444.787 369.261 448.348 371.518 452.124C371.934 452.794 372.349 453.464 372.776 454.155C375.782 459.099 375.782 459.099 375.782 461.719C376.927 461.338 378.071 460.957 379.251 460.564C388.989 459.736 397.393 460.407 405.429 466.246C413.642 473.198 419.014 480.388 419.995 491.343C420.275 502.493 417.947 511.643 410.217 519.97C400.617 528.229 390.257 529.593 378.049 528.914C368.827 527.912 362.767 522.062 356.925 515.366C350.605 506.129 350.323 496.721 351.501 485.959C352.962 481.734 354.931 478.195 357.282 474.416C357.664 473.273 358.045 472.13 358.438 470.953C357.044 468.32 357.044 468.32 355.042 465.687C351.501 460.783 351.501 460.783 351.501 458.256C339.672 458.256 327.844 458.256 315.657 458.256C315.751 463.845 315.845 469.433 315.942 475.192C315.983 478.758 316.022 482.325 316.052 485.891C316.1 491.538 316.157 497.183 316.268 502.829C316.356 507.387 316.404 511.944 316.425 516.503C316.44 518.231 316.469 519.96 316.513 521.688C316.92 538.327 311.102 548.837 299.75 560.781C284.437 575.641 266.278 581.197 245.362 581.101C232.907 580.786 222.831 577.444 211.848 571.548C211.001 571.111 210.154 570.673 209.282 570.223C208.364 569.742 207.446 569.261 206.5 568.766C202.489 567.626 200.424 568.536 196.563 570.006C177.923 576.961 157.819 574.891 139.907 566.76C121.945 557.348 109.831 541.76 103.196 522.716C101.558 516.992 101.505 511.47 101.751 505.582C100.368 505.511 98.9846 505.439 97.5595 505.366C78.525 503.184 60.1581 492.035 48.245 477.196C33.3841 457.215 29.8843 434.481 32.9088 410.095C34.8964 401.423 38.825 393.462 42.7821 385.535C41.7671 385.242 40.7521 384.949 39.7063 384.647C24.1275 378.917 13.2312 365.084 5.78214 350.906C-2.03927 331.767 -2.81808 310.691 5.13626 291.473C9.31694 282.198 14.7366 274.92 21.9696 267.797C22.6433 267.123 23.317 266.449 24.0111 265.754C24.4821 265.286 24.9531 264.817 25.4384 264.334C25.2282 263.718 25.0181 263.102 24.8015 262.467C16.5337 238.002 14.0766 215.777 24.9235 191.397C27.6716 186.058 30.9939 181.33 34.6884 176.607C35.2786 175.814 35.8688 175.021 36.477 174.204C45.154 163.333 57.7795 156.29 70.5321 151.213C70.3473 150.122 70.1625 149.032 69.9721 147.908C67.9773 133.851 68.0792 118.472 72.8446 105.041C73.1666 104.054 73.4885 103.068 73.8202 102.052C80.6535 82.9683 95.6267 69.0398 113.169 59.7348C124.72 54.2962 134.952 52.8071 147.64 52.7369C148.766 52.7304 149.893 52.7239 151.053 52.7172C158.072 52.7875 164.329 53.6521 171.126 55.4062C171.555 53.8997 171.555 53.8997 171.993 52.3627C177.652 37.1615 192.602 24.2547 206.97 17.3144C234.604 6.1645 263.822 7.19052 288.865 24.1455ZM197.72 48.4804C192.541 54.7497 192.541 54.7497 190.782 62.332C191.426 62.6549 192.07 62.9778 192.733 63.3104C206.546 70.5546 214.553 79.6572 220.05 94.2916C223.48 105.364 225.575 120.719 220.962 131.77C219.123 134.843 217.328 135.333 213.907 136.207C210.802 135.986 208.847 135.511 206.224 133.844C203.74 130.271 204.402 126.458 204.585 122.283C204.849 109.499 203.723 97.9512 194.901 88.0151C193.924 87.158 192.946 86.301 191.938 85.4179C190.579 84.2038 190.579 84.2038 189.192 82.9651C183.751 79.0853 177.94 77.1233 171.456 75.6515C169.501 75.1911 167.56 74.6707 165.629 74.1185C149.224 69.5489 133.597 70.9097 118.453 78.9791C113.09 82.4346 108.568 86.7001 104.063 91.1894C103.382 91.856 102.701 92.5226 101.999 93.2094C90.8845 105.015 88.2488 120.685 88.5895 136.252C89.0935 145.594 91.351 155.469 97.7447 162.53C103.741 167.862 108.781 169.759 116.782 169.682C119.513 169.159 122.168 168.483 124.858 167.783C128.153 167.203 130.168 167.934 132.97 169.682C134.813 173.363 134.563 177.219 134.126 181.225C132.296 184.449 130.58 184.713 127.035 185.896C115.519 188.729 102.905 188.419 92.5009 182.379C90.5266 180.901 88.5769 179.384 86.7196 177.762C85.9565 177.762 85.1934 177.762 84.4071 177.762C84.0733 177.071 83.7394 176.381 83.3954 175.67C82.0398 172.921 82.0398 172.921 79.7821 169.682C64.9011 173.772 53.0587 181.79 44.8056 194.932C35.6292 211.157 33.499 226.97 38.2159 245.108C39.3797 248.359 40.9078 251.052 42.7821 253.945C44.0938 253.564 45.4054 253.183 46.7567 252.791C62.5043 249.364 77.3119 250.914 91.0556 259.5C96.3402 263.229 102.275 267.69 105.22 273.568C105.741 281.762 105.741 281.762 104.063 285.111C100.148 287.066 96.6482 287.477 92.5009 286.266C90.1791 284.18 88.3829 281.918 86.4622 279.462C81.282 273.335 73.8521 269.757 65.9071 268.951C52.8694 268.618 43.0319 273.657 33.6541 282.456C22.5003 294.623 18.2137 308.036 18.5009 324.357C20.5828 339.63 27.6884 352.83 39.8554 362.382C46.9995 367.238 54.3715 370.092 62.5874 372.563C65.9071 373.992 65.9071 373.992 67.5241 376.238C68.6961 380.234 68.1877 382.662 67.0634 386.689C65.8726 388.347 64.6118 389.955 63.3056 391.523C54.886 401.672 50.1151 415.789 50.5959 429.042C52.4776 446.95 59.0646 462.483 73.2342 474.139C83.6673 481.906 96.6872 487.655 109.845 487.113C122.62 484.415 140.438 478.61 148.34 467.743C149.854 464.837 151.366 461.938 152.77 458.977C153.782 457.102 153.782 457.102 156.095 455.947C164.399 455.289 164.399 455.289 167.729 457.607C169.437 462.265 168.939 466.207 167.657 470.953C159.817 487.811 143.261 494.987 126.914 501.301C124.624 502.22 122.426 503.262 120.251 504.428C120.888 519.375 126.541 532.042 137.613 542.389C139.851 544.135 142.104 545.667 144.532 547.137C145.242 547.571 145.951 548.006 146.682 548.453C159.809 555.71 173.091 556.724 187.291 552.872C198.639 549.238 209.39 542.881 215.642 532.419C219.363 524.37 220.144 515.234 217.417 506.714C216.545 504.573 215.672 502.432 214.797 500.293C213.907 497.502 213.907 497.502 214.558 493.39C216.22 490.576 216.22 490.576 219.688 488.268C223.401 487.873 225.73 487.753 229.002 489.634C231.77 492.215 232.58 494.365 233.78 497.935C234.154 499.015 234.528 500.095 234.914 501.208C239.326 515.974 237.32 530.024 230.167 543.53C227.79 547.768 225.108 551.479 222.001 555.217C224.19 556.161 226.383 557.098 228.577 558.03C229.798 558.553 231.018 559.075 232.276 559.613C245.115 564.518 258.078 562.583 270.563 557.525C282.239 551.876 292.302 543.242 297.157 530.977C298.174 523.891 298.119 516.877 298.073 509.731C298.084 507.589 298.099 505.448 298.116 503.306C298.152 497.518 298.145 491.731 298.127 485.943C298.116 481.106 298.128 476.269 298.139 471.432C298.165 460.026 298.157 448.62 298.125 437.214C298.093 425.448 298.115 413.683 298.165 401.917C298.207 391.805 298.217 381.693 298.201 371.581C298.192 365.545 298.194 359.51 298.225 353.475C298.253 347.805 298.241 342.138 298.2 336.469C298.191 334.388 298.196 332.308 298.215 330.227C298.24 327.388 298.215 324.553 298.177 321.713C298.205 320.477 298.205 320.477 298.234 319.216C298.145 315.859 297.806 313.47 295.399 311.037C287.354 305.174 279.273 303.555 269.407 304.734C266.643 305.755 264.101 306.986 261.471 308.31C257.331 310.055 254.196 309.887 249.751 309.352C247.438 308.197 247.438 308.197 246.282 305.889C245.822 302.736 245.638 299.783 246.282 296.654C250.86 290.55 260.091 288.154 267.23 286.671C274.598 285.846 281.195 286.542 288.395 287.997C289.242 288.162 290.089 288.327 290.962 288.498C293.028 288.901 295.093 289.314 297.157 289.728C297.318 278.992 297.441 268.256 297.517 257.519C297.553 252.533 297.602 247.548 297.68 242.563C297.756 237.75 297.797 232.938 297.815 228.125C297.828 226.29 297.853 224.455 297.891 222.621C297.941 220.047 297.948 217.477 297.945 214.904C297.96 213.44 297.976 211.976 297.991 210.468C296.822 205.073 294.716 203.933 290.22 200.848C284.11 197.459 276.483 196.683 269.678 198.007C265.214 199.297 261.734 200.568 257.845 203.156C255.604 203.463 255.604 203.463 253.22 203.445C252.433 203.451 251.646 203.457 250.835 203.463C248.595 203.156 248.595 203.156 245.126 200.848C243.506 194.132 243.506 194.132 244.778 190.387C248.583 184.729 257.991 181.741 264.421 180.395C273.421 179.302 281.727 179.578 290.505 181.828C291.752 182.146 292.998 182.463 294.283 182.79C295.231 183.036 296.18 183.281 297.157 183.533C297.415 168.46 297.672 153.388 297.885 138.314C297.897 137.46 297.909 136.606 297.921 135.726C297.969 132.289 298.017 128.853 298.064 125.417C298.191 116.146 298.337 106.877 298.561 97.6074C298.652 93.6903 298.716 89.7731 298.772 85.8554C298.803 84.1451 298.846 82.435 298.903 80.7254C299.356 66.7636 295.768 58.3844 287.112 47.6147C277.384 37.2743 263.037 29.4552 248.703 28.5823C228.759 28.0998 211.759 33.6565 197.72 48.4804ZM372.313 87.7265C369.363 91.743 369.505 95.5562 370.001 100.424C371.673 105.043 373.782 107.877 377.733 110.812C382.806 112.341 386.87 112.203 391.97 110.812C396.123 108.254 398.185 106.01 400.063 101.578C400.954 96.9528 401.079 92.8653 398.591 88.7591C394.357 83.7065 394.357 83.7065 388.302 81.6394C380.778 81.3435 377.426 82.1121 372.313 87.7265ZM453.974 86.5722C450.807 90.4634 450.536 94.2728 450.618 99.1974C451.16 103.223 452.911 105.507 455.563 108.504C460.549 112.092 464.559 112.453 470.459 111.561C475.659 109.971 478.119 105.894 481.001 101.578C481.499 95.4068 481.556 91.5592 477.532 86.5722C469.773 79.0359 462.168 79.6834 453.974 86.5722ZM545.317 188.872C542.909 193.865 542.641 197.713 543.438 203.156C544.988 207.506 547.234 209.42 551.099 211.741C555.808 213.863 559.266 213.773 564.192 212.364C568.803 210.172 571.239 206.518 573.501 202.002C573.938 196.215 573.653 192.762 570.032 188.15C565.027 183.726 565.027 183.726 558.759 182.09C552.754 182.551 549.345 184.427 545.317 188.872ZM546.907 382.072C543.803 385.741 542.282 389.18 542.282 394.012C543.066 398.902 544.321 401.383 547.63 405.158C552.542 408.064 555.074 408.621 560.782 408.621C566.194 406.751 569.395 404.294 572.345 399.387C573.794 394.59 573.849 391.155 572.2 386.401C568.879 381.538 566.101 379.167 560.421 377.455C554.876 377.455 551.27 378.648 546.907 382.072ZM371.157 487.113C369.762 491.291 369.628 494.261 370.001 498.656C373.137 504.47 376.151 508.082 382.503 510.055C388.424 510.287 392.604 508.191 397.028 504.356C400.412 500.328 400.458 497.212 400.384 492.1C399.881 487.896 398.25 485.598 395.438 482.496C386.127 476.433 378.13 478.686 371.157 487.113ZM452.817 485.526C450.417 490.503 450.114 494.382 450.938 499.811C452.951 504.676 455.435 506.838 460.188 509.045C464.671 510.407 466.797 510.301 471.317 508.901C476.049 506.276 478.596 503.459 481.001 498.656C481.438 492.869 481.153 489.416 477.532 484.805C472.527 480.38 472.527 480.38 466.259 478.745C460.254 479.206 456.845 481.082 452.817 485.526Z" fill="white"/>
<path d="M198.875 334.746C203.131 338.035 204.185 340.807 205.162 346.001C207.39 355.818 211.415 362.44 219.687 368.221C226.187 371.715 232.129 372.326 239.343 372.838C243.415 373.214 245.62 373.558 249.027 375.796C251.317 379.225 251.499 381.501 251.633 385.535C250.457 389.27 248.427 390.462 245.125 392.461C231.266 394.522 218.315 391.773 206.607 384.092C195.058 375.39 187.505 364.076 185 349.752C184.456 344.717 184.123 340.858 186.734 336.406C190.685 334.137 194.43 333.568 198.875 334.746Z" fill="white"/>
<path d="M194.686 227.685C200.367 231.969 206.058 237.118 209.283 243.557C209.853 248.583 209.807 250.876 206.898 255.1C203.502 257.408 203.502 257.408 199.455 257.552C194.656 256.012 192.954 254.219 189.627 250.482C182.335 243.467 174.66 238.92 164.189 238.939C158.96 239.598 154.27 240.929 149.52 243.196C145.138 244.929 143.177 245.127 138.752 243.557C135.493 240.56 134.294 238.674 133.477 234.322C134.39 229.459 135.962 228.082 139.908 225.088C157.647 216.437 177.957 216.661 194.686 227.685Z" fill="white"/>
<path d="M119.092 335.251C123.414 336.06 125.329 337.338 128.342 340.517C129.682 344.119 129.466 347.415 129.354 351.195C129.321 360.953 132.639 367.963 139.295 375.065C143.732 378.694 148.633 380.709 153.947 382.78C157.442 384.475 158.846 385.64 160.717 388.998C161.273 393.437 161.35 396.006 159.055 399.892C154.493 402.668 150.767 402.744 145.686 401.695C132.041 396.63 121.021 388.647 114.462 375.394C114.082 374.551 113.702 373.707 113.311 372.838C112.943 372.101 112.574 371.365 112.195 370.606C109.612 364.511 109.414 358.303 109.264 351.772C109.228 350.87 109.193 349.969 109.156 349.04C109.155 344.114 109.419 342.215 112.552 338.195C115.623 335.9 115.623 335.9 119.092 335.251Z" fill="white"/>
</g>
<defs>
<clipPath id="clip0_3748_12456">
<rect width="592" height="591" fill="white"/>
</clipPath>
</defs>
</svg>
