<svg width="24" height="24" viewBox="0 0 24 24" fill="none" xmlns="http://www.w3.org/2000/svg">
<path d="M14.1224 10.4802C13.9349 10.2927 13.6806 10.1874 13.4154 10.1874C13.1503 10.1874 12.896 10.2927 12.7084 10.4802L12.0014 11.1862C11.6242 11.5505 11.119 11.7521 10.5946 11.7475C10.0702 11.743 9.5686 11.5326 9.19779 11.1618C8.82697 10.791 8.61663 10.2894 8.61208 9.76498C8.60752 9.24058 8.80911 8.73538 9.17342 8.35818L14.8034 2.72618C16.1363 2.423 17.5309 2.54777 18.7889 3.08275C20.0468 3.61773 21.1041 4.53567 21.8103 5.70607C22.5166 6.87646 22.8358 8.23972 22.7228 9.60201C22.6097 10.9643 22.07 12.2562 21.1804 13.2942L19.0724 15.4292L14.1224 10.4802ZM3.16242 4.46818C4.1969 3.43308 5.55041 2.77735 7.00389 2.60712C8.45737 2.4369 9.92576 2.76212 11.1714 3.53018L7.75842 6.94418C7.01922 7.6819 6.59786 8.67948 6.58436 9.72374C6.57087 10.768 6.96631 11.7761 7.6862 12.5327C8.40609 13.2893 9.39333 13.7343 10.437 13.7727C11.4806 13.8111 12.4979 13.4398 13.2714 12.7382L13.4154 12.6012L17.6584 16.8432L13.4154 21.0862C13.0404 21.4611 12.5318 21.6717 12.0014 21.6717C11.4711 21.6717 10.9625 21.4611 10.5874 21.0862L3.16142 13.6602C1.94256 12.4412 1.25781 10.788 1.25781 9.06418C1.25781 7.34036 1.94356 5.68715 3.16242 4.46818Z" fill="url(#paint0_linear_3709_58387)"/>
<defs>
<linearGradient id="paint0_linear_3709_58387" x1="12.0014" y1="2.56299" x2="12.0014" y2="21.6717" gradientUnits="userSpaceOnUse">
<stop stop-color="#F63D3D"/>
<stop offset="1" stop-color="#C95757"/>
</linearGradient>
</defs>
</svg>
