<svg width="58" height="58" viewBox="0 0 58 58" fill="none" xmlns="http://www.w3.org/2000/svg">
<path d="M55.5833 28.9999L45.9166 19.3333V26.5833H38.3283C37.2408 22.4266 33.495 19.3333 29 19.3333C24.505 19.3333 20.7591 22.4266 19.6716 26.5833H12.0833L4.83331 19.3333V38.6666L12.0833 31.4166H19.6716C20.7591 35.5733 24.505 38.6666 29 38.6666C33.495 38.6666 37.2408 35.5733 38.3283 31.4166H45.9166V38.6666L55.5833 28.9999ZM29 33.8333C26.3416 33.8333 24.1666 31.6583 24.1666 28.9999C24.1666 26.3416 26.3416 24.1666 29 24.1666C31.6583 24.1666 33.8333 26.3416 33.8333 28.9999C33.8333 31.6583 31.6583 33.8333 29 33.8333Z" fill="url(#paint0_linear_149_27)"/>
<defs>
<linearGradient id="paint0_linear_149_27" x1="30.2083" y1="19.3333" x2="30.2083" y2="38.6666" gradientUnits="userSpaceOnUse">
<stop stop-color="#F63D3D"/>
<stop offset="1" stop-color="#C95757"/>
</linearGradient>
</defs>
</svg>
