<svg width="53" height="7" viewBox="0 0 53 7" fill="none" xmlns="http://www.w3.org/2000/svg">
<path d="M22.5457 4.41686H25.9961L24.1713 1.48116L20.8224 6.78902H19.2982L23.3718 0.413288C23.4612 0.284352 23.5808 0.179274 23.7201 0.107238C23.8595 0.0352025 24.0144 -0.00159808 24.1713 5.32175e-05C24.4881 5.32175e-05 24.7833 0.150358 24.9547 0.402522L29.044 6.78902H27.5198L26.801 5.60273H23.3072L22.5457 4.41686ZM38.3774 5.60273V0.0646478H37.0843V6.14515C37.0843 6.31161 37.1489 6.47268 37.2723 6.59607C37.3956 6.71946 37.5621 6.78902 37.7447 6.78902H43.6426L44.4049 5.60273H38.3774ZM16.9799 4.61022C18.2357 4.61022 19.2556 3.59619 19.2556 2.34033C19.2556 1.08448 18.2361 0.0646478 16.9799 0.0646478H11.3217V6.78944H12.6148V1.25052H16.8942C17.4954 1.25052 17.9782 1.73912 17.9782 2.33992C17.9782 2.94073 17.495 3.42932 16.8942 3.42932L13.2479 3.42394L17.1086 6.78902H18.9877L16.3898 4.60981L16.9799 4.61022ZM3.36302 6.78902C1.50677 6.78902 0 5.28639 0 3.42932C0 1.57225 1.50636 0.064234 3.36302 0.064234H7.27135C9.12842 0.064234 10.634 1.57266 10.634 3.42932C10.634 5.28598 9.12842 6.78902 7.27135 6.78902H3.36302ZM7.1844 5.60273C7.47011 5.60317 7.75311 5.54728 8.01721 5.43825C8.2813 5.32923 8.52132 5.16921 8.72352 4.96735C8.92573 4.76549 9.08615 4.52575 9.19563 4.26185C9.30511 3.99794 9.36148 3.71503 9.36154 3.42932C9.3617 3.14327 9.30552 2.85999 9.19619 2.59566C9.08686 2.33132 8.92653 2.09112 8.72436 1.88875C8.52219 1.68639 8.28213 1.52583 8.0179 1.41625C7.75367 1.30667 7.47045 1.25022 7.1844 1.25011H3.44914C2.87158 1.25055 2.31784 1.48038 1.90972 1.88905C1.50159 2.29772 1.2725 2.85176 1.27283 3.42932C1.27288 3.71497 1.32923 3.9978 1.43866 4.26166C1.54808 4.52551 1.70844 4.76521 1.91055 4.96706C2.11267 5.16891 2.35258 5.32894 2.61659 5.43801C2.88059 5.54709 3.1635 5.60306 3.44914 5.60273H7.1844ZM31.7441 6.78902C29.8874 6.78902 28.3794 5.28639 28.3794 3.42932C28.3794 1.57225 29.8874 0.064234 31.7441 0.064234H36.3866L35.6293 1.25011H31.8302C31.2523 1.25044 30.6982 1.48013 30.2895 1.88872C29.8808 2.29732 29.651 2.85142 29.6506 3.42932C29.6506 4.63134 30.6278 5.60273 31.8302 5.60273H36.4938L35.7319 6.78902H31.7441ZM47.5601 5.60273C47.0863 5.60295 46.6254 5.44838 46.2476 5.16256C45.8698 4.87674 45.5956 4.47531 45.467 4.01936H50.9947L51.7566 2.83348H45.467C45.5966 2.37809 45.871 1.97728 46.2486 1.69162C46.6262 1.40596 47.0866 1.25098 47.5601 1.25011H51.3541L52.1218 0.064234H47.4739C45.6173 0.064234 44.1092 1.57266 44.1092 3.42932C44.1092 5.28598 45.6173 6.78902 47.4739 6.78902H51.4618L52.224 5.60273H47.5601Z" fill="#EA1B22"/>
</svg>
