<svg width="58" height="46" viewBox="0 0 58 46" fill="none" xmlns="http://www.w3.org/2000/svg">
<path d="M22.5556 22.0692H20.1676C20.2302 21.6056 20.4685 20.8006 21.4038 20.8006C22.0155 20.8006 22.4885 21.1438 22.5556 22.0692ZM34.9404 20.8222C34.8978 20.8222 33.6617 20.6632 33.6617 22.6191C33.6617 24.575 34.8969 24.4159 34.9404 24.4159C36.1185 24.4159 36.2191 23.1995 36.2191 22.6191C36.2191 20.6641 34.9812 20.8222 34.9404 20.8222ZM12.8986 22.9569C12.7993 23.0341 12.7203 23.134 12.6684 23.248C12.6164 23.3621 12.5931 23.4869 12.6004 23.6118C12.6004 24.0413 12.7889 24.1554 12.8986 24.2452C13.3245 24.5777 14.2643 24.4357 14.7954 24.3306V22.8086C14.3133 22.7125 13.2792 22.6325 12.8986 22.9569ZM57.9999 20.8438C57.9999 28.7123 50.7499 34.7147 43.0142 33.1011C41.3494 36.066 36.6043 39.4576 31.0336 36.8413C27.3034 45.4708 14.9123 45.1231 11.657 36.3768C0.80741 38.5232 -4.54853 23.9452 4.83569 18.4728C1.68647 11.3365 6.88744 2.875 15.195 2.875C16.9227 2.87606 18.6269 3.27125 20.1758 4.02998C21.7246 4.7887 23.0766 5.8906 24.127 7.25039C26.003 5.32773 28.6039 4.12293 31.4813 4.12293C35.3183 4.12293 38.6406 6.23605 40.435 9.38508C48.8468 5.73023 57.9999 11.9214 57.9999 20.8438ZM10.9157 23.7008C10.9157 22.6442 9.85632 22.3379 9.29625 22.1582C8.81866 21.9686 8.08097 21.8428 8.08097 21.355C8.08097 20.505 9.6216 20.7566 10.362 21.1645C10.362 21.1645 10.468 21.2283 10.5106 21.1223C10.5324 21.0594 10.7245 20.5311 10.7453 20.4673C10.7535 20.4422 10.7514 20.4149 10.7395 20.3912C10.7277 20.3676 10.707 20.3494 10.6819 20.3406C9.5645 19.6551 6.99347 19.5761 6.99347 21.4816C6.99347 22.6011 8.03475 22.8688 8.61385 23.0243C9.0416 23.1662 9.80738 23.2938 9.80738 23.8059C9.80738 24.1653 9.48747 24.4402 8.97635 24.4402C8.35534 24.4392 7.75132 24.239 7.25447 23.8697C7.21188 23.849 7.12578 23.8059 7.10494 23.9335L6.88744 24.6046C6.84485 24.6891 6.90829 24.7106 6.90829 24.7313C7.06688 24.8571 7.84172 25.3234 8.97635 25.3234C10.1699 25.3234 10.9157 24.6891 10.9157 23.6963V23.7008ZM13.8157 19.8752C12.8977 19.8752 12.1247 20.16 11.8763 20.3406C11.8664 20.3474 11.858 20.3561 11.8515 20.3662C11.845 20.3763 11.8406 20.3876 11.8386 20.3994C11.8366 20.4112 11.8369 20.4233 11.8397 20.435C11.8424 20.4466 11.8475 20.4576 11.8546 20.4673L12.0893 21.1016C12.0957 21.1236 12.1103 21.1424 12.1302 21.1541C12.1501 21.1658 12.1737 21.1695 12.1963 21.1645C12.2552 21.1645 12.8125 20.8051 13.7305 20.8051C14.093 20.8051 14.3703 20.8689 14.5625 21.0171C14.8887 21.2687 14.8398 21.762 14.8398 21.9677C14.4057 21.9407 13.1079 21.6586 12.1745 22.3055C11.9617 22.4502 11.7892 22.6458 11.6729 22.8741C11.5566 23.1025 11.5004 23.3562 11.5093 23.6118C11.5093 24.1419 11.6462 24.5462 12.1065 24.9011C13.2158 25.6342 15.3944 25.0808 15.5593 25.0278C15.7025 24.999 15.8793 24.9685 15.8793 24.8589V21.815C15.8829 21.4008 15.9083 19.8707 13.8148 19.8707L13.8157 19.8752ZM18.0343 17.9903C18.0352 17.9762 18.0331 17.962 18.0281 17.9487C18.023 17.9354 18.0152 17.9233 18.0051 17.9133C17.9949 17.9033 17.9828 17.8955 17.9694 17.8905C17.956 17.8855 17.9417 17.8834 17.9274 17.8843H17.0374C17.0232 17.8835 17.009 17.8857 16.9957 17.8908C16.9824 17.8958 16.9704 17.9036 16.9604 17.9136C16.9503 17.9237 16.9426 17.9357 16.9376 17.9489C16.9326 17.9621 16.9305 17.9762 16.9314 17.9903V25.088C16.9305 25.102 16.9326 25.1162 16.9376 25.1294C16.9426 25.1426 16.9503 25.1546 16.9604 25.1646C16.9704 25.1747 16.9824 25.1824 16.9957 25.1875C17.009 25.1926 17.0232 25.1948 17.0374 25.194H17.9328C17.9471 25.1949 17.9614 25.1928 17.9748 25.1878C17.9882 25.1828 18.0004 25.175 18.0105 25.165C18.0206 25.155 18.0285 25.1429 18.0335 25.1296C18.0386 25.1163 18.0407 25.1021 18.0398 25.088L18.0343 17.9903ZM23.0867 20.5895C22.8963 20.382 22.4713 19.913 21.4871 19.913C21.169 19.913 20.2039 19.9336 19.6112 20.7162C19.0357 21.4017 19.0149 22.3432 19.0149 22.6397C19.0149 22.92 19.0285 23.9209 19.6547 24.5417C19.8939 24.8032 20.4758 25.2811 21.7218 25.2811C22.7024 25.2811 23.2144 25.07 23.4057 24.9433C23.4483 24.9218 23.47 24.8795 23.4274 24.7744L23.2144 24.1608C23.2035 24.1375 23.1849 24.1185 23.1617 24.1071C23.1385 24.0957 23.112 24.0924 23.0867 24.0979C22.8519 24.1823 22.5112 24.3513 21.701 24.3513C20.1223 24.3513 20.174 23.027 20.1658 22.8509H23.5343C23.5589 22.8504 23.5827 22.8418 23.6019 22.8265C23.621 22.8112 23.6346 22.7901 23.6404 22.7664C23.6141 22.7664 23.828 21.4457 23.0885 20.5895H23.0867ZM26.4117 25.3234C27.6052 25.3234 28.352 24.6891 28.352 23.6963C28.352 22.6397 27.2917 22.3334 26.7316 22.1537C26.3564 22.0045 25.5163 21.85 25.5163 21.3505C25.5163 21.0127 25.8145 20.78 26.2839 20.78C26.811 20.7904 27.3288 20.9204 27.7973 21.16C27.7973 21.16 27.9043 21.2238 27.9469 21.1178C27.9677 21.0549 28.1598 20.5266 28.1807 20.4628C28.1888 20.4377 28.1867 20.4104 28.1749 20.3867C28.163 20.3631 28.1424 20.3449 28.1173 20.3361C27.4004 19.8959 26.6002 19.8923 26.2839 19.8923C25.1964 19.8923 24.4297 20.5473 24.4297 21.4771C24.4297 22.5966 25.4701 22.8643 26.0492 23.0198C26.6029 23.1995 27.2427 23.3127 27.2427 23.8014C27.2427 24.1608 26.9237 24.4357 26.4117 24.4357C25.7907 24.4344 25.1868 24.2343 24.6898 23.8652C24.6769 23.8542 24.6612 23.8471 24.6445 23.8446C24.6277 23.842 24.6106 23.8442 24.595 23.8509C24.5794 23.8575 24.566 23.8683 24.5563 23.8822C24.5467 23.896 24.5411 23.9122 24.5403 23.929L24.3273 24.6046C24.2847 24.6891 24.3482 24.7106 24.3482 24.7313C24.504 24.8571 25.2843 25.3234 26.4135 25.3234H26.4117ZM32.3612 20.125C32.3612 20.0612 32.3395 20.019 32.2543 20.019H31.1885C31.1885 20.0064 31.2737 19.2158 31.5936 18.8986C31.9706 18.5258 32.6594 18.7513 32.6811 18.7513C32.7872 18.7935 32.8089 18.7513 32.8298 18.7091L33.0862 18.011C33.1497 17.9265 33.0862 17.9059 33.0645 17.8843C32.6032 17.7046 31.4921 17.6264 30.8478 18.2652C30.3512 18.7576 30.2134 19.5159 30.1228 20.019H29.3552C29.3277 20.0213 29.3019 20.0332 29.2825 20.0526C29.263 20.072 29.2512 20.0977 29.2492 20.125L29.1205 20.8222C29.1205 20.8851 29.1422 20.9273 29.2274 20.9273H29.9733C29.202 25.2308 29.1803 25.4384 29.0353 25.9154C28.9374 26.2407 28.7371 26.5354 28.5024 26.6126C28.4943 26.6126 28.1508 26.7636 27.6288 26.5911C27.6288 26.5911 27.5436 26.5488 27.501 26.6548C27.4793 26.7186 27.2663 27.2676 27.2445 27.3314C27.2228 27.3952 27.2445 27.458 27.2871 27.458C27.7502 27.6377 28.4653 27.6171 28.9075 27.458C29.4766 27.2532 29.7884 26.7492 29.9524 26.2955C30.2016 25.6028 30.2071 25.4159 31.0182 20.9282H32.1265C32.1541 20.926 32.18 20.9141 32.1996 20.8946C32.2192 20.8752 32.2312 20.8496 32.2334 20.8222L32.3612 20.125ZM37.1997 21.5625C37.1489 21.4116 36.7375 19.9354 34.9187 19.9354C33.5366 19.9354 32.8343 20.8339 32.6385 21.5625C32.5479 21.832 32.3503 22.8203 32.6385 23.6756C32.6467 23.7026 33.0382 25.3036 34.9187 25.3036C36.2735 25.3036 36.994 24.4402 37.1997 23.6756C37.4906 22.8122 37.2912 21.832 37.1997 21.5625ZM41.3141 20.0621C40.8609 19.9139 39.8079 19.8914 39.3103 20.5482V20.1466C39.3111 20.1325 39.3089 20.1184 39.3038 20.1052C39.2987 20.092 39.2908 20.0801 39.2807 20.0701C39.2706 20.0602 39.2585 20.0525 39.2452 20.0476C39.2319 20.0426 39.2176 20.0405 39.2034 20.0414H38.3515C38.3373 20.0405 38.3231 20.0426 38.3098 20.0476C38.2964 20.0525 38.2843 20.0602 38.2742 20.0701C38.2641 20.0801 38.2562 20.092 38.2511 20.1052C38.246 20.1184 38.2438 20.1325 38.2446 20.1466V25.1131C38.2438 25.1273 38.246 25.1414 38.2511 25.1546C38.2562 25.1678 38.2641 25.1798 38.2742 25.1898C38.2843 25.1998 38.2964 25.2076 38.3097 25.2127C38.323 25.2177 38.3373 25.2199 38.3515 25.2191H39.2252C39.2394 25.2199 39.2537 25.2177 39.267 25.2127C39.2803 25.2076 39.2924 25.1998 39.3025 25.1898C39.3126 25.1798 39.3205 25.1678 39.3256 25.1546C39.3307 25.1414 39.3329 25.1273 39.3321 25.1131V22.6182C39.3321 22.3567 39.3366 21.5966 39.7363 21.266C40.1803 20.8258 40.8238 20.9641 40.9516 20.9911C40.9788 20.9906 41.0053 20.9824 41.0279 20.9674C41.0506 20.9525 41.0684 20.9314 41.0793 20.9066C41.1857 20.6726 41.2783 20.4326 41.3567 20.1879C41.3656 20.1652 41.3663 20.14 41.3585 20.1169C41.3507 20.0937 41.335 20.074 41.3141 20.0612V20.0621ZM45.5562 24.9227L45.3641 24.2677C45.3215 24.1617 45.2363 24.2039 45.2363 24.2039C44.853 24.3674 44.3165 24.3737 44.2132 24.3737C43.7927 24.3737 42.6571 24.2722 42.6571 22.5984C42.6571 22.0387 42.8248 20.8231 44.1497 20.8231C44.5036 20.8142 44.8565 20.8643 45.1937 20.9713C45.1937 20.9713 45.2789 21.0136 45.3007 20.9075C45.3858 20.6748 45.4493 20.5059 45.5354 20.231C45.5562 20.1466 45.4928 20.1259 45.471 20.1259C44.4207 19.7782 43.4465 19.8986 42.9553 20.1259C42.8112 20.1924 41.4844 20.709 41.4844 22.5984C41.4844 22.8589 41.4319 25.3036 44.1071 25.3036C44.5875 25.3026 45.0638 25.2165 45.5136 25.0493C45.5331 25.035 45.5477 25.0151 45.5553 24.9922C45.5629 24.9694 45.5632 24.9448 45.5562 24.9218V24.9227ZM50.4382 21.372C50.3657 21.1025 49.9515 19.9139 48.4127 19.9139C46.9627 19.9139 46.2812 20.8222 46.0891 21.5841C45.9846 21.9265 45.9341 22.2829 45.9396 22.6406C45.9396 24.9649 47.6469 25.282 48.6474 25.282C49.628 25.282 50.1391 25.0709 50.3313 24.9442C50.3738 24.9227 50.3956 24.8804 50.353 24.7753L50.1391 24.1617C50.1282 24.1384 50.1096 24.1194 50.0864 24.108C50.0631 24.0966 50.0367 24.0933 50.0113 24.0988C49.7766 24.1832 49.4359 24.3521 48.6257 24.3521C47.047 24.3521 47.0987 23.0279 47.0914 22.8518H50.459C50.4837 22.8512 50.5075 22.8426 50.5268 22.8273C50.5461 22.8121 50.5599 22.791 50.566 22.7673C50.5442 22.7664 50.6512 22.1321 50.4382 21.3711V21.372ZM48.3275 20.8015C47.3914 20.8015 47.1494 21.6101 47.0914 22.0701H49.4812C49.4014 20.9992 48.7906 20.8006 48.3275 20.8006V20.8015Z" fill="url(#paint0_linear_149_15)"/>
<defs>
<linearGradient id="paint0_linear_149_15" x1="29.0001" y1="2.875" x2="29.0001" y2="43.1286" gradientUnits="userSpaceOnUse">
<stop stop-color="#F63E3E"/>
<stop offset="1" stop-color="#C85858"/>
</linearGradient>
</defs>
</svg>
