<svg width="58" height="58" viewBox="0 0 58 58" fill="none" xmlns="http://www.w3.org/2000/svg">
<path d="M16.3125 38.0625H5.4375C3.43831 38.0625 1.8125 36.4367 1.8125 34.4375V23.5625C1.8125 21.5633 3.43831 19.9375 5.4375 19.9375H16.3125C18.3117 19.9375 19.9375 21.5633 19.9375 23.5625V34.4375C19.9375 36.4367 18.3117 38.0625 16.3125 38.0625ZM5.4375 23.5625V34.4375H16.3125V23.5625H5.4375ZM21.1936 53.1516C15.5897 51.3322 10.79 47.626 7.6125 42.6644L10.6666 40.7106C13.389 44.9635 17.502 48.1406 22.3046 49.7006L21.1936 53.1516Z" fill="url(#paint0_linear_149_19)"/>
<path d="M34.4375 50.75C35.4385 50.75 36.25 49.9385 36.25 48.9375C36.25 47.9365 35.4385 47.125 34.4375 47.125C33.4365 47.125 32.625 47.9365 32.625 48.9375C32.625 49.9385 33.4365 50.75 34.4375 50.75Z" fill="url(#paint1_linear_149_19)"/>
<path d="M52.5625 56.1875H29C27.0008 56.1875 25.375 54.5617 25.375 52.5625V45.3125C25.375 43.3134 27.0008 41.6875 29 41.6875H52.5625C54.5617 41.6875 56.1875 43.3134 56.1875 45.3125V52.5625C56.1875 54.5617 54.5617 56.1875 52.5625 56.1875ZM29 45.3125V52.5625H52.5625V45.3125H29ZM48.7381 38.0625H52.6966C53.8007 35.1684 54.3694 32.0976 54.375 29C54.375 27.782 54.259 26.5749 54.085 25.375H50.4129C50.6123 26.5713 50.75 27.7784 50.75 29C50.75 32.181 50.0486 35.2169 48.7381 38.0625ZM46.2188 21.75H34.4375C33.9568 21.75 33.4958 21.5591 33.1559 21.2192C32.816 20.8793 32.625 20.4182 32.625 19.9375V7.25004C32.625 6.76933 32.816 6.30832 33.1559 5.96841C33.4958 5.6285 33.9568 5.43754 34.4375 5.43754H56.1875C56.5276 5.4376 56.8608 5.53333 57.149 5.7138C57.4372 5.89426 57.6689 6.15217 57.8175 6.45806C57.9661 6.76395 58.0256 7.10547 57.9893 7.44359C57.953 7.78172 57.8223 8.10281 57.6121 8.37016L47.6434 21.0577C47.4738 21.2734 47.2575 21.4478 47.0107 21.5677C46.7639 21.6876 46.4931 21.75 46.2188 21.75ZM36.25 18.125H45.3379L52.4592 9.06254H36.25V18.125ZM10.6684 17.2913L7.61432 15.3338C9.90424 11.7388 13.0652 8.78062 16.8039 6.7337C20.5425 4.68677 24.7377 3.61747 29 3.62504V7.25004C25.3457 7.24297 21.749 8.15981 18.5441 9.91534C15.3391 11.6709 12.6299 14.2081 10.6684 17.2913Z" fill="url(#paint2_linear_149_19)"/>
<defs>
<linearGradient id="paint0_linear_149_19" x1="12.0586" y1="19.9375" x2="12.0586" y2="53.1516" gradientUnits="userSpaceOnUse">
<stop stop-color="#F43F3F"/>
<stop offset="1" stop-color="#CA5757"/>
</linearGradient>
<linearGradient id="paint1_linear_149_19" x1="34.4375" y1="47.125" x2="34.4375" y2="50.75" gradientUnits="userSpaceOnUse">
<stop stop-color="#F43F3F"/>
<stop offset="1" stop-color="#CA5757"/>
</linearGradient>
<linearGradient id="paint2_linear_149_19" x1="32.807" y1="3.625" x2="32.807" y2="56.1875" gradientUnits="userSpaceOnUse">
<stop stop-color="#F43F3F"/>
<stop offset="1" stop-color="#CA5757"/>
</linearGradient>
</defs>
</svg>
