<svg width="16" height="16" viewBox="0 0 16 16" fill="none" xmlns="http://www.w3.org/2000/svg">
<path d="M16 10.75C16 12.2687 15.1567 13.5 13.5 13.5H2.5C0.84325 13.5 0 12.2687 0 10.75V5.25C0 3.73125 0.84325 2.5 2.5 2.5H13.5C15.1567 2.5 16 3.73125 16 5.25V10.75Z" fill="#128807"/>
<path d="M14.2853 8.19762L8.03779 12.5876L1.79004 8.19762L8.03779 3.80762L14.2853 8.19762Z" fill="#F9CB38"/>
<path fill-rule="evenodd" clip-rule="evenodd" d="M10.5029 8.96224C10.2184 9.92899 9.32814 10.665 8.32014 10.765C6.97339 10.8997 5.79514 10.0437 5.50864 8.72049C5.42384 8.33163 5.43465 7.928 5.54014 7.54424C5.57939 7.50174 5.63364 7.49149 5.68764 7.48399C6.08151 7.42894 6.47973 7.41161 6.87689 7.43224C7.30064 7.45624 7.72089 7.51499 8.12939 7.63049C8.54864 7.74924 8.95464 7.90424 9.33789 8.11024C9.62638 8.26336 9.90188 8.43978 10.1616 8.63774C10.2496 8.70599 10.3394 8.77299 10.4239 8.84574C10.4616 8.87824 10.4914 8.91324 10.5029 8.96224Z" fill="#002776"/>
<path fill-rule="evenodd" clip-rule="evenodd" d="M5.68164 7.15321C6.00439 6.43196 6.54864 5.95171 7.30089 5.72621C8.81589 5.27196 10.3701 6.27321 10.5954 7.83471C10.6304 8.07596 10.6319 8.31796 10.5949 8.55971C10.5566 8.57396 10.5281 8.55371 10.5019 8.53196C10.2273 8.3076 9.93437 8.10673 9.62614 7.93146C9.3888 7.79676 9.14218 7.67913 8.88814 7.57946C8.84314 7.56171 8.78664 7.55246 8.77114 7.49221C8.78739 7.46321 8.80789 7.43796 8.83239 7.41446C8.84114 7.40546 8.85389 7.39671 8.84214 7.38171C8.83814 7.37696 8.82989 7.37696 8.82289 7.37771C8.80414 7.37971 8.80664 7.39271 8.80739 7.40646C8.80889 7.45121 8.78289 7.47996 8.74864 7.50296C8.68789 7.51671 8.62964 7.49846 8.58039 7.47221C8.43939 7.39821 8.28339 7.37296 8.13414 7.33171C7.90139 7.26846 7.66239 7.23271 7.42389 7.19546C7.23354 7.16512 7.04193 7.14327 6.84964 7.12996C6.67464 7.11771 6.49639 7.11946 6.32014 7.13146C6.12789 7.14496 5.93514 7.15846 5.74389 7.18146C5.73189 7.18331 5.71962 7.18162 5.70856 7.1766C5.69751 7.17158 5.68815 7.16346 5.68164 7.15321Z" fill="#002776"/>
<path fill-rule="evenodd" clip-rule="evenodd" d="M8.77304 7.47684C8.77204 7.50734 8.79929 7.50334 8.81579 7.50984C9.4614 7.76095 10.0618 8.1156 10.5933 8.55984C10.578 8.69702 10.5477 8.83208 10.5028 8.96259C10.19 8.70309 9.86979 8.45584 9.51554 8.25384C8.39579 7.61609 7.19679 7.36334 5.91504 7.49884C5.79004 7.51159 5.66504 7.52859 5.54004 7.54384C5.57229 7.40859 5.61329 7.27584 5.68054 7.15284C6.61629 7.02659 7.53579 7.09834 8.43804 7.37759C8.55004 7.41234 8.65679 7.46834 8.77629 7.47884L8.77304 7.47609" fill="#FEFEFE"/>
<path fill-rule="evenodd" clip-rule="evenodd" d="M9.93835 9.08765C9.8631 9.07965 9.94485 9.1719 9.86885 9.1699C9.8026 9.1689 9.7991 9.1159 9.7666 9.0864C9.7916 9.0604 9.83585 9.05515 9.84985 9.01465C9.85935 9.0574 9.8996 9.0664 9.93835 9.08765Z" fill="#D9DFEA"/>
<path fill-rule="evenodd" clip-rule="evenodd" d="M7.09925 9.55013C7.0285 9.55838 7.08775 9.63538 7.0285 9.63663C6.96875 9.63788 6.938 9.59363 6.926 9.54788C6.92175 9.53488 6.97925 9.50588 7.0075 9.48438C7.011 9.52962 7.058 9.52763 7.09925 9.55013Z" fill="#E9ECF3"/>
<path fill-rule="evenodd" clip-rule="evenodd" d="M8.03573 9.41137C7.93748 9.47487 8.01673 9.33137 7.95898 9.34537C7.97773 9.31537 8.03073 9.32237 8.03423 9.27637C8.05923 9.30237 8.08048 9.33237 8.12023 9.33787C8.06348 9.33012 8.12523 9.45612 8.03573 9.41137Z" fill="#EDEFF5"/>
<path fill-rule="evenodd" clip-rule="evenodd" d="M6.00531 7.72689C5.98181 7.77164 5.96406 7.82164 5.89281 7.79164C5.85631 7.77639 5.89531 7.72639 5.85156 7.72164L5.93256 7.65039L5.95006 7.68514C5.95656 7.71489 6.01581 7.67539 6.00531 7.72689Z" fill="#F0F2F6"/>
<path fill-rule="evenodd" clip-rule="evenodd" d="M6.23246 8.81302C6.19521 8.82477 6.22196 8.92277 6.14196 8.88002C6.13396 8.87602 6.09896 8.89527 6.10546 8.88402C6.12646 8.84302 6.07946 8.82302 6.08671 8.79027C6.13046 8.80927 6.12796 8.72927 6.17271 8.75077C6.17596 8.75327 6.17596 8.76327 6.17821 8.76977C6.18296 8.80077 6.24346 8.76202 6.23246 8.81302Z" fill="#ECEFF4"/>
<path fill-rule="evenodd" clip-rule="evenodd" d="M5.83889 9.10279C5.76214 9.12954 5.81939 9.03679 5.77539 9.03754C5.79589 9.02029 5.81889 8.98804 5.83939 8.98929C5.86389 8.99054 5.88639 9.02079 5.90889 9.03804C5.87539 9.04929 5.91064 9.14004 5.83889 9.10279Z" fill="#D9DFEA"/>
<path fill-rule="evenodd" clip-rule="evenodd" d="M8.80584 9.98764C8.72459 10.0246 8.80359 9.91539 8.74934 9.92964C8.74384 9.88789 8.81159 9.91314 8.80309 9.86914L8.87634 9.92789C8.84659 9.94139 8.87634 10.0264 8.80584 9.98764Z" fill="#D8DEEA"/>
<path fill-rule="evenodd" clip-rule="evenodd" d="M9.32495 9.92663C9.2577 9.95463 9.29895 9.86413 9.2627 9.85513C9.2872 9.83938 9.31295 9.82263 9.33695 9.80638C9.33895 9.84338 9.3897 9.82988 9.3952 9.86263C9.35745 9.86488 9.3967 9.94638 9.32495 9.92663ZM9.79245 9.59013C9.71595 9.62888 9.77245 9.52713 9.7287 9.53138C9.73745 9.49888 9.7877 9.51113 9.7907 9.47363L9.86245 9.52738C9.8187 9.52613 9.87245 9.63338 9.79245 9.59013Z" fill="#DCE1EC"/>
<path fill-rule="evenodd" clip-rule="evenodd" d="M6.69659 9.12363C6.61659 9.16888 6.66884 9.06763 6.63184 9.06563C6.63559 9.02838 6.69209 9.04438 6.69459 9.00488C6.70209 9.04138 6.75059 9.03088 6.76109 9.06363C6.71334 9.05663 6.78134 9.17138 6.69659 9.12363Z" fill="#D4DAE7"/>
<path fill-rule="evenodd" clip-rule="evenodd" d="M7.02029 8.36444C6.97504 8.36144 7.03304 8.29019 6.97754 8.29469C6.98704 8.25469 7.02979 8.26294 7.05329 8.24219C7.06529 8.26744 7.09929 8.27319 7.10104 8.30944C7.10504 8.37569 7.04629 8.34144 7.02029 8.36444Z" fill="#F2F4F7"/>
<path fill-rule="evenodd" clip-rule="evenodd" d="M8.33819 8.89182C8.26894 8.93157 8.30544 8.84282 8.27344 8.83307L8.33819 8.77832C8.33969 8.81532 8.41044 8.80707 8.39044 8.83557C8.37844 8.85257 8.41719 8.93032 8.33819 8.89182Z" fill="#E6E9F1"/>
<path fill-rule="evenodd" clip-rule="evenodd" d="M8.02824 8.66953C7.94924 8.67753 8.03074 8.60578 7.97949 8.60753C7.99949 8.58878 8.01874 8.55678 8.04124 8.55478C8.06074 8.55278 8.08324 8.58453 8.10449 8.60203C8.07674 8.62878 8.08099 8.69778 8.02824 8.66953Z" fill="#EAEDF3"/>
<path fill-rule="evenodd" clip-rule="evenodd" d="M9.94577 9.25293C9.96202 9.29593 9.99402 9.30168 10.019 9.31693C9.99352 9.34568 9.98352 9.38968 9.93052 9.38968C9.87627 9.39018 9.91302 9.34893 9.90077 9.32968C9.87052 9.28168 9.98227 9.32218 9.94577 9.25293Z" fill="#E4E8F0"/>
<path fill-rule="evenodd" clip-rule="evenodd" d="M9.37945 10.1242C9.36045 10.1525 9.37345 10.1795 9.32295 10.1805C9.2652 10.1815 9.2837 10.1392 9.2812 10.1262C9.27645 10.1047 9.30945 10.0842 9.32845 10.0885C9.34495 10.0915 9.37695 10.1007 9.37945 10.1242Z" fill="#CED5E4"/>
<path fill-rule="evenodd" clip-rule="evenodd" d="M6.67862 9.32255C6.63737 9.3273 6.67162 9.3813 6.61937 9.37955C6.57162 9.37805 6.57862 9.3458 6.57337 9.3263C6.56512 9.29905 6.60537 9.2998 6.61437 9.2793C6.63337 9.29255 6.65262 9.3058 6.67862 9.32255Z" fill="#DAE0EB"/>
<path fill-rule="evenodd" clip-rule="evenodd" d="M9.26758 9.60831C9.28524 9.59531 9.30333 9.58265 9.32183 9.57031C9.32333 9.59806 9.38308 9.58206 9.36308 9.61756C9.35483 9.63181 9.37508 9.67081 9.32333 9.66731C9.27683 9.66406 9.28783 9.63156 9.26758 9.60831Z" fill="#D8DEE9"/>
<path fill-rule="evenodd" clip-rule="evenodd" d="M9.0779 9.69448C9.0689 9.74373 9.0409 9.75173 9.01015 9.75748C8.9579 9.76623 8.99715 9.72698 8.98865 9.71198C8.96665 9.67448 9.02215 9.68173 9.02865 9.65723C9.04315 9.67623 9.0764 9.67573 9.0779 9.69448Z" fill="#CBD2E3"/>
<path fill-rule="evenodd" clip-rule="evenodd" d="M8.78526 8.07335C8.76776 8.0816 8.79101 8.12335 8.75351 8.11135C8.72501 8.1016 8.69001 8.0881 8.69251 8.0531C8.69351 8.0396 8.72751 8.02835 8.74651 8.0166C8.74976 8.04185 8.80376 8.0336 8.78526 8.07335Z" fill="#D1D8E6"/>
<path fill-rule="evenodd" clip-rule="evenodd" d="M10.2001 9.16967C10.1531 9.18817 10.1743 9.14942 10.1661 9.13817C10.1346 9.09542 10.1968 9.10167 10.2001 9.07617C10.2193 9.08892 10.2568 9.10342 10.2553 9.11442C10.2543 9.12871 10.2481 9.14214 10.238 9.15227C10.2278 9.16241 10.2144 9.16858 10.2001 9.16967Z" fill="#DADFEA"/>
<path fill-rule="evenodd" clip-rule="evenodd" d="M7.78304 8.78809C7.78304 8.81709 7.84154 8.80559 7.82179 8.84184C7.81379 8.85659 7.83079 8.89609 7.79029 8.88784C7.75954 8.88159 7.72854 8.86359 7.72754 8.83309C7.72754 8.81884 7.76304 8.80359 7.78304 8.78809Z" fill="#CAD2E2"/>
<path fill-rule="evenodd" clip-rule="evenodd" d="M8.58252 9.69227C8.55952 9.68152 8.55852 9.65127 8.56002 9.63677C8.56252 9.61752 8.58827 9.59152 8.61027 9.60202C8.62377 9.60852 8.66202 9.60477 8.65277 9.63977C8.64427 9.67327 8.61077 9.67802 8.58252 9.69227Z" fill="#D0D7E5"/>
<path fill-rule="evenodd" clip-rule="evenodd" d="M9.55078 9.64805C9.55178 9.6478 9.56928 9.62355 9.58903 9.62305C9.60328 9.62255 9.61778 9.65205 9.63303 9.66855C9.61253 9.6743 9.63003 9.71205 9.58953 9.71155C9.55303 9.7108 9.55303 9.6943 9.55078 9.64805Z" fill="#EFF2F6"/>
<path fill-rule="evenodd" clip-rule="evenodd" d="M7.94177 9.01577C7.93502 9.04277 7.93501 9.05952 7.91101 9.05902C7.88651 9.05852 7.87452 9.04952 7.87502 9.02452C7.87502 9.00477 7.88802 8.99102 7.90277 8.99227C7.91977 8.99352 7.94402 8.99827 7.94177 9.01577Z" fill="#CCD4E3"/>
<path fill-rule="evenodd" clip-rule="evenodd" d="M6.40898 8.62598C6.42098 8.63898 6.43473 8.64923 6.43998 8.66248C6.44448 8.67348 6.43748 8.69023 6.42198 8.69198C6.40473 8.69348 6.38623 8.69298 6.38073 8.67148C6.37573 8.65048 6.39398 8.64298 6.40898 8.62598Z" fill="#E0E5EE"/>
<path fill-rule="evenodd" clip-rule="evenodd" d="M6.23198 8.81303C6.22523 8.78428 6.18073 8.80253 6.17773 8.76953C6.18723 8.79453 6.26148 8.73878 6.23198 8.81303Z" fill="#7085B1"/>
<path fill-rule="evenodd" clip-rule="evenodd" d="M6.00545 7.72632C5.99995 7.69557 5.9527 7.71982 5.9502 7.68457C5.96345 7.70557 6.03045 7.65582 6.00545 7.72632Z" fill="#5C75A7"/>
<path fill-rule="evenodd" clip-rule="evenodd" d="M8.77769 7.47909C8.78244 7.46009 8.79769 7.42909 8.79169 7.42334C8.71019 7.35084 8.81894 7.33859 8.83519 7.32384C8.86494 7.29509 8.86019 7.41634 8.93869 7.33959C8.89644 7.43334 8.83994 7.46034 8.77494 7.47634L8.77769 7.47909Z" fill="#E7EAF2"/>
<path fill-rule="evenodd" clip-rule="evenodd" d="M6.36772 7.40133C6.28822 7.39358 6.35897 7.29008 6.34172 7.23008C6.32022 7.15258 6.37672 7.15358 6.43172 7.15333C6.51697 7.15283 6.56522 7.18883 6.56522 7.27883C6.56497 7.36733 6.52397 7.40233 6.36772 7.40133Z" fill="#15A24A"/>
<path fill-rule="evenodd" clip-rule="evenodd" d="M9.4052 7.90129C9.3877 7.95479 9.32295 7.98829 9.31195 8.05429C9.31095 8.06304 9.28595 8.06129 9.2812 8.03579C9.2612 7.91629 9.2602 7.91654 9.17195 7.98054C9.16495 7.98579 9.1527 7.99054 9.14595 7.98829C9.13295 7.98254 9.1277 7.96954 9.13545 7.95479C9.1647 7.89779 9.1922 7.83929 9.22495 7.78404C9.24695 7.74754 9.2737 7.77804 9.2952 7.78854C9.34245 7.81179 9.4007 7.82504 9.4052 7.90129Z" fill="#13A248"/>
<path fill-rule="evenodd" clip-rule="evenodd" d="M9.62986 8.09529C9.58386 8.11379 9.56161 8.07904 9.53211 8.06654C9.51211 8.05804 9.49336 8.05004 9.47986 8.07229C9.46511 8.09579 9.47986 8.10929 9.50011 8.11979C9.51561 8.12754 9.53211 8.13354 9.54361 8.14579C9.56386 8.16704 9.62736 8.16129 9.60161 8.20654C9.58136 8.24254 9.54736 8.20054 9.52486 8.18729C9.48611 8.16354 9.40936 8.15054 9.41761 8.10929C9.43036 8.04304 9.46811 7.97104 9.51836 7.92554C9.55861 7.88904 9.60311 7.95804 9.64836 7.97529C9.66786 7.98254 9.70111 7.98904 9.69536 8.01979C9.68986 8.05154 9.66636 8.03304 9.64836 8.02879C9.60611 8.01904 9.56511 7.94754 9.53186 7.99704C9.51186 8.02654 9.59411 8.03879 9.62011 8.07129C9.62411 8.07604 9.62511 8.08254 9.62986 8.09529ZM10.1686 8.44879C10.1761 8.50729 10.1524 8.54704 10.0911 8.53704C10.0276 8.52654 9.97936 8.48779 9.96836 8.41829C9.96736 8.41129 9.97586 8.39704 9.98286 8.39504C9.98689 8.39372 9.99116 8.3933 9.99536 8.39381C9.99957 8.39431 10.0036 8.39574 10.0072 8.39798C10.0108 8.40022 10.0139 8.40322 10.0162 8.40677C10.0185 8.41033 10.02 8.41434 10.0206 8.41854C10.0286 8.46629 10.0536 8.48754 10.1039 8.48854C10.1136 8.41029 9.97236 8.37454 10.0536 8.29329C10.0944 8.25254 10.1441 8.28629 10.1796 8.31904C10.2124 8.34879 10.2524 8.38154 10.1926 8.42404C10.1841 8.41954 10.1726 8.41229 10.1664 8.41729C10.1536 8.42579 10.1661 8.43804 10.1686 8.44879Z" fill="#11A147"/>
<path fill-rule="evenodd" clip-rule="evenodd" d="M8.44111 7.70457C8.41136 7.68782 8.41286 7.67182 8.41761 7.65432C8.42711 7.61707 8.40786 7.59757 8.37386 7.58707C8.33986 7.57607 8.31361 7.57757 8.30436 7.62007C8.30111 7.63907 8.29111 7.65232 8.27036 7.64532C8.24636 7.63657 8.25836 7.61707 8.26286 7.60282C8.27236 7.57007 8.28086 7.53707 8.29586 7.50582C8.30936 7.47457 8.29986 7.41732 8.34911 7.42107C8.40136 7.42482 8.45786 7.43732 8.49761 7.48057C8.51536 7.49957 8.52261 7.53232 8.50811 7.54657C8.46586 7.59007 8.46936 7.65157 8.44111 7.70457Z" fill="#0FA046"/>
<path fill-rule="evenodd" clip-rule="evenodd" d="M6.89863 7.3867C6.81788 7.4172 6.75413 7.39945 6.69188 7.4007C6.66363 7.40145 6.66113 7.3802 6.66113 7.3587C6.6628 7.33486 6.66347 7.31103 6.66313 7.2872C6.66613 7.15545 6.71288 7.1217 6.84238 7.15845C6.85688 7.16245 6.87063 7.16495 6.87163 7.1812C6.87163 7.2037 6.85538 7.2077 6.83538 7.2072C6.83255 7.20653 6.82938 7.20628 6.82588 7.20645C6.78713 7.21595 6.71763 7.1722 6.71638 7.2302C6.71488 7.2747 6.79063 7.2432 6.82938 7.2582C6.83455 7.2607 6.84122 7.2652 6.84938 7.2717C6.82488 7.31595 6.78413 7.2912 6.75263 7.29645C6.73388 7.29945 6.70938 7.2912 6.70663 7.3217C6.70313 7.3577 6.72813 7.35595 6.75263 7.35845C6.79438 7.36345 6.83963 7.3477 6.89863 7.3867Z" fill="#0B9F43"/>
<path fill-rule="evenodd" clip-rule="evenodd" d="M6.23472 7.40528C6.19122 7.39578 6.19722 7.37078 6.18972 7.35328C6.17672 7.32103 6.15097 7.32103 6.12272 7.32328C6.09047 7.32628 6.07297 7.33878 6.07572 7.37453C6.07772 7.39203 6.08472 7.42028 6.05222 7.41628C6.02422 7.41278 6.03222 7.38553 6.03072 7.36703C6.02822 7.33678 6.02522 7.30578 6.02822 7.27578C6.03222 7.24228 6.00022 7.19103 6.04847 7.17903C6.09822 7.16603 6.15572 7.15678 6.20747 7.18153C6.22997 7.19228 6.24772 7.21853 6.23947 7.23978C6.22047 7.29328 6.23547 7.34753 6.23472 7.40528Z" fill="#079D3F"/>
<path fill-rule="evenodd" clip-rule="evenodd" d="M5.70703 7.32053C5.71503 7.25278 5.74478 7.19778 5.81903 7.20028C5.89028 7.20253 5.92828 7.25203 5.92828 7.32328C5.92828 7.39403 5.89528 7.44278 5.82003 7.44228C5.74353 7.44178 5.71753 7.38628 5.70703 7.32053Z" fill="#15A24A"/>
<path fill-rule="evenodd" clip-rule="evenodd" d="M10.4665 8.5909C10.4595 8.65815 10.4263 8.7089 10.3495 8.71565C10.2788 8.7214 10.2413 8.6809 10.2358 8.6144C10.2295 8.54715 10.2955 8.4829 10.3628 8.4834C10.4218 8.4839 10.465 8.52665 10.4665 8.5909Z" fill="#11A147"/>
<path fill-rule="evenodd" clip-rule="evenodd" d="M9.0626 7.8076C9.1191 7.8531 9.0506 7.8831 9.0481 7.92135C9.0011 7.8996 8.94235 7.90835 8.90435 7.8671C8.86385 7.8231 8.87135 7.77335 8.89785 7.72485C8.9271 7.6736 8.9721 7.6516 9.02735 7.6711C9.07785 7.6891 9.1156 7.7231 9.0911 7.7871C9.05235 7.7941 9.0206 7.7431 8.9661 7.77735C9.00235 7.7941 9.04585 7.77085 9.0626 7.8076Z" fill="#0C9F43"/>
<path fill-rule="evenodd" clip-rule="evenodd" d="M7.70314 7.29255C7.67014 7.3313 7.64589 7.3163 7.62314 7.3168C7.60114 7.3168 7.57764 7.29855 7.55039 7.3213C7.57489 7.3613 7.63414 7.33555 7.65714 7.3753C7.65389 7.38105 7.65239 7.3888 7.64814 7.3928C7.61514 7.4188 7.56239 7.3558 7.54189 7.4078C7.52314 7.45255 7.57239 7.43705 7.59364 7.44455C7.61764 7.45405 7.64739 7.45055 7.67639 7.48305C7.60914 7.51255 7.52889 7.4988 7.50114 7.4663C7.45739 7.41505 7.48814 7.32405 7.52139 7.27855C7.56064 7.2248 7.63239 7.2773 7.70314 7.29255Z" fill="#19A44D"/>
<path fill-rule="evenodd" clip-rule="evenodd" d="M8.12929 7.51009C8.07254 7.50409 8.00804 7.46409 7.99179 7.55759C7.99129 7.56059 7.97154 7.56484 7.96554 7.56084C7.95879 7.55709 7.95504 7.54309 7.95629 7.53509C7.97104 7.47584 7.97854 7.41234 8.00479 7.35909C8.03529 7.29909 8.08704 7.34984 8.12979 7.35559C8.18079 7.36234 8.20904 7.39334 8.20354 7.44709C8.19854 7.49334 8.16354 7.50584 8.12929 7.51009Z" fill="#0D9F44"/>
<path fill-rule="evenodd" clip-rule="evenodd" d="M8.80528 7.65354C8.79978 7.72879 8.76278 7.78079 8.68753 7.78304C8.62028 7.78554 8.58253 7.73829 8.58403 7.67129C8.58603 7.59879 8.62128 7.54629 8.69953 7.54404C8.77128 7.54154 8.79903 7.58979 8.80528 7.65354Z" fill="#0FA046"/>
<path fill-rule="evenodd" clip-rule="evenodd" d="M7.12018 7.38256C7.11193 7.40031 7.10518 7.42556 7.08143 7.41981C7.04018 7.41006 7.05868 7.37031 7.04868 7.34431C7.01818 7.31456 7.02618 7.35556 7.01668 7.36306C7.01318 7.38156 7.02168 7.40981 6.99668 7.41356C6.96593 7.41731 6.97318 7.38781 6.97393 7.37031C6.97643 7.33381 6.97693 7.29556 6.98693 7.26056C6.99568 7.23056 6.96393 7.17531 7.02368 7.17481C7.07643 7.17456 7.06493 7.22831 7.07168 7.26056C7.07868 7.29756 7.08243 7.31331 7.11268 7.27656C7.14393 7.26831 7.15043 7.29106 7.15768 7.31306C7.16168 7.34506 7.14743 7.36731 7.12018 7.38256Z" fill="#0EA044"/>
<path fill-rule="evenodd" clip-rule="evenodd" d="M9.78278 8.30086C9.80128 8.30086 9.82003 8.32536 9.83803 8.30436C9.85178 8.28861 9.83953 8.27311 9.82728 8.26036C9.81795 8.25086 9.80895 8.24102 9.80028 8.23086C9.77478 8.20011 9.73903 8.17061 9.77428 8.12611C9.80628 8.08536 9.84353 8.09536 9.88053 8.12111C9.88728 8.13411 9.88503 8.14661 9.87803 8.15836C9.85078 8.20111 9.90153 8.22711 9.90053 8.26361C9.90828 8.29786 9.91328 8.33236 9.87553 8.35211C9.82853 8.37711 9.79228 8.35411 9.75778 8.32411C9.75403 8.30436 9.76128 8.29461 9.78278 8.30086Z" fill="#10A146"/>
<path fill-rule="evenodd" clip-rule="evenodd" d="M9.06336 7.80762C9.04411 7.82112 9.00536 7.77737 9.00661 7.81037C9.00911 7.86887 8.97986 7.86362 8.95261 7.84637C8.91586 7.82362 8.91386 7.78462 8.93711 7.74862C8.95961 7.71337 8.99136 7.69287 9.02986 7.72162C9.05336 7.73887 9.07111 7.76487 9.09136 7.78712L9.06336 7.80762Z" fill="#ECF7F0"/>
<path fill-rule="evenodd" clip-rule="evenodd" d="M7.1363 7.32338C7.12908 7.3079 7.12107 7.2928 7.1123 7.27813C7.12105 7.25588 7.12905 7.23338 7.13955 7.21188C7.14905 7.19163 7.16555 7.18038 7.1888 7.18788C7.2148 7.19663 7.2128 7.21663 7.2113 7.23763C7.2058 7.2988 7.20072 7.35997 7.19605 7.42113C7.15955 7.44438 7.1503 7.42313 7.1443 7.39163C7.1398 7.36888 7.15155 7.34438 7.1363 7.32338Z" fill="#17A34C"/>
<path fill-rule="evenodd" clip-rule="evenodd" d="M9.9014 8.26333C9.8789 8.24033 9.8549 8.21858 9.8339 8.19408C9.8094 8.16508 9.8189 8.14733 9.8554 8.14258C9.90815 8.15433 9.9404 8.17983 9.9249 8.24033C9.91757 8.24799 9.90973 8.25566 9.9014 8.26333Z" fill="#D7EFE0"/>
<path fill-rule="evenodd" clip-rule="evenodd" d="M9.92497 8.23962C9.90072 8.20812 9.89422 8.16312 9.85547 8.14187L9.88147 8.12012C9.92347 8.14987 10.0002 8.16687 9.92497 8.23962Z" fill="#2BAB5B"/>
<path fill-rule="evenodd" clip-rule="evenodd" d="M10.1682 8.44903C10.1649 8.44703 10.1607 8.44603 10.1592 8.44328C10.1392 8.40628 10.0729 8.37303 10.0954 8.34028C10.1237 8.30078 10.1532 8.34753 10.1687 8.38128C10.1757 8.39553 10.1842 8.40953 10.1922 8.42428C10.1838 8.43261 10.1758 8.44086 10.1682 8.44903Z" fill="#E6F5EC"/>
<path fill-rule="evenodd" clip-rule="evenodd" d="M9.78279 8.30092C9.77512 8.30875 9.76679 8.31658 9.75779 8.32442C9.74729 8.31692 9.73279 8.31167 9.72604 8.30092C9.71329 8.27667 9.67679 8.24442 9.71904 8.22542C9.75454 8.20842 9.75454 8.25367 9.76604 8.27567C9.77079 8.28492 9.77679 8.29267 9.78279 8.30092Z" fill="#29AA59"/>
<path fill-rule="evenodd" clip-rule="evenodd" d="M7.13687 7.32324C7.17337 7.33749 7.15412 7.36799 7.15462 7.39074C7.15662 7.42199 7.16762 7.43249 7.19687 7.42149C7.13587 7.48049 7.14362 7.40174 7.12012 7.38424C7.12637 7.36349 7.13112 7.34324 7.13687 7.32324Z" fill="#DDF1E4"/>
<path fill-rule="evenodd" clip-rule="evenodd" d="M7.01562 7.36273V7.28223C7.05012 7.29323 7.05113 7.31748 7.04763 7.34398L7.01562 7.36273Z" fill="#6FC690"/>
<path fill-rule="evenodd" clip-rule="evenodd" d="M6.39258 7.28043C6.39608 7.24393 6.37858 7.19643 6.44083 7.20043C6.48633 7.20318 6.51933 7.22143 6.52183 7.27343C6.52433 7.32943 6.49158 7.35218 6.43983 7.35593C6.37408 7.36118 6.40083 7.30943 6.39258 7.28043Z" fill="#F5FBF7"/>
<path fill-rule="evenodd" clip-rule="evenodd" d="M9.27513 7.83082C9.30113 7.84507 9.34088 7.84782 9.34938 7.88632C9.35363 7.90632 9.33638 7.91957 9.31863 7.91382C9.28563 7.90382 9.24188 7.90332 9.23738 7.85682C9.23613 7.84332 9.25063 7.82632 9.27513 7.83082Z" fill="#EFF8F3"/>
<path fill-rule="evenodd" clip-rule="evenodd" d="M8.46502 7.52252C8.45827 7.54852 8.44002 7.55752 8.41902 7.54977C8.39077 7.53952 8.34527 7.55077 8.34477 7.50127C8.34377 7.47552 8.36127 7.46777 8.38477 7.47552C8.41577 7.48552 8.45327 7.48427 8.46502 7.52252Z" fill="#DEF2E5"/>
<path fill-rule="evenodd" clip-rule="evenodd" d="M6.12936 7.21484C6.15386 7.21784 6.19261 7.20484 6.19011 7.24659C6.18761 7.28309 6.15061 7.27734 6.12411 7.27784C6.10286 7.27859 6.07236 7.28959 6.07036 7.25134C6.06886 7.20584 6.10436 7.22009 6.12936 7.21484Z" fill="#F3FAF5"/>
<path fill-rule="evenodd" clip-rule="evenodd" d="M5.81255 7.25C5.8578 7.253 5.8803 7.28 5.88205 7.3225C5.88455 7.3605 5.8658 7.393 5.8268 7.3965C5.7818 7.40075 5.76155 7.3665 5.75905 7.32475C5.75655 7.28625 5.77155 7.25825 5.81255 7.25Z" fill="#F3FAF6"/>
<path fill-rule="evenodd" clip-rule="evenodd" d="M10.4168 8.59926C10.4103 8.64076 10.3853 8.67001 10.337 8.67001C10.2983 8.66951 10.2838 8.64126 10.2878 8.60701C10.2915 8.56051 10.3193 8.53051 10.3665 8.53126C10.4038 8.53226 10.4183 8.55901 10.4168 8.59926Z" fill="#F9FCFA"/>
<path fill-rule="evenodd" clip-rule="evenodd" d="M8.06996 7.38753C8.09521 7.40303 8.14596 7.38703 8.15321 7.43703C8.15546 7.45603 8.13446 7.46578 8.11771 7.46203C8.08496 7.45478 8.03921 7.46653 8.03521 7.41378C8.03446 7.39753 8.04171 7.38003 8.06996 7.38753Z" fill="#E7F5EC"/>
<path fill-rule="evenodd" clip-rule="evenodd" d="M8.75508 7.65964C8.75033 7.70289 8.72908 7.73314 8.68533 7.73314C8.64233 7.73364 8.62708 7.70364 8.62908 7.66414C8.63258 7.62064 8.65733 7.59164 8.69958 7.58989C8.74158 7.58839 8.75508 7.62189 8.75508 7.65964Z" fill="#F5FBF7"/>
</svg>
