<svg width="16" height="12" viewBox="0 0 16 12" fill="none" xmlns="http://www.w3.org/2000/svg">
<g clip-path="url(#clip0_122_261)">
<path d="M0 10.0001C0 10.4716 0.187301 10.9237 0.520699 11.2571C0.854097 11.5905 1.30628 11.7778 1.77778 11.7778H14.2222C14.6937 11.7778 15.1459 11.5905 15.4793 11.2571C15.8127 10.9237 16 10.4716 16 10.0001V7.77783H0V10.0001Z" fill="#138808"/>
<path d="M16 4.22217V1.99995C16 1.52845 15.8127 1.07626 15.4793 0.742867C15.1459 0.409469 14.6937 0.222168 14.2222 0.222168H1.77778C1.30628 0.222168 0.854097 0.409469 0.520699 0.742867C0.187301 1.07626 0 1.52845 0 1.99995L0 4.22217H16Z" fill="#FF9933"/>
<path d="M0 4.07422H16V7.92622H0V4.07422Z" fill="#F7F7F7"/>
<path d="M8.00043 7.77772C8.98227 7.77772 9.77821 6.98179 9.77821 5.99995C9.77821 5.01811 8.98227 4.22217 8.00043 4.22217C7.01859 4.22217 6.22266 5.01811 6.22266 5.99995C6.22266 6.98179 7.01859 7.77772 8.00043 7.77772Z" fill="#000080"/>
<path d="M8 7.5C8.82843 7.5 9.5 6.82843 9.5 6C9.5 5.17157 8.82843 4.5 8 4.5C7.17157 4.5 6.5 5.17157 6.5 6C6.5 6.82843 7.17157 7.5 8 7.5Z" fill="#F7F7F7"/>
<path d="M8.04479 5.44455L8.00035 5.73344L7.9559 5.44455L8.00035 4.57788L8.04479 5.44455ZM7.63235 4.62633L7.81368 5.47477L7.93146 5.74233L7.89946 5.4521L7.63235 4.62633ZM7.28924 4.76855L7.6839 5.54099L7.86701 5.76899L7.76124 5.49655L7.28924 4.76855ZM6.99457 4.99433L7.5759 5.63877L7.8119 5.81166L7.63901 5.57566L6.99457 4.99433ZM6.76879 5.28899L7.49679 5.76099L7.76924 5.86677L7.54124 5.68366L6.76879 5.28899ZM6.62657 5.6321L7.45235 5.89921L7.74257 5.93121L7.47501 5.81344L6.62657 5.6321ZM6.57812 6.0001L7.44479 6.04455L7.73368 6.0001L7.44479 5.95566L6.57812 6.0001ZM6.62657 6.3681L7.47501 6.18677L7.74257 6.06899L7.45235 6.10099L6.62657 6.3681ZM6.76879 6.71121L7.54124 6.31655L7.76924 6.13344L7.49679 6.23921L6.76879 6.71121ZM6.99457 7.00588L7.63901 6.42455L7.8119 6.18855L7.5759 6.36144L6.99457 7.00588ZM7.28924 7.23166L7.76124 6.50366L7.86701 6.23121L7.6839 6.45921L7.28924 7.23166ZM7.63235 7.37388L7.89946 6.5481L7.93146 6.25788L7.81368 6.52544L7.63235 7.37388ZM8.00035 7.42233L8.04479 6.55566L8.00035 6.26677L7.9559 6.55566L8.00035 7.42233ZM8.36835 7.37388L8.18701 6.52544L8.06924 6.25788L8.10124 6.5481L8.36835 7.37388ZM8.71146 7.23166L8.31679 6.45921L8.13368 6.23121L8.23946 6.50366L8.71146 7.23166ZM9.00613 7.00588L8.42479 6.36144L8.18879 6.18855L8.36168 6.42455L9.00613 7.00588ZM9.2319 6.71121L8.5039 6.23921L8.23146 6.13344L8.45946 6.31655L9.2319 6.71121ZM9.37412 6.3681L8.54835 6.10099L8.25812 6.06899L8.52568 6.18677L9.37412 6.3681ZM9.42257 6.0001L8.5559 5.95566L8.26701 6.0001L8.5559 6.04455L9.42257 6.0001ZM9.37412 5.6321L8.52568 5.81344L8.25812 5.93121L8.54835 5.89921L9.37412 5.6321ZM9.2319 5.28899L8.45946 5.68366L8.23146 5.86677L8.5039 5.76099L9.2319 5.28899ZM9.00613 4.99433L8.36168 5.57566L8.18879 5.81166L8.42479 5.63877L9.00613 4.99433ZM8.71146 4.76855L8.23946 5.49655L8.13368 5.76899L8.31679 5.54099L8.71146 4.76855ZM8.36835 4.62633L8.10124 5.4521L8.06924 5.74233L8.18701 5.47477L8.36835 4.62633Z" fill="#6666B3"/>
<path d="M7.80373 4.60405C7.85282 4.60405 7.89262 4.56425 7.89262 4.51516C7.89262 4.46607 7.85282 4.42627 7.80373 4.42627C7.75464 4.42627 7.71484 4.46607 7.71484 4.51516C7.71484 4.56425 7.75464 4.60405 7.80373 4.60405Z" fill="#000080"/>
<path d="M7.4258 4.70537C7.47489 4.70537 7.51469 4.66557 7.51469 4.61648C7.51469 4.56738 7.47489 4.52759 7.4258 4.52759C7.37671 4.52759 7.33691 4.56738 7.33691 4.61648C7.33691 4.66557 7.37671 4.70537 7.4258 4.70537Z" fill="#000080"/>
<path d="M7.08791 4.90043C7.137 4.90043 7.1768 4.86064 7.1768 4.81155C7.1768 4.76245 7.137 4.72266 7.08791 4.72266C7.03882 4.72266 6.99902 4.76245 6.99902 4.81155C6.99902 4.86064 7.03882 4.90043 7.08791 4.90043Z" fill="#000080"/>
<path d="M6.81155 5.17705C6.86064 5.17705 6.90043 5.13725 6.90043 5.08816C6.90043 5.03906 6.86064 4.99927 6.81155 4.99927C6.76245 4.99927 6.72266 5.03906 6.72266 5.08816C6.72266 5.13725 6.76245 5.17705 6.81155 5.17705Z" fill="#000080"/>
<path d="M6.61623 5.51567C6.66532 5.51567 6.70512 5.47587 6.70512 5.42678C6.70512 5.37769 6.66532 5.33789 6.61623 5.33789C6.56714 5.33789 6.52734 5.37769 6.52734 5.42678C6.52734 5.47587 6.56714 5.51567 6.61623 5.51567Z" fill="#000080"/>
<path d="M6.51467 5.89335C6.56376 5.89335 6.60356 5.85356 6.60356 5.80446C6.60356 5.75537 6.56376 5.71558 6.51467 5.71558C6.46558 5.71558 6.42578 5.75537 6.42578 5.80446C6.42578 5.85356 6.46558 5.89335 6.51467 5.89335Z" fill="#000080"/>
<path d="M6.51467 6.28447C6.56376 6.28447 6.60356 6.24467 6.60356 6.19558C6.60356 6.14649 6.56376 6.10669 6.51467 6.10669C6.46558 6.10669 6.42578 6.14649 6.42578 6.19558C6.42578 6.24467 6.46558 6.28447 6.51467 6.28447Z" fill="#000080"/>
<path d="M6.61623 6.66215C6.66532 6.66215 6.70512 6.62236 6.70512 6.57326C6.70512 6.52417 6.66532 6.48438 6.61623 6.48438C6.56714 6.48438 6.52734 6.52417 6.52734 6.57326C6.52734 6.62236 6.56714 6.66215 6.61623 6.66215Z" fill="#000080"/>
<path d="M6.81155 7.00102C6.86064 7.00102 6.90043 6.96122 6.90043 6.91213C6.90043 6.86304 6.86064 6.82324 6.81155 6.82324C6.76245 6.82324 6.72266 6.86304 6.72266 6.91213C6.72266 6.96122 6.76245 7.00102 6.81155 7.00102Z" fill="#000080"/>
<path d="M7.08791 7.27739C7.137 7.27739 7.1768 7.23759 7.1768 7.1885C7.1768 7.13941 7.137 7.09961 7.08791 7.09961C7.03882 7.09961 6.99902 7.13941 6.99902 7.1885C6.99902 7.23759 7.03882 7.27739 7.08791 7.27739Z" fill="#000080"/>
<path d="M7.4258 7.47246C7.47489 7.47246 7.51469 7.43266 7.51469 7.38357C7.51469 7.33447 7.47489 7.29468 7.4258 7.29468C7.37671 7.29468 7.33691 7.33447 7.33691 7.38357C7.33691 7.43266 7.37671 7.47246 7.4258 7.47246Z" fill="#000080"/>
<path d="M7.80373 7.57377C7.85282 7.57377 7.89262 7.53398 7.89262 7.48488C7.89262 7.43579 7.85282 7.396 7.80373 7.396C7.75464 7.396 7.71484 7.43579 7.71484 7.48488C7.71484 7.53398 7.75464 7.57377 7.80373 7.57377Z" fill="#000080"/>
<path d="M8.19533 7.57377C8.24443 7.57377 8.28422 7.53398 8.28422 7.48488C8.28422 7.43579 8.24443 7.396 8.19533 7.396C8.14624 7.396 8.10645 7.43579 8.10645 7.48488C8.10645 7.53398 8.14624 7.57377 8.19533 7.57377Z" fill="#000080"/>
<path d="M8.57326 7.47246C8.62236 7.47246 8.66215 7.43266 8.66215 7.38357C8.66215 7.33447 8.62236 7.29468 8.57326 7.29468C8.52417 7.29468 8.48438 7.33447 8.48438 7.38357C8.48438 7.43266 8.52417 7.47246 8.57326 7.47246Z" fill="#000080"/>
<path d="M8.91115 7.27739C8.96025 7.27739 9.00004 7.23759 9.00004 7.1885C9.00004 7.13941 8.96025 7.09961 8.91115 7.09961C8.86206 7.09961 8.82227 7.13941 8.82227 7.1885C8.82227 7.23759 8.86206 7.27739 8.91115 7.27739Z" fill="#000080"/>
<path d="M9.18752 7.00102C9.23661 7.00102 9.27641 6.96122 9.27641 6.91213C9.27641 6.86304 9.23661 6.82324 9.18752 6.82324C9.13843 6.82324 9.09863 6.86304 9.09863 6.91213C9.09863 6.96122 9.13843 7.00102 9.18752 7.00102Z" fill="#000080"/>
<path d="M9.38283 6.66215C9.43193 6.66215 9.47172 6.62236 9.47172 6.57326C9.47172 6.52417 9.43193 6.48438 9.38283 6.48438C9.33374 6.48438 9.29395 6.52417 9.29395 6.57326C9.29395 6.62236 9.33374 6.66215 9.38283 6.66215Z" fill="#000080"/>
<path d="M9.4844 6.28447C9.53349 6.28447 9.57329 6.24467 9.57329 6.19558C9.57329 6.14649 9.53349 6.10669 9.4844 6.10669C9.4353 6.10669 9.39551 6.14649 9.39551 6.19558C9.39551 6.24467 9.4353 6.28447 9.4844 6.28447Z" fill="#000080"/>
<path d="M9.4844 5.89335C9.53349 5.89335 9.57329 5.85356 9.57329 5.80446C9.57329 5.75537 9.53349 5.71558 9.4844 5.71558C9.4353 5.71558 9.39551 5.75537 9.39551 5.80446C9.39551 5.85356 9.4353 5.89335 9.4844 5.89335Z" fill="#000080"/>
<path d="M9.38283 5.51567C9.43193 5.51567 9.47172 5.47587 9.47172 5.42678C9.47172 5.37769 9.43193 5.33789 9.38283 5.33789C9.33374 5.33789 9.29395 5.37769 9.29395 5.42678C9.29395 5.47587 9.33374 5.51567 9.38283 5.51567Z" fill="#000080"/>
<path d="M9.18752 5.17705C9.23661 5.17705 9.27641 5.13725 9.27641 5.08816C9.27641 5.03906 9.23661 4.99927 9.18752 4.99927C9.13843 4.99927 9.09863 5.03906 9.09863 5.08816C9.09863 5.13725 9.13843 5.17705 9.18752 5.17705Z" fill="#000080"/>
<path d="M8.91115 4.90043C8.96025 4.90043 9.00004 4.86064 9.00004 4.81155C9.00004 4.76245 8.96025 4.72266 8.91115 4.72266C8.86206 4.72266 8.82227 4.76245 8.82227 4.81155C8.82227 4.86064 8.86206 4.90043 8.91115 4.90043Z" fill="#000080"/>
<path d="M8.57326 4.70537C8.62236 4.70537 8.66215 4.66557 8.66215 4.61648C8.66215 4.56738 8.62236 4.52759 8.57326 4.52759C8.52417 4.52759 8.48438 4.56738 8.48438 4.61648C8.48438 4.66557 8.52417 4.70537 8.57326 4.70537Z" fill="#000080"/>
<path d="M8.19533 4.60405C8.24443 4.60405 8.28422 4.56425 8.28422 4.51516C8.28422 4.46607 8.24443 4.42627 8.19533 4.42627C8.14624 4.42627 8.10645 4.46607 8.10645 4.51516C8.10645 4.56425 8.14624 4.60405 8.19533 4.60405Z" fill="#000080"/>
<path d="M7.99961 6.4001C8.22052 6.4001 8.39961 6.22101 8.39961 6.0001C8.39961 5.77918 8.22052 5.6001 7.99961 5.6001C7.7787 5.6001 7.59961 5.77918 7.59961 6.0001C7.59961 6.22101 7.7787 6.4001 7.99961 6.4001Z" fill="#000080"/>
</g>
<defs>
<clipPath id="clip0_122_261">
<rect width="16" height="12" fill="white"/>
</clipPath>
</defs>
</svg>
