<svg width="16" height="12" viewBox="0 0 16 12" fill="none" xmlns="http://www.w3.org/2000/svg">
<g clip-path="url(#clip0_122_246)">
<path d="M0 4.25H16V7.75H0V4.25Z" fill="#E6E7E8"/>
<path d="M13.5 0.5H2.5C0.84325 0.5 0 1.73125 0 3.25V4.25H16V3.25C16 1.73125 15.1567 0.5 13.5 0.5ZM0 8.75C0 10.2687 0.84325 11.5 2.5 11.5H13.5C15.1567 11.5 16 10.2687 16 8.75V7.75H0V8.75Z" fill="#74ACDF"/>
<path fill-rule="evenodd" clip-rule="evenodd" d="M8.16975 4.97448C8.24725 4.87798 8.25525 4.78173 8.25725 4.67998C8.2595 4.59373 8.27225 4.50698 8.28775 4.42048C8.2935 4.38823 8.31625 4.35623 8.33875 4.33173C8.34772 4.32417 8.35821 4.31861 8.3695 4.31541C8.3808 4.31222 8.39264 4.31148 8.40425 4.31323C8.4165 4.31648 8.428 4.34998 8.427 4.36973C8.42525 4.40398 8.40925 4.43798 8.407 4.47223C8.402 4.54448 8.402 4.61548 8.40175 4.68698C8.40075 4.75923 8.40125 4.83073 8.40125 4.91123C8.45275 4.80423 8.50175 4.70123 8.55225 4.59898C8.57828 4.54211 8.60783 4.48692 8.64075 4.43373C8.6535 4.41598 8.68625 4.41098 8.70925 4.40048C8.718 4.42423 8.74025 4.45048 8.73525 4.47048C8.7055 4.57623 8.6695 4.68048 8.63425 4.78473C8.60275 4.88023 8.569 4.97398 8.5295 5.08498C8.6305 5.02848 8.67475 4.95223 8.71425 4.86848C8.7575 4.77648 8.808 4.68673 8.86525 4.60298C8.8925 4.56373 8.94325 4.51498 8.99625 4.55998C9.01 4.57148 8.98475 4.64748 8.9605 4.68023C8.904 4.75673 8.86975 4.83773 8.845 4.92998C8.824 5.00873 8.76925 5.07898 8.733 5.14573C8.74625 5.13523 8.7695 5.11573 8.79075 5.09573C8.8935 5.00373 8.9955 4.91048 9.09875 4.81873C9.127 4.79348 9.1575 4.76998 9.19075 4.75398C9.2065 4.74623 9.23725 4.75248 9.25125 4.76348C9.2625 4.77123 9.264 4.80398 9.2565 4.81773C9.23567 4.85483 9.21094 4.88961 9.18275 4.92148C9.064 5.05473 8.94425 5.18648 8.8135 5.33023C8.93875 5.31298 9.01775 5.25173 9.0935 5.17698C9.153 5.11823 9.22225 5.06748 9.2895 5.01623C9.30958 5.00123 9.33371 4.9926 9.35875 4.99148C9.3925 4.99248 9.42575 5.00673 9.45825 5.01623C9.44025 5.04298 9.42925 5.08098 9.404 5.09573C9.30553 5.1512 9.22118 5.22862 9.1575 5.32198C9.11975 5.37798 9.049 5.40998 8.98225 5.46173C9.127 5.40998 9.26075 5.36223 9.395 5.31623C9.447 5.29848 9.50075 5.28373 9.5545 5.27473C9.57075 5.27198 9.60175 5.28798 9.60725 5.30248C9.6125 5.31798 9.6025 5.34973 9.589 5.36048C9.5535 5.38773 9.514 5.41048 9.473 5.42923C9.31775 5.50473 9.162 5.57773 8.9945 5.65723C9.12975 5.69773 9.23575 5.64948 9.346 5.60848C9.431 5.57723 9.52425 5.56573 9.615 5.55723C9.64175 5.55473 9.6735 5.59148 9.702 5.61048C9.67625 5.63098 9.6515 5.66748 9.62275 5.66998C9.50475 5.68273 9.40425 5.72998 9.3015 5.78673C9.23375 5.82423 9.14575 5.82573 9.06625 5.84423C9.25375 5.85457 9.44133 5.8654 9.629 5.87673C9.63125 5.87673 9.634 5.87623 9.6365 5.87748L9.7385 5.93573C9.706 5.95573 9.67375 5.99173 9.63925 5.99398C9.4695 6.00973 9.298 6.01673 9.128 6.02723C9.102 6.02823 9.07625 6.03048 9.03375 6.03398C9.15525 6.12348 9.27525 6.11623 9.399 6.11998C9.48775 6.12148 9.578 6.15248 9.6645 6.18048C9.68675 6.18723 9.69825 6.22873 9.714 6.25423C9.68625 6.26423 9.658 6.28148 9.63075 6.28148C9.594 6.28148 9.557 6.26598 9.51975 6.25973C9.488 6.25423 9.45425 6.24398 9.424 6.24973C9.29425 6.27348 9.1665 6.29198 9.04225 6.21873C9.04142 6.22507 9.04017 6.2314 9.0385 6.23773C9.17917 6.3039 9.31925 6.3704 9.45875 6.43723C9.49925 6.45673 9.54125 6.47673 9.57675 6.50373C9.5945 6.51748 9.6 6.54848 9.6105 6.57198C9.58725 6.58148 9.56325 6.60198 9.542 6.59923C9.49325 6.59248 9.44475 6.57548 9.3975 6.55923C9.24675 6.50773 9.09625 6.45398 8.93925 6.39798C8.97925 6.49623 9.05525 6.54498 9.20625 6.60398C9.27725 6.63123 9.343 6.67723 9.403 6.72398C9.4415 6.75423 9.4985 6.80548 9.45575 6.85548C9.4105 6.90923 9.35975 6.84923 9.3215 6.81948C9.2505 6.76473 9.17225 6.73473 9.08575 6.71098C9.003 6.68773 8.92975 6.63048 8.856 6.58873C8.953 6.69623 9.05525 6.80898 9.15625 6.92198C9.18775 6.95798 9.2215 6.99323 9.24475 7.03423C9.2575 7.05523 9.24975 7.08848 9.2505 7.11573C9.22275 7.11373 9.18675 7.12148 9.16775 7.10698C9.0925 7.04898 9.022 6.98423 8.95025 6.92098C8.86275 6.84398 8.77675 6.76573 8.67975 6.67873C8.69925 6.82023 8.77675 6.90623 8.86825 6.98373C8.94475 7.04898 9.004 7.12673 9.0225 7.22698C9.02825 7.25648 9.01025 7.28973 9.0025 7.32123C8.97525 7.30498 8.9355 7.29598 8.922 7.27173C8.86412 7.1716 8.78386 7.08621 8.6875 7.02223C8.63325 6.98548 8.60125 6.91523 8.55375 6.85323C8.576 6.91973 8.596 6.98073 8.61725 7.04173C8.6515 7.13873 8.6865 7.23498 8.72025 7.33223C8.7303 7.35789 8.73556 7.38518 8.73575 7.41273C8.734 7.43398 8.72075 7.46598 8.70575 7.47073C8.68775 7.47598 8.65675 7.46223 8.6435 7.44523C8.61825 7.41473 8.60075 7.37748 8.58375 7.34223C8.50825 7.18673 8.434 7.02998 8.3535 6.86023C8.317 6.97498 8.3445 7.06673 8.38125 7.15923C8.41125 7.23573 8.439 7.31398 8.455 7.39448C8.464 7.43823 8.4495 7.48873 8.43925 7.53423C8.4355 7.54798 8.4095 7.56473 8.394 7.56423C8.379 7.56423 8.35175 7.54473 8.35075 7.53248C8.33925 7.37498 8.26375 7.24298 8.19825 7.10498C8.1745 7.05598 8.1825 6.99298 8.165 6.93598C8.15767 7.08732 8.15008 7.23857 8.14225 7.38973C8.14025 7.43498 8.14125 7.48123 8.1285 7.52448C8.12025 7.55273 8.09175 7.57723 8.072 7.60248C8.05325 7.57648 8.0195 7.55148 8.01725 7.52373C8.0025 7.35623 7.9945 7.18823 7.98525 7.02123C7.9835 6.98448 7.98525 6.94748 7.975 6.90898C7.92016 6.9731 7.89033 7.05487 7.891 7.13923C7.891 7.22123 7.89825 7.30548 7.887 7.38648C7.87975 7.44148 7.85075 7.49523 7.82275 7.54473C7.81275 7.56248 7.7775 7.56573 7.75325 7.57498C7.745 7.55348 7.734 7.53248 7.7285 7.50973C7.72575 7.49598 7.73175 7.48023 7.73525 7.46548C7.76075 7.36748 7.773 7.27223 7.74575 7.16898C7.72975 7.10748 7.74325 7.03798 7.74325 6.96673C7.68675 7.08423 7.63033 7.2009 7.574 7.31673C7.553 7.35998 7.5325 7.40423 7.50525 7.44198C7.4915 7.45973 7.45975 7.46423 7.43675 7.47423C7.427 7.45098 7.408 7.42573 7.4105 7.40373C7.418 7.35473 7.4345 7.30673 7.45125 7.25948C7.50375 7.10848 7.5575 6.95823 7.6165 6.79023C7.50125 6.85248 7.46075 6.94623 7.4175 7.04023C7.38026 7.12193 7.33433 7.19938 7.2805 7.27123C7.25225 7.31023 7.2015 7.35823 7.149 7.31398C7.13525 7.30348 7.161 7.22648 7.18575 7.19248C7.2415 7.11598 7.2755 7.03548 7.3 6.94298C7.321 6.86398 7.37675 6.79448 7.41625 6.72273C7.302 6.82498 7.18525 6.93198 7.06625 7.03723C7.03284 7.06745 6.9965 7.09426 6.95775 7.11723C6.9425 7.12598 6.91 7.12323 6.89725 7.11223C6.88625 7.10123 6.8825 7.06798 6.8905 7.05298C6.90875 7.01698 6.93375 6.98498 6.95975 6.95473C7.0785 6.82223 7.1985 6.69098 7.3285 6.54673C7.19 6.56398 7.11325 6.64323 7.0335 6.72423C6.97476 6.78156 6.90918 6.83144 6.83825 6.87273C6.79625 6.89948 6.7285 6.93098 6.69675 6.87473C6.6605 6.80948 6.73775 6.78723 6.779 6.76398C6.85825 6.71598 6.917 6.65273 6.97175 6.57848C7.01875 6.51498 7.09225 6.47048 7.156 6.41648L6.7485 6.55848C6.7105 6.57223 6.673 6.59073 6.63425 6.59448C6.603 6.59873 6.56975 6.58398 6.53775 6.57773C6.554 6.54773 6.56375 6.50398 6.58875 6.49023C6.71625 6.42248 6.8495 6.36123 6.9805 6.29748L7.1385 6.22048C7.0385 6.18273 6.9615 6.19548 6.8225 6.25623C6.75597 6.28457 6.68657 6.30561 6.6155 6.31898C6.57585 6.32555 6.5352 6.32247 6.497 6.30998C6.47525 6.30398 6.4605 6.27573 6.44275 6.25798C6.4605 6.24123 6.4775 6.21148 6.4975 6.20973C6.6295 6.19423 6.746 6.14473 6.86125 6.07748C6.91975 6.04323 7.001 6.04648 7.08975 6.02923C6.9185 6.02073 6.76475 6.01373 6.61175 6.00598C6.56136 6.00511 6.51119 5.99917 6.462 5.98823C6.44 5.98298 6.425 5.95373 6.40625 5.93598C6.42475 5.91873 6.441 5.89023 6.46275 5.88448C6.5115 5.87273 6.562 5.87023 6.61225 5.86773C6.772 5.85923 6.93075 5.85198 7.111 5.84348C6.994 5.75798 6.883 5.74798 6.767 5.76348C6.66892 5.77731 6.56908 5.75644 6.48475 5.70448C6.4595 5.68873 6.44825 5.65123 6.431 5.62348C6.4615 5.61473 6.49575 5.59248 6.522 5.59873C6.62887 5.62524 6.73997 5.63009 6.84875 5.61298C6.93725 5.59923 7.03325 5.63348 7.127 5.64723C6.99075 5.58248 6.851 5.51673 6.71275 5.44873C6.66063 5.42432 6.61026 5.39634 6.562 5.36498C6.546 5.35398 6.53275 5.31923 6.53825 5.30248C6.54325 5.28748 6.57775 5.27123 6.59725 5.27448C6.64875 5.28248 6.69925 5.29773 6.74875 5.31498C6.90025 5.36673 7.0505 5.42098 7.20725 5.47648C7.1685 5.38023 7.0915 5.33248 6.941 5.27023C6.86 5.23598 6.79 5.17548 6.71775 5.12448C6.70072 5.10934 6.68868 5.08937 6.68325 5.06723C6.6785 5.05048 6.68025 5.02348 6.69075 5.01273C6.70125 5.00223 6.7265 5.00548 6.745 5.00348C6.74783 5.00348 6.75025 5.00432 6.75225 5.00598C6.895 5.16248 7.14075 5.12823 7.28575 5.28723C7.27675 5.27398 7.26775 5.25998 7.25675 5.24823C7.15375 5.1349 7.05117 5.02107 6.949 4.90673C6.92631 4.88342 6.90757 4.85657 6.8935 4.82723C6.88575 4.80723 6.885 4.77148 6.89675 4.76023C6.91 4.74823 6.94625 4.74873 6.9645 4.75873C6.99725 4.77548 7.0265 4.80073 7.0545 4.82623C7.185 4.94273 7.315 5.06073 7.45775 5.18898C7.445 5.06523 7.37725 4.99298 7.308 4.91723C7.24375 4.84673 7.19175 4.76473 7.1355 4.68548C7.12714 4.67285 7.12311 4.65785 7.124 4.64273C7.12825 4.61298 7.13875 4.58398 7.1465 4.55423C7.17275 4.56848 7.21025 4.57698 7.2235 4.59898C7.28575 4.70498 7.3605 4.79223 7.46575 4.86123C7.51725 4.89623 7.54575 4.96673 7.59 5.02773C7.58425 5.00498 7.58225 4.98723 7.57575 4.97073C7.5315 4.84473 7.48625 4.72073 7.442 4.59423C7.4315 4.56648 7.41575 4.53723 7.41575 4.50898C7.41525 4.47248 7.428 4.43623 7.43475 4.39948C7.46525 4.41948 7.509 4.43323 7.5235 4.46223C7.604 4.61523 7.67625 4.77323 7.7515 4.92923C7.76375 4.95348 7.776 4.97698 7.7925 5.01023C7.8315 4.88548 7.7915 4.78598 7.7505 4.68298C7.72256 4.60847 7.7018 4.53145 7.6885 4.45298C7.68175 4.41823 7.692 4.37773 7.70425 4.34248C7.71 4.32723 7.736 4.31098 7.75375 4.30923C7.767 4.30873 7.79375 4.33048 7.79475 4.34298C7.80975 4.49398 7.87425 4.62473 7.944 4.75673C7.97075 4.80723 7.96325 4.87673 7.97875 4.93748L8.0115 4.38198C8.012 4.37148 8.00975 4.35973 8.014 4.35248C8.032 4.32465 8.05067 4.29765 8.07 4.27148C8.09 4.29923 8.1265 4.32573 8.12825 4.35473C8.14375 4.54198 8.1515 4.73048 8.162 4.91923C8.16375 4.93248 8.166 4.94448 8.16975 4.97448ZM6.802 5.73648C6.87275 5.74273 6.946 5.74273 7.0155 5.76023C7.07975 5.77598 7.13925 5.81248 7.203 5.83348C7.234 5.84473 7.27 5.84073 7.3035 5.84398C7.20175 5.79473 7.10325 5.74823 7 5.72448C6.93875 5.71048 6.86825 5.73148 6.802 5.73648C6.70317 5.71315 6.6045 5.68965 6.506 5.66598C6.5935 5.74148 6.6965 5.74548 6.802 5.73648ZM9.187 6.63473C9.25525 6.68423 9.325 6.73248 9.39125 6.78498C9.406 6.79598 9.4095 6.82273 9.418 6.84223C9.4285 6.82948 9.43325 6.81223 9.42625 6.80273C9.36975 6.71298 9.29475 6.64923 9.184 6.63648C9.08825 6.58048 8.98125 6.54048 8.914 6.44273C8.88815 6.40866 8.85701 6.37895 8.82175 6.35473C8.7975 6.33698 8.766 6.32898 8.7375 6.31648C8.794 6.38848 8.8635 6.43748 8.91975 6.49898C8.98787 6.57716 9.08369 6.62584 9.187 6.63473ZM6.97925 5.23748C6.87389 5.20045 6.78343 5.13017 6.7215 5.03723C6.69925 5.11373 6.871 5.25098 6.9815 5.23573C6.9915 5.24798 7.0015 5.26123 7.0135 5.27123C7.08575 5.32648 7.16 5.37973 7.2315 5.43598C7.26825 5.46548 7.2995 5.50248 7.338 5.53023C7.3575 5.54448 7.38625 5.54598 7.411 5.55223C7.36025 5.49248 7.297 5.45248 7.25 5.39923C7.18081 5.31606 7.08529 5.25899 6.97925 5.23748ZM6.80725 6.22623C6.92825 6.17723 7.0545 6.17023 7.18325 6.17723C7.2225 6.17898 7.263 6.16898 7.30125 6.15848C7.3145 6.15473 7.32325 6.13473 7.3385 6.11623C7.208 6.12348 7.0895 6.12148 6.97475 6.14073C6.91575 6.15048 6.86425 6.19798 6.80825 6.22823L6.5335 6.27598L6.53725 6.29473C6.63325 6.29898 6.727 6.29273 6.80725 6.22623ZM8.44825 6.64498C8.43208 6.63765 8.41575 6.63073 8.39925 6.62423C8.39375 6.62807 8.38825 6.63215 8.38275 6.63648C8.48108 6.87298 8.57917 7.10973 8.677 7.34673L8.69275 7.34148L8.447 6.64273C8.4995 6.71473 8.56725 6.78023 8.601 6.86073C8.65475 6.98823 8.768 7.03923 8.8675 7.11073C8.797 7.02823 8.70825 6.95773 8.6495 6.86848C8.589 6.77798 8.573 6.65848 8.471 6.57348C8.461 6.60498 8.455 6.62498 8.44825 6.64448M7.8275 5.13198C7.77025 5.01948 7.71225 4.90623 7.656 4.79248C7.608 4.69573 7.56225 4.59773 7.51525 4.50098L7.49825 4.50873C7.59775 4.74757 7.69708 4.98657 7.79625 5.22573L7.82625 5.21948V5.13073L7.874 5.19073C7.874 5.09648 7.87575 5.00173 7.8735 4.90723C7.8725 4.86798 7.8735 4.82148 7.854 4.79098C7.77875 4.67298 7.74925 4.54348 7.73725 4.40823C7.73725 4.40548 7.73 4.40398 7.70075 4.38723C7.72075 4.47823 7.72075 4.55923 7.7545 4.62198C7.8455 4.78573 7.84275 4.95673 7.8275 5.13198ZM6.9665 7.10073C6.9755 7.08923 6.98275 7.07648 6.99375 7.06698C7.172 6.90548 7.3515 6.74423 7.5285 6.58148C7.54625 6.56498 7.551 6.53323 7.56225 6.50798C7.53775 6.51848 7.50725 6.52173 7.4905 6.53848C7.32649 6.70416 7.16349 6.87083 7.0015 7.03848C6.9855 7.05498 6.97825 7.07948 6.9665 7.09998C6.9155 7.06273 6.95325 7.03623 6.97875 7.00998L7.443 6.53723C7.468 6.51173 7.4895 6.48348 7.519 6.44873C7.43675 6.45498 6.9305 7.00723 6.91725 7.09373L6.9665 7.09998M8.31925 6.74573C8.379 6.86373 8.439 6.98098 8.49825 7.09998C8.54825 7.20148 8.59625 7.30423 8.64575 7.40648C8.651 7.40448 8.65625 7.40123 8.662 7.39923L8.35075 6.64998C8.34075 6.65082 8.33075 6.65223 8.32075 6.65423C8.32075 6.6859 8.32058 6.71715 8.32025 6.74798L8.25925 6.66748C8.266 6.80548 8.256 6.92773 8.2825 7.04198C8.31675 7.18873 8.3805 7.32798 8.42875 7.46323C8.44161 7.38932 8.42788 7.31324 8.39 7.24848C8.29675 7.08948 8.304 6.91823 8.31925 6.74573ZM8.78675 5.55798L8.7645 5.62173C8.77825 5.62223 8.794 5.62698 8.805 5.62298C9.0445 5.52165 9.28375 5.41998 9.52275 5.31798C9.5215 5.31323 9.519 5.30898 9.51775 5.30423L8.78425 5.56048C8.85575 5.50898 8.9285 5.45723 8.9995 5.40473C9.05275 5.36523 9.118 5.33248 9.155 5.28048C9.20925 5.20498 9.268 5.14248 9.34975 5.09823C9.3795 5.08248 9.4045 5.05773 9.43175 5.03648C9.37178 5.0593 9.31498 5.08971 9.26275 5.12698C9.22 5.15698 9.17475 5.18798 9.1445 5.22898C9.0906 5.30447 9.01577 5.36253 8.92925 5.39598C8.853 5.42648 8.784 5.47598 8.7125 5.51698L8.72075 5.54648C8.74375 5.55073 8.76475 5.55448 8.78675 5.55798ZM7.37 6.31048C7.29575 6.36423 7.2285 6.43148 7.14725 6.46973C7.034 6.52223 6.9755 6.61273 6.922 6.71298C7.00025 6.64648 7.06625 6.56348 7.15175 6.51023C7.2405 6.45423 7.35 6.43073 7.43175 6.33798L7.3685 6.31223C7.37225 6.29048 7.37675 6.26948 7.38525 6.23173L6.62225 6.55773C6.62475 6.56273 6.62683 6.56782 6.6285 6.57298C6.87567 6.48515 7.12283 6.39765 7.37 6.31048ZM7.9085 6.58223C8.08725 6.63823 8.08725 6.63823 8.23575 6.58448C8.2245 6.60598 8.21625 6.62323 8.20525 6.64323C8.54675 6.61023 8.8235 6.24798 8.79525 5.88098C8.76475 5.48448 8.4255 5.19323 8.01775 5.21273C7.6395 5.23173 7.338 5.56498 7.345 5.95623C7.35175 6.31273 7.6545 6.64773 7.9715 6.64823C7.9535 6.62948 7.93525 6.61073 7.9085 6.58223ZM8.7695 6.24173L8.75825 6.26848C8.795 6.32123 9.3965 6.55223 9.534 6.55848C9.27883 6.45298 9.024 6.3474 8.7695 6.24173ZM8.0955 7.52673L8.10675 7.52773C8.1205 7.26823 8.134 7.00823 8.14375 6.74873C8.145 6.73198 8.124 6.71373 8.11275 6.69598C8.10692 6.69898 8.10117 6.70157 8.0955 6.70373V7.52673ZM8.094 5.18023C8.14825 5.14298 8.14825 5.14298 8.12925 4.76748C8.1225 4.62848 8.113 4.48898 8.1045 4.34948L8.094 4.35048V5.18023ZM8.64625 4.50673C8.64146 4.50375 8.63634 4.50132 8.631 4.49948C8.608 4.54565 8.58533 4.59215 8.563 4.63898C8.48725 4.79798 8.4105 4.95548 8.33725 5.11548C8.3205 5.14973 8.293 5.19073 8.353 5.23348C8.453 4.98698 8.54925 4.74623 8.64625 4.50673ZM8.05075 6.68498C7.99475 6.74073 8.006 7.34873 8.05075 7.52673V6.68498ZM8.827 5.89398C8.83 5.90182 8.83333 5.90982 8.837 5.91798H9.65425C9.40317 5.89277 9.15139 5.87501 8.89925 5.86473C8.87575 5.86348 8.8515 5.88423 8.828 5.89398M9.66325 5.96573H8.835L8.8355 6.00523C9.1115 6.01098 9.387 5.98098 9.66325 5.96573ZM6.487 5.94773C6.487 5.95507 6.48675 5.96232 6.48625 5.96948C6.60725 5.97623 6.7285 5.98423 6.85025 5.99048C6.98025 5.99773 7.11025 6.00623 7.2405 6.00948C7.2625 6.00998 7.28525 5.98823 7.3075 5.97673C7.2875 5.96723 7.267 5.94998 7.2475 5.94948C6.994 5.94723 6.74075 5.94773 6.487 5.94773ZM8.05125 4.34873L8.04125 4.35098C8.02725 4.60348 8.01392 4.85598 8.00125 5.10848C8.00075 5.13073 8.0195 5.15498 8.029 5.17848C8.0363 5.17572 8.04372 5.1733 8.05125 5.17123V4.34823M6.514 5.90723H7.3235C7.262 5.85923 6.64425 5.87473 6.514 5.90723ZM9.17025 4.81098L9.1595 4.79998C8.97533 4.96865 8.79108 5.13698 8.60675 5.30498C8.59686 5.31293 8.58941 5.3235 8.58525 5.33548C8.5825 5.34798 8.58625 5.36223 8.58725 5.37523C8.6005 5.37223 8.61625 5.37273 8.62525 5.36548C8.64825 5.34648 8.66775 5.32323 8.68875 5.30223C8.84892 5.1384 9.00942 4.97448 9.17025 4.81048M8.22975 5.18498C8.24308 5.18982 8.25608 5.1949 8.26875 5.20023C8.27975 5.17923 8.294 5.15923 8.30025 5.13723C8.32175 5.05073 8.34125 4.96348 8.36175 4.87648C8.36975 4.84273 8.38975 4.80548 8.38225 4.77498C8.34925 4.63648 8.363 4.50173 8.40175 4.36798C8.404 4.35848 8.39175 4.34523 8.3845 4.33023C8.37175 4.39123 8.3585 4.44048 8.35175 4.49073C8.34225 4.55673 8.327 4.62498 8.334 4.68973C8.3445 4.78298 8.33225 4.86673 8.29675 4.95273C8.26625 5.02648 8.25125 5.10648 8.22975 5.18498ZM7.82425 6.65173C7.81304 6.65027 7.80178 6.64919 7.7905 6.64848L7.5145 7.33623C7.51975 7.33823 7.5255 7.34148 7.53175 7.34348C7.62925 7.13823 7.7275 6.93273 7.823 6.72573C7.83275 6.70598 7.82425 6.67673 7.82425 6.65173ZM7.16975 7.27423V7.29973C7.1915 7.29173 7.223 7.29123 7.23475 7.27548C7.28675 7.20698 7.34575 7.13848 7.3795 7.06073C7.42675 6.95323 7.47475 6.85223 7.57025 6.77723C7.61075 6.74523 7.64325 6.70148 7.67425 6.65973C7.686 6.64323 7.68275 6.61548 7.686 6.59348C7.61375 6.65723 7.55325 6.72098 7.5025 6.79098C7.4575 6.85248 7.40525 6.91673 7.38875 6.98723C7.362 7.10298 7.27875 7.17673 7.21675 7.26673C7.2105 7.27523 7.18625 7.27273 7.16975 7.27423ZM6.97775 4.79573L6.9645 4.81123C7.025 4.86848 7.086 4.92598 7.145 4.98423C7.26675 5.10473 7.38675 5.22648 7.5095 5.34598C7.522 5.35798 7.54525 5.35923 7.56375 5.36548C7.5575 5.34648 7.55575 5.32423 7.54525 5.30798C7.5325 5.28923 7.5125 5.27648 7.4965 5.26098C7.35869 5.136 7.22053 5.01142 7.082 4.88723C7.048 4.85707 7.01325 4.82657 6.97775 4.79573ZM9.1695 7.07823C9.17426 7.07351 9.17853 7.06832 9.18225 7.06273C9.00342 6.88407 8.82375 6.70557 8.64325 6.52723C8.6295 6.51298 8.60325 6.51148 8.58375 6.50448C8.591 6.52623 8.59325 6.55348 8.6085 6.56823C8.6745 6.63323 8.744 6.69523 8.81225 6.75748C8.9315 6.86573 9.051 6.97148 9.1695 7.07823ZM6.95025 4.85698L6.947 4.85873L7.072 4.99773C7.1915 5.12923 7.31025 5.26223 7.4315 5.39198C7.449 5.41048 7.4785 5.41748 7.50225 5.42998L7.509 5.41098C7.323 5.22598 7.136 5.04123 6.95025 4.85698ZM6.62475 5.31873C6.8745 5.42073 7.124 5.52323 7.3895 5.63248C7.36 5.55523 6.824 5.34123 6.62475 5.31873ZM8.63225 5.41398C8.64175 5.42398 8.65175 5.43398 8.66225 5.44398C8.85975 5.25498 9.0305 5.04073 9.21725 4.84173C9.22242 4.8464 9.22725 4.85132 9.23175 4.85648C9.03125 5.04223 8.83225 5.22748 8.63225 5.41398ZM8.81 5.73723C8.81367 5.74407 8.817 5.7509 8.82 5.75773C8.91425 5.75148 9.00925 5.75148 9.10225 5.73723C9.17175 5.72723 9.23925 5.69998 9.3075 5.67898C9.37175 5.65948 9.434 5.63673 9.49825 5.61848C9.536 5.60798 9.57575 5.60398 9.61525 5.59798C9.61208 5.58682 9.60925 5.57573 9.60675 5.56473C9.52875 5.58473 9.44625 5.59473 9.3735 5.62573C9.2635 5.67348 9.155 5.71273 9.03225 5.69773C8.98969 5.69238 8.94659 5.69314 8.90425 5.69998C8.87175 5.70523 8.84125 5.72398 8.81 5.73723ZM8.45125 5.27298L8.4805 5.28723C8.5095 5.24848 8.53375 5.20423 8.5685 5.17048C8.67775 5.06598 8.755 4.94923 8.796 4.79873C8.82025 4.71273 8.8875 4.63123 8.97675 4.57923C8.95125 4.58298 8.91825 4.58698 8.9045 4.60598C8.85525 4.67073 8.8025 4.73623 8.77025 4.81048C8.7245 4.91498 8.6815 5.01748 8.58625 5.08898C8.5526 5.1156 8.52252 5.14644 8.49675 5.18073C8.47675 5.20773 8.46575 5.24198 8.45125 5.27298ZM7.455 4.48723C7.44994 4.48976 7.44467 4.49185 7.43925 4.49348C7.52575 4.73373 7.6115 4.97373 7.7005 5.21273C7.70625 5.22848 7.73225 5.23648 7.74775 5.24923L7.7645 5.23373L7.455 4.48723ZM7.35325 5.68998C7.35442 5.67915 7.35583 5.66823 7.3575 5.65723C7.12033 5.55973 6.88317 5.46198 6.646 5.36398C6.85525 5.48373 7.0715 5.58748 7.2885 5.68848C7.307 5.69723 7.3315 5.68998 7.35325 5.68998ZM7.45225 7.43473C7.459 7.40648 7.465 7.36998 7.4785 7.33623C7.56225 7.12398 7.648 6.91298 7.733 6.70073C7.74175 6.67748 7.74725 6.65348 7.759 6.61598C7.6755 6.66823 7.43075 7.36273 7.45225 7.43473ZM9.543 5.36573L9.5325 5.34948L8.7885 5.66798C8.795 5.68132 8.80108 5.69498 8.80675 5.70898C9.05675 5.60573 9.29725 5.47873 9.543 5.36573ZM9.5025 6.50548L9.50775 6.49148C9.29308 6.38865 9.07842 6.28673 8.86375 6.18573C8.84325 6.17623 8.8155 6.18398 8.791 6.18398L8.78575 6.20948C9.02475 6.30882 9.26367 6.40748 9.5025 6.50548ZM8.3895 5.23973C8.457 5.21773 8.696 4.59423 8.70275 4.45898L8.3895 5.23973ZM6.637 6.49223C6.64033 6.4979 6.64383 6.50348 6.6475 6.50898C6.8835 6.40815 7.11942 6.30707 7.35525 6.20573C7.34925 6.1934 7.34383 6.18073 7.339 6.16773C7.09825 6.26098 6.87275 6.38848 6.637 6.49223ZM8.843 6.03348L8.84575 6.04623C8.94625 6.08298 9.04525 6.12523 9.148 6.15623C9.19625 6.17048 9.25225 6.17098 9.30275 6.16398C9.44025 6.14623 9.56275 6.18173 9.6855 6.24198C9.671 6.22098 9.6555 6.19473 9.6345 6.18873C9.556 6.16773 9.47425 6.13723 9.39525 6.14098C9.269 6.14598 9.151 6.14048 9.03875 6.07723C9.0008 6.05803 8.96056 6.04375 8.919 6.03473C8.89475 6.02823 8.8685 6.03348 8.843 6.03348ZM9.13175 6.92273C9.13045 6.92545 9.12867 6.9279 9.1265 6.92998C8.9855 6.77523 8.8455 6.61948 8.70325 6.46523C8.6895 6.45023 8.665 6.44623 8.6455 6.43673C8.644 6.44123 8.64225 6.44398 8.64125 6.44798C8.804 6.60648 8.9685 6.76473 9.13175 6.92273ZM9.50275 6.19398C9.378 6.19398 9.26325 6.20723 9.15275 6.18973C9.04125 6.17248 8.94325 6.08748 8.8105 6.10798C8.82125 6.12873 8.82625 6.15073 8.8345 6.15123C9.052 6.17298 9.2595 6.29998 9.50275 6.19398ZM7.3235 5.77923L7.339 5.74373C7.31275 5.73098 7.288 5.71423 7.26 5.70723C7.19725 5.69248 7.128 5.69523 7.07 5.66998C6.94175 5.61298 6.82 5.63623 6.69125 5.68498C6.91975 5.59998 7.111 5.75923 7.3235 5.77923ZM7.27625 4.73398C7.27008 4.73832 7.26433 4.74273 7.259 4.74723C7.3 4.78923 7.336 4.83648 7.38225 4.87148C7.451 4.92198 7.4975 4.98448 7.53025 5.06448C7.556 5.12873 7.59125 5.18973 7.627 5.24923C7.6365 5.26473 7.665 5.26823 7.6845 5.27648C7.6795 5.25448 7.6805 5.22773 7.669 5.21123C7.5475 5.04423 7.4615 4.84873 7.27625 4.73398ZM7.90375 6.67648C7.81475 6.72748 7.76 7.14548 7.81625 7.31623C7.821 7.21148 7.80675 7.10273 7.8245 7.00073C7.84425 6.89473 7.9175 6.80123 7.90375 6.67648ZM8.705 6.36748C8.69567 6.37832 8.68642 6.38957 8.67725 6.40123C8.763 6.46698 8.844 6.54173 8.93675 6.59698C9.03325 6.65473 9.141 6.69398 9.24425 6.74123L9.258 6.71123C9.222 6.69548 9.1885 6.67123 9.1515 6.66423C9.0425 6.64473 8.95925 6.58773 8.884 6.50848C8.833 6.45398 8.76575 6.41348 8.705 6.36748ZM8.365 7.35573C8.356 7.32073 8.3555 7.26723 8.32975 7.23148C8.2485 7.11823 8.236 6.99298 8.23975 6.85923C8.24075 6.80273 8.22075 6.74648 8.2075 6.67398C8.18275 6.69823 8.16925 6.70548 8.17025 6.71048C8.2175 6.93373 8.20025 7.17548 8.365 7.35573ZM7.81275 7.50398C7.82008 7.50515 7.82725 7.50673 7.83425 7.50873C7.8485 7.42998 7.87975 7.35023 7.87325 7.27348C7.8605 7.13098 7.87525 6.99973 7.94425 6.87373C7.9605 6.84373 7.97 6.80798 7.97675 6.77448C7.98125 6.75173 7.97375 6.72648 7.972 6.70223C7.921 6.82223 7.85725 6.93923 7.851 7.05998C7.84325 7.20573 7.85475 7.35198 7.80625 7.49423C7.8055 7.49598 7.811 7.50098 7.81275 7.50398ZM7.78475 4.50873C7.79325 4.54248 7.79325 4.60073 7.82125 4.64023C7.90075 4.75498 7.9135 4.88023 7.91 5.01348C7.909 5.06998 7.929 5.12598 7.93975 5.18198C7.95025 5.18498 7.96017 5.18757 7.9695 5.18973C7.974 5.18048 7.98125 5.17048 7.9795 5.16198C7.93575 4.93298 7.939 4.69048 7.78475 4.50873ZM6.89375 5.16573C6.9375 5.18148 6.98325 5.19348 7.02475 5.21423C7.0965 5.25098 7.1675 5.28948 7.235 5.33448C7.29225 5.37348 7.3415 5.42498 7.397 5.46723C7.41225 5.47823 7.43975 5.47498 7.46125 5.47823C7.447 5.45773 7.437 5.43248 7.418 5.41898C7.38175 5.39298 7.33275 5.38098 7.30375 5.34998C7.193 5.23248 7.05825 5.16673 6.89375 5.16573ZM8.8295 5.80523L8.83725 5.84223C9.06525 5.79773 9.307 5.80898 9.49875 5.64473C9.45775 5.65623 9.4035 5.66048 9.365 5.68673C9.2625 5.75948 9.15175 5.77623 9.03025 5.77423C8.96325 5.77298 8.89575 5.79398 8.8295 5.80523ZM8.513 5.30998C8.52525 5.31898 8.5385 5.32723 8.54975 5.33623C8.644 5.13873 8.863 5.01298 8.853 4.74948C8.83575 4.78998 8.8115 4.82398 8.80575 4.86123C8.7875 4.97423 8.727 5.05798 8.64625 5.13548C8.594 5.18573 8.55675 5.25173 8.513 5.30998ZM6.6585 6.22398C6.68925 6.21498 6.7385 6.21298 6.77275 6.18923C6.87925 6.11498 6.994 6.09373 7.121 6.09748C7.18575 6.09973 7.252 6.07598 7.31775 6.06373C7.314 6.05173 7.31225 6.04048 7.309 6.02848C7.0835 6.07923 6.83975 6.05923 6.6585 6.22398ZM7.633 6.56148L7.59575 6.53723C7.50575 6.73473 7.28625 6.85948 7.29625 7.12223C7.313 7.08448 7.33525 7.05448 7.3405 7.02223C7.35825 6.89923 7.42575 6.80823 7.513 6.72448C7.5615 6.67798 7.5935 6.61648 7.633 6.56148ZM7.6005 5.33098C7.608 5.32532 7.61558 5.31923 7.62325 5.31273C7.503 5.18848 7.5175 4.97723 7.347 4.89148C7.3875 4.96023 7.434 5.03248 7.474 5.10773C7.49975 5.15598 7.51325 5.21048 7.53875 5.25873C7.5525 5.28623 7.579 5.30723 7.6005 5.33098ZM8.1575 5.16623C8.17025 5.17023 8.18375 5.17298 8.1975 5.17748C8.20025 5.00723 8.349 4.86948 8.30225 4.70998C8.2735 4.79373 8.238 4.89398 8.20575 4.99473C8.1875 5.05098 8.17375 5.10873 8.1575 5.16623ZM7.045 6.64473C7.12625 6.60373 7.212 6.56098 7.2975 6.51723C7.34025 6.49573 7.3835 6.47623 7.4235 6.45023C7.43875 6.44098 7.44625 6.41873 7.45675 6.40248L7.442 6.38823C7.32875 6.50998 7.1275 6.49523 7.04475 6.64473M8.68125 5.45573C8.68858 5.4659 8.69592 5.47573 8.70325 5.48523C8.8155 5.36273 9.015 5.37623 9.09725 5.23848C9.004 5.28173 8.8965 5.32998 8.79175 5.38273C8.75225 5.40198 8.7175 5.43098 8.68125 5.45573ZM8.79 6.97073C8.75 6.90223 8.71025 6.83748 8.67525 6.76948C8.6485 6.71848 8.63225 6.66198 8.606 6.61148C8.59275 6.58673 8.566 6.56873 8.546 6.54773L8.527 6.56348C8.6465 6.67998 8.63225 6.87948 8.79 6.97073ZM7.0105 6.70748C6.912 6.76373 6.83475 6.84048 6.72275 6.84998C6.78825 6.89048 6.91475 6.82898 7.0105 6.70748ZM8.89875 7.04323L8.87925 7.05448C8.91242 7.11198 8.94525 7.1699 8.97775 7.22823C8.9855 7.22298 8.9935 7.21873 9.0015 7.21323C8.967 7.15698 8.933 7.09948 8.89875 7.04323ZM7.17175 4.64023C7.16408 4.64523 7.15633 4.64998 7.1485 4.65448L7.2495 4.82973L7.2695 4.81923L7.17175 4.64023Z" fill="#7B4022"/>
<path fill-rule="evenodd" clip-rule="evenodd" d="M7.90807 6.58238C7.93482 6.61088 7.95307 6.62963 7.97082 6.64838C7.65382 6.64788 7.35107 6.31288 7.34432 5.95638C7.33757 5.56538 7.63907 5.23213 8.01707 5.21288C8.42507 5.19338 8.76407 5.48463 8.79457 5.88113C8.82257 6.24813 8.54607 6.61038 8.20457 6.64338C8.21557 6.62338 8.22382 6.60613 8.23507 6.58463C8.08682 6.63838 8.08682 6.63838 7.90807 6.58238ZM8.21307 6.01488C8.2104 6.02238 8.2074 6.02996 8.20407 6.03763C8.21032 6.04088 8.21807 6.04338 8.22207 6.04813C8.23757 6.06646 8.25274 6.08513 8.26757 6.10413C8.24532 6.10838 8.22207 6.11413 8.19907 6.11738C8.18632 6.11938 8.16757 6.11213 8.16032 6.11838C8.09332 6.17988 8.03332 6.15988 7.97232 6.12313C7.94232 6.11896 7.91232 6.11438 7.88232 6.10938L7.93932 6.01688C7.90982 6.02513 7.87482 6.02588 7.85707 6.04313C7.84132 6.05788 7.83282 6.09888 7.84282 6.11563C7.85657 6.13938 7.88807 6.15663 7.91557 6.16738C7.93607 6.17513 7.96082 6.16888 7.98382 6.16888L7.98857 6.18988C7.96032 6.19838 7.93132 6.21488 7.90332 6.21363C7.86107 6.21213 7.82057 6.21363 7.82057 6.26363C7.82107 6.30588 7.85182 6.33413 7.90107 6.33413C8.01757 6.33313 8.13407 6.33363 8.25007 6.33313C8.25957 6.33313 8.27382 6.33463 8.27907 6.32888C8.29732 6.30613 8.31957 6.28238 8.32682 6.25613C8.32857 6.24663 8.29207 6.22013 8.26982 6.21338C8.23032 6.20238 8.18882 6.19963 8.14832 6.19413L8.14882 6.17288C8.17332 6.17088 8.19882 6.17363 8.22207 6.16688C8.25032 6.15788 8.28732 6.14738 8.30207 6.12563C8.31357 6.10688 8.30882 6.06313 8.29357 6.04463C8.27707 6.02538 8.24107 6.02388 8.21307 6.01488ZM7.63707 5.65013C7.87032 5.58513 7.96532 5.60013 7.97407 5.70338C7.85357 5.65338 7.73832 5.63563 7.63357 5.74588C7.73982 5.85463 7.85757 5.83488 7.97907 5.79538C7.89682 5.87013 7.79882 5.86688 7.69682 5.86138C7.74157 5.88238 7.78882 5.90113 7.83532 5.89963C7.88257 5.89813 7.92907 5.87488 7.98282 5.85963V6.01488C8.02857 5.93863 8.04007 5.70338 8.00432 5.64163C7.99717 5.62829 7.98708 5.61675 7.97482 5.60788C7.89557 5.54413 7.70132 5.54163 7.63707 5.65013ZM8.51257 5.74563C8.40732 5.63413 8.29032 5.65513 8.16107 5.70563C8.18257 5.60763 8.25682 5.61138 8.31482 5.61088C8.37632 5.61088 8.43782 5.63138 8.51657 5.64638C8.43257 5.56463 8.34957 5.54988 8.25582 5.57138C8.15932 5.59363 8.12532 5.62938 8.12307 5.72563C8.12107 5.80313 8.12757 5.88163 8.13207 5.95913C8.13332 5.97538 8.14432 5.99188 8.15107 6.00788L8.16782 6.00463V5.85363C8.26732 5.89963 8.35832 5.93063 8.46732 5.84538C8.34732 5.86863 8.24982 5.86863 8.16782 5.79538C8.28932 5.83763 8.40507 5.85313 8.51257 5.74563ZM7.95432 6.46538H8.19657C8.16282 6.44938 8.13782 6.43663 8.11307 6.42438C8.1129 6.41788 8.11249 6.41179 8.11182 6.40613C8.15457 6.40613 8.19657 6.40238 8.23832 6.40663C8.29207 6.41338 8.31032 6.40538 8.32582 6.36238H7.82082C7.84757 6.38288 7.88082 6.39913 7.91507 6.40388C7.95907 6.40913 8.00357 6.40488 8.04782 6.40488C8.04799 6.41138 8.04765 6.41788 8.04682 6.42438C8.01857 6.43663 7.99032 6.44988 7.95482 6.46538M7.36957 6.30988L6.62832 6.57263L6.62207 6.55738C6.87057 6.45138 7.11807 6.34513 7.38507 6.23138C7.37657 6.26913 7.37182 6.29013 7.36832 6.31188L7.36957 6.30988ZM8.76982 6.24238L9.53432 6.55938C9.39682 6.55313 8.79557 6.32213 8.75857 6.26938L8.76982 6.24238ZM8.78732 5.55738L8.72182 5.54638L8.71357 5.51688C8.78507 5.47588 8.85432 5.42638 8.93032 5.39588C9.02032 5.35938 9.08957 5.30713 9.14557 5.22888C9.17582 5.18788 9.22107 5.15688 9.26382 5.12688C9.31415 5.09021 9.37049 5.06004 9.43282 5.03638C9.40557 5.05763 9.38057 5.08238 9.35082 5.09813C9.26907 5.14238 9.21007 5.20488 9.15607 5.28038C9.11907 5.33238 9.05382 5.36513 9.00057 5.40463C8.92957 5.45713 8.85682 5.50888 8.78532 5.56038L8.78732 5.55738Z" fill="#FDD12E"/>
<path fill-rule="evenodd" clip-rule="evenodd" d="M8.7856 5.56004C9.02993 5.47421 9.27444 5.38879 9.5191 5.30379C9.52035 5.30854 9.52285 5.31279 9.5241 5.31754L8.80635 5.62254C8.79535 5.62679 8.7796 5.62179 8.76585 5.62129L8.7881 5.55754L8.7856 5.56004ZM8.09585 7.52754V6.70454C8.10152 6.70221 8.10727 6.69963 8.1131 6.69679C8.12435 6.71454 8.14535 6.73279 8.1441 6.74954C8.13435 7.00904 8.1206 7.26904 8.1071 7.52854L8.09585 7.52754ZM8.09435 5.18104V4.35129L8.10485 4.35029C8.1131 4.48979 8.1226 4.62929 8.1296 4.76829C8.1486 5.14354 8.1486 5.14354 8.09435 5.18104ZM8.6466 4.50754C8.5496 4.74704 8.45335 4.98779 8.35335 5.23404C8.29335 5.19129 8.3206 5.15029 8.3376 5.11604C8.41085 4.95579 8.48785 4.79829 8.56335 4.63954C8.58585 4.59271 8.60852 4.54621 8.63135 4.50004C8.63635 4.50221 8.64144 4.50471 8.6466 4.50754ZM8.0506 6.68579V7.52754C8.00585 7.34954 7.99485 6.74154 8.0506 6.68579ZM8.8281 5.89479C8.85185 5.88504 8.87585 5.86429 8.8991 5.86554C9.1516 5.87704 9.4041 5.89179 9.6541 5.91879H8.83685L8.8271 5.89479M9.6626 5.96654C9.38635 5.98179 9.11085 6.01179 8.83485 6.00604L8.83435 5.96654H9.6626ZM6.48635 5.94854C6.7401 5.94854 6.9931 5.94804 7.2466 5.95029C7.2661 5.95079 7.2866 5.96804 7.3066 5.97754C7.28435 5.98904 7.2616 6.01079 7.2396 6.01029C7.10935 6.00704 6.97935 5.99854 6.84935 5.99129C6.7276 5.98504 6.60635 5.97704 6.48535 5.97029C6.48618 5.96313 6.48652 5.95588 6.48635 5.94854ZM8.0506 4.34954V5.17254C8.0431 5.17471 8.03569 5.17713 8.02835 5.17979C8.01885 5.15604 8.0001 5.13204 8.0006 5.10979C8.0131 4.85646 8.02644 4.60396 8.0406 4.35229L8.0506 4.35004M6.5131 5.90854C6.64335 5.87604 7.2611 5.86079 7.3226 5.90854H6.5131ZM9.1696 4.81254C9.00877 4.97654 8.84827 5.14054 8.6881 5.30454C8.6671 5.32554 8.6476 5.34879 8.6246 5.36779C8.6156 5.37504 8.5996 5.37454 8.5866 5.37754C8.5856 5.36454 8.58185 5.35029 8.5846 5.33779C8.58876 5.32581 8.59621 5.31524 8.6061 5.30729C8.79044 5.13863 8.97468 4.97029 9.15885 4.80229L9.1696 4.81304M8.3206 6.74829V6.65404C8.3306 6.65221 8.3406 6.65079 8.3506 6.64979L8.66185 7.39904C8.6561 7.40104 8.65085 7.40429 8.6456 7.40629C8.5961 7.30429 8.5481 7.20154 8.4981 7.09979C8.4391 6.98079 8.37885 6.86354 8.3191 6.74554L8.3206 6.74829ZM6.96685 7.10054C6.9786 7.07954 6.98585 7.05479 7.00185 7.03854C7.16385 6.87054 7.32685 6.70304 7.49085 6.53854C7.5076 6.52179 7.5381 6.51854 7.5626 6.50804C7.55135 6.53329 7.54685 6.56504 7.52885 6.58154C7.35185 6.74429 7.17235 6.90554 6.9941 7.06704C6.9831 7.07654 6.97585 7.08904 6.96685 7.10054V7.10129ZM8.2291 5.18679C8.2506 5.10829 8.2656 5.02829 8.2961 4.95404C8.33185 4.86804 8.34385 4.78429 8.33335 4.69104C8.3266 4.62629 8.3416 4.55804 8.3511 4.49204C8.35785 4.44204 8.3711 4.39279 8.38385 4.33154C8.3911 4.34679 8.40335 4.35979 8.4011 4.36929C8.36235 4.50304 8.3486 4.63779 8.3816 4.77629C8.3891 4.80679 8.3691 4.84404 8.3611 4.87779C8.3406 4.96479 8.3211 5.05204 8.2996 5.13854C8.29335 5.16054 8.2791 5.18054 8.2681 5.20154L8.2291 5.18679ZM7.8256 5.12954V5.21879L7.7956 5.22504C7.69644 4.98588 7.5971 4.74688 7.4976 4.50804C7.50301 4.50493 7.50871 4.50234 7.5146 4.50029C7.5616 4.59704 7.6071 4.69504 7.65535 4.79179C7.7116 4.90554 7.7696 5.01879 7.82685 5.13129L7.8256 5.12954Z" fill="#FDD12E"/>
<path fill-rule="evenodd" clip-rule="evenodd" d="M6.96677 7.09998C6.95077 7.09748 6.93436 7.09539 6.91752 7.09372C6.93077 7.00722 7.43702 6.45497 7.51927 6.44872C7.48977 6.48372 7.46827 6.51197 7.44327 6.53722L6.97902 7.00997C6.95352 7.03622 6.91577 7.06272 6.96677 7.10047V7.09998ZM7.82302 6.65347C7.82302 6.67847 7.83152 6.70772 7.82202 6.72772C7.72652 6.93472 7.62827 7.13997 7.53077 7.34547L7.51352 7.33822C7.60519 7.10906 7.69719 6.87981 7.78952 6.65048C7.80052 6.65098 7.81169 6.65197 7.82302 6.65347ZM7.16902 7.27497C7.18552 7.27347 7.20977 7.27622 7.21602 7.26772C7.27777 7.17772 7.36102 7.10397 7.38802 6.98822C7.40452 6.91772 7.45677 6.85347 7.50177 6.79197C7.55252 6.72197 7.61302 6.65822 7.68527 6.59447C7.68202 6.61647 7.68527 6.64398 7.67352 6.66073C7.64252 6.70248 7.61002 6.74622 7.56952 6.77822C7.47402 6.85322 7.42627 6.95423 7.37877 7.06173C7.34502 7.13973 7.28602 7.20797 7.23402 7.27647C7.22227 7.29222 7.19077 7.29247 7.16902 7.30072V7.27497ZM6.97702 4.79747C7.01236 4.82797 7.04702 4.85847 7.08102 4.88897C7.21952 5.01314 7.35769 5.13772 7.49552 5.26272C7.51152 5.27822 7.53177 5.29072 7.54427 5.30972C7.55477 5.32597 7.55652 5.34822 7.56277 5.36722C7.54427 5.36097 7.52102 5.35972 7.50852 5.34772C7.38577 5.22797 7.26577 5.10647 7.14402 4.98597C7.08458 4.92756 7.02441 4.86989 6.96352 4.81297C6.96802 4.80747 6.97327 4.80247 6.97702 4.79747ZM9.16877 7.07997C9.05027 6.97297 8.93077 6.86722 8.81127 6.75947C8.74302 6.69722 8.67327 6.63522 8.60752 6.57022C8.59227 6.55547 8.59027 6.52822 8.58277 6.50647C8.60227 6.51322 8.62877 6.51497 8.64227 6.52922C8.82294 6.70756 9.00261 6.88606 9.18127 7.06472C9.17762 7.07021 9.17343 7.07532 9.16877 7.07997ZM6.94952 4.85872L7.50827 5.41272C7.50577 5.41906 7.50352 5.42539 7.50152 5.43172C7.47752 5.41897 7.44827 5.41222 7.43077 5.39372C7.30977 5.26372 7.19077 5.13097 7.07127 4.99947C7.02902 4.95297 6.98802 4.90672 6.94627 4.86047L6.94952 4.85872ZM6.62402 5.31997C6.82327 5.34247 7.35902 5.55622 7.38877 5.63372C7.12327 5.52472 6.87377 5.42197 6.62402 5.31997ZM8.63077 5.41572L9.23002 4.85822L9.21552 4.84347C9.02877 5.04247 8.85802 5.25672 8.66052 5.44572L8.63077 5.41572ZM8.80802 5.73897C8.83927 5.72572 8.86952 5.70697 8.90227 5.70172C8.94467 5.69549 8.98769 5.69474 9.03027 5.69947C9.15302 5.71447 9.26152 5.67522 9.37152 5.62747C9.44427 5.59647 9.52677 5.58647 9.60477 5.56647L9.61327 5.59972C9.57377 5.60572 9.53427 5.60972 9.49627 5.62022C9.43202 5.63847 9.36977 5.66122 9.30552 5.68072C9.23727 5.70172 9.16977 5.72897 9.10027 5.73897C9.00727 5.75322 8.91227 5.75322 8.81802 5.75947C8.815 5.75249 8.81167 5.74565 8.80802 5.73897ZM8.44977 5.27497C8.46452 5.24397 8.47552 5.20972 8.49502 5.18297C8.52077 5.14847 8.55152 5.11647 8.58452 5.09122C8.67977 5.01972 8.72302 4.91722 8.76852 4.81272C8.80077 4.73847 8.85352 4.67272 8.90277 4.60822C8.91652 4.58922 8.94977 4.58497 8.97502 4.58147C8.88602 4.63347 8.81852 4.71497 8.79427 4.80097C8.75327 4.95172 8.67577 5.06822 8.56677 5.17272C8.53202 5.20647 8.50802 5.25072 8.47877 5.28947C8.46927 5.28433 8.45959 5.27949 8.44977 5.27497ZM7.45352 4.48897L7.76302 5.23547L7.74627 5.25097C7.73052 5.23822 7.70477 5.23047 7.69902 5.21447C7.61027 4.97547 7.52427 4.73547 7.43777 4.49522C7.44319 4.49359 7.44846 4.4915 7.45352 4.48897ZM7.35177 5.69172C7.33002 5.69172 7.30527 5.69897 7.28702 5.69022C7.07002 5.58922 6.85377 5.48547 6.64452 5.36572C6.88152 5.46372 7.11869 5.56147 7.35602 5.65897C7.35436 5.66997 7.35294 5.68089 7.35177 5.69172ZM7.45077 7.43647C7.42927 7.36447 7.67427 6.66997 7.75752 6.61797C7.74577 6.65522 7.74052 6.67947 7.73152 6.70272C7.64652 6.91497 7.56077 7.12597 7.47702 7.33822C7.46352 7.37172 7.45752 7.40822 7.45077 7.43647ZM9.54052 5.36747C9.29477 5.48047 9.05477 5.60747 8.80452 5.71072C8.79886 5.69672 8.79277 5.68306 8.78627 5.66972C9.03477 5.56322 9.28202 5.45722 9.53027 5.35122L9.54052 5.36747ZM7.82802 5.13122C7.84352 4.95597 7.84602 4.78472 7.75552 4.62122C7.72177 4.55847 7.72177 4.47747 7.70177 4.38647C7.73077 4.40322 7.73827 4.40472 7.73827 4.40747C7.75027 4.54272 7.77977 4.67247 7.85502 4.79022C7.87452 4.82072 7.87352 4.86722 7.87452 4.90647C7.87677 5.00097 7.87502 5.09572 7.87502 5.18997L7.82802 5.13122ZM8.32052 6.74573C8.30502 6.91823 8.29777 7.08947 8.39102 7.24822C8.43152 7.31647 8.44202 7.39623 8.42977 7.46298C8.38152 7.32773 8.31777 7.18847 8.28352 7.04172C8.25727 6.92747 8.26727 6.80522 8.26027 6.66722L8.32127 6.74773C8.32202 6.74848 8.32052 6.74573 8.32052 6.74573ZM8.44702 6.64197L8.69277 7.34123L8.67702 7.34648C8.57919 7.10948 8.48111 6.87272 8.38277 6.63622C8.38827 6.63189 8.39377 6.62781 8.39927 6.62397C8.41577 6.63064 8.43211 6.63756 8.44827 6.64472L8.44702 6.64197ZM9.50052 6.50747C9.26169 6.40931 9.02286 6.31064 8.78402 6.21147L8.78927 6.18597C8.81377 6.18597 8.84152 6.17822 8.86202 6.18772C9.07677 6.28822 9.29127 6.39097 9.50602 6.49347L9.50052 6.50747ZM8.38802 5.24147L8.70127 4.46072C8.69427 4.59597 8.45527 5.21947 8.38802 5.24147Z" fill="#FDD12E"/>
<path fill-rule="evenodd" clip-rule="evenodd" d="M8.44849 6.64471C8.45524 6.62521 8.46124 6.60521 8.47124 6.57396C8.57324 6.65896 8.58924 6.77821 8.64974 6.86896C8.70849 6.95796 8.79724 7.02871 8.86774 7.11121C8.76824 7.03921 8.65474 6.98821 8.60124 6.86121C8.56749 6.78071 8.49974 6.71521 8.44724 6.64321L8.44849 6.64521M6.63574 6.49421C6.87149 6.39046 7.09699 6.26296 7.33774 6.16971C7.34274 6.18305 7.34816 6.19571 7.35399 6.20771C7.11799 6.30905 6.88208 6.41013 6.64624 6.51096L6.63574 6.49421ZM8.84299 6.03496C8.86849 6.03496 8.89474 6.02971 8.91899 6.03621C8.95999 6.04621 9.00149 6.05871 9.03874 6.07871C9.15099 6.14196 9.26899 6.14721 9.39524 6.14246C9.47424 6.13871 9.55599 6.16921 9.63449 6.19021C9.65549 6.19596 9.67099 6.22246 9.68549 6.24346C9.56274 6.18346 9.44024 6.14771 9.30274 6.16546C9.25115 6.17299 9.19858 6.17036 9.14799 6.15771C9.04524 6.12671 8.94624 6.08446 8.84574 6.04771L8.84299 6.03496ZM9.13049 6.92471C8.96749 6.76671 8.80274 6.60821 8.63974 6.44996C8.64074 6.44596 8.64249 6.44321 8.64399 6.43871C8.66349 6.44821 8.68824 6.45246 8.70174 6.46721C8.84399 6.62146 8.98399 6.77721 9.12499 6.93196C9.12725 6.9299 9.12912 6.92744 9.13049 6.92471Z" fill="#FDD12E"/>
<path fill-rule="evenodd" clip-rule="evenodd" d="M9.50018 6.19608C9.25693 6.30208 9.04943 6.17508 8.83168 6.15333C8.82368 6.15283 8.81843 6.13083 8.80768 6.11008C8.94043 6.08958 9.03843 6.17458 9.14993 6.19183C9.26068 6.20933 9.37543 6.19608 9.50018 6.19608ZM7.32268 5.78258C7.10993 5.76258 6.91893 5.60333 6.69043 5.68833C6.81793 5.63983 6.94043 5.61658 7.06918 5.67333C7.12693 5.69883 7.19643 5.69608 7.25918 5.71058C7.28718 5.71733 7.31193 5.73433 7.33818 5.74708C7.33268 5.75892 7.32751 5.77075 7.32268 5.78258ZM7.36843 6.31258C7.38693 6.31983 7.40568 6.32783 7.43168 6.33833C7.34993 6.43108 7.24043 6.45483 7.15168 6.51058C7.06618 6.56383 7.00043 6.64683 6.92193 6.71333C6.97568 6.61333 7.03393 6.52258 7.14718 6.47008C7.22818 6.43208 7.29568 6.36458 7.36993 6.31033L7.36843 6.31258ZM7.27518 4.73608C7.46043 4.85083 7.54643 5.04608 7.66793 5.21358C7.67943 5.22983 7.67843 5.25683 7.68343 5.27883C7.66393 5.27058 7.63543 5.26683 7.62593 5.25158C7.58859 5.1928 7.55623 5.131 7.52918 5.06683C7.4997 4.98946 7.44826 4.92238 7.38118 4.87383C7.33468 4.83883 7.29893 4.79158 7.25793 4.74958L7.27518 4.73608ZM7.90218 6.67858C7.91593 6.80333 7.84268 6.89683 7.82318 7.00283C7.80543 7.10483 7.81943 7.21358 7.81493 7.31833C7.75843 7.14758 7.81318 6.72958 7.90218 6.67858ZM8.70343 6.36958C8.76393 6.41583 8.83143 6.45633 8.88243 6.51058C8.95793 6.58983 9.04118 6.64683 9.14993 6.66633C9.18668 6.67308 9.22043 6.69733 9.25643 6.71333L9.24268 6.74333C9.13943 6.69608 9.03143 6.65683 8.93518 6.59908C8.84243 6.54358 8.76143 6.46883 8.67568 6.40333C8.68485 6.3915 8.6941 6.38025 8.70343 6.36958ZM8.36343 7.35783C8.19868 7.17758 8.21593 6.93583 8.16868 6.71233C8.16768 6.70733 8.18143 6.70008 8.20593 6.67583C8.21918 6.74833 8.23918 6.80483 8.23818 6.86108C8.23443 6.99483 8.24693 7.12008 8.32818 7.23333C8.35393 7.26908 8.35443 7.32283 8.36343 7.35783Z" fill="#FDD12E"/>
<path fill-rule="evenodd" clip-rule="evenodd" d="M7.81014 7.50501C7.80839 7.50176 7.80289 7.49701 7.80389 7.49501C7.85214 7.35276 7.84064 7.20651 7.84864 7.06076C7.85489 6.94026 7.91864 6.82326 7.96964 6.70301C7.97139 6.72726 7.97864 6.75251 7.97439 6.77526C7.96858 6.80978 7.95763 6.84324 7.94189 6.87451C7.87289 7.00051 7.85814 7.13151 7.87089 7.27426C7.87714 7.35126 7.84589 7.43076 7.83189 7.50951C7.82472 7.50784 7.81747 7.50634 7.81014 7.50501ZM7.78264 4.51001C7.93689 4.69176 7.93364 4.93426 7.97739 5.16326C7.97914 5.17176 7.97189 5.18176 7.96739 5.19101L7.93764 5.18326C7.92689 5.12726 7.90689 5.07126 7.90789 5.01476C7.91139 4.88151 7.89864 4.75626 7.81914 4.64151C7.79114 4.60201 7.79114 4.54376 7.78264 4.51001ZM6.89214 5.16776C7.05639 5.16876 7.19114 5.23476 7.30239 5.35201C7.33139 5.38301 7.38064 5.39526 7.41664 5.42101C7.43564 5.43476 7.44564 5.45976 7.45989 5.48026C7.43839 5.47701 7.41089 5.48026 7.39564 5.46926C7.33989 5.42701 7.29089 5.37551 7.23364 5.33651C7.16605 5.29222 7.09584 5.25206 7.02339 5.21626C6.98189 5.19551 6.93589 5.18351 6.89214 5.16776ZM6.80764 6.22776C6.86364 6.19751 6.91514 6.15001 6.97414 6.14026C7.08889 6.12126 7.20739 6.12326 7.33789 6.11576C7.32239 6.13426 7.31364 6.15426 7.30064 6.15801C7.26247 6.17013 7.22269 6.17645 7.18264 6.17676C7.05389 6.17001 6.92764 6.17676 6.80664 6.22576L6.80764 6.22776ZM8.82764 5.80751C8.89414 5.79601 8.96139 5.77501 9.02839 5.77651C9.14989 5.77876 9.26064 5.76176 9.36314 5.68901C9.40164 5.66276 9.45589 5.65851 9.49689 5.64701C9.30514 5.81126 9.06364 5.80001 8.83539 5.84451C8.83256 5.83234 8.82997 5.82001 8.82764 5.80751ZM8.51264 5.31251C8.55639 5.25426 8.59364 5.18826 8.64589 5.13826C8.72639 5.06076 8.78689 4.97701 8.80539 4.86401C8.81114 4.82676 8.83539 4.79276 8.85264 4.75226C8.86264 5.01576 8.64364 5.14151 8.54939 5.33901C8.53789 5.32976 8.52489 5.32151 8.51264 5.31251Z" fill="#FDD12E"/>
<path fill-rule="evenodd" clip-rule="evenodd" d="M6.65723 6.22592C6.83848 6.06117 7.08223 6.08117 7.30773 6.03067C7.31098 6.04267 7.31298 6.05392 7.31648 6.06592C7.25073 6.07817 7.18448 6.10192 7.11973 6.09967C6.99273 6.09592 6.87798 6.11717 6.77148 6.19142C6.73723 6.21492 6.68798 6.21692 6.65723 6.22592ZM7.63173 6.56242C7.59223 6.61742 7.56023 6.67892 7.51173 6.72517C7.42423 6.80892 7.35698 6.89992 7.33923 7.02292C7.33398 7.05517 7.31198 7.08517 7.29498 7.12292C7.28498 6.86017 7.50448 6.73542 7.59448 6.53792C7.60748 6.54625 7.61989 6.55442 7.63173 6.56242ZM6.98048 5.23617C7.08923 5.25942 7.17648 5.31442 7.25023 5.39867C7.29723 5.45192 7.36023 5.49192 7.41123 5.55167C7.38648 5.54567 7.35773 5.54392 7.33823 5.52967C7.29998 5.50192 7.26873 5.46492 7.23173 5.43542C7.16023 5.37892 7.08598 5.32592 7.01373 5.27067C7.00173 5.26067 6.99173 5.24742 6.98173 5.23517L6.98048 5.23617ZM9.18673 6.63442C9.08362 6.62579 8.98802 6.57704 8.92048 6.49867C8.86398 6.43717 8.79448 6.38817 8.73823 6.31617C8.76673 6.32892 8.79823 6.33667 8.82248 6.35442C8.85623 6.37992 8.89098 6.40767 8.91473 6.44242C8.98223 6.54042 9.08898 6.58042 9.18473 6.63617L9.18673 6.63442ZM7.59923 5.33292C7.57773 5.30917 7.55148 5.28817 7.53723 5.26092C7.51173 5.21267 7.49823 5.15817 7.47248 5.10992C7.43248 5.03467 7.38598 4.96242 7.34548 4.89367C7.51623 4.97942 7.50148 5.19067 7.62173 5.31492L7.59923 5.33292ZM8.15623 5.16817C8.17248 5.11092 8.18623 5.05292 8.20448 4.99642C8.23673 4.89592 8.27223 4.79542 8.30098 4.71167C8.34798 4.87117 8.19898 5.00892 8.19623 5.17917C8.18256 5.17517 8.16923 5.1715 8.15623 5.16817ZM7.04298 6.64667C7.12573 6.49717 7.32698 6.51192 7.44023 6.39042L7.45498 6.40467C7.44448 6.42092 7.43698 6.44317 7.42173 6.45242C7.38173 6.47842 7.33848 6.49792 7.29573 6.51942C7.20998 6.56292 7.12398 6.60567 7.04298 6.64667ZM6.80298 5.73617C6.86873 5.73092 6.93923 5.71017 7.00073 5.72417C7.10398 5.74792 7.20248 5.79417 7.30423 5.84367C7.27048 5.84042 7.23473 5.84442 7.20373 5.83317C7.13998 5.81217 7.08048 5.77592 7.01623 5.75992C6.94673 5.74267 6.87373 5.74267 6.80298 5.73617ZM8.68023 5.45767C8.71673 5.43292 8.75123 5.40392 8.79073 5.38467C8.89548 5.33192 9.00298 5.28367 9.09623 5.24042C9.01398 5.37842 8.81448 5.36467 8.70223 5.48717L8.68023 5.45767ZM8.78798 6.97217C8.63023 6.88117 8.64448 6.68142 8.52473 6.56517L8.54373 6.54942C8.56373 6.57042 8.59073 6.58842 8.60373 6.61317C8.62998 6.66367 8.64623 6.72017 8.67298 6.77117C8.70823 6.83867 8.74798 6.90342 8.78798 6.97217Z" fill="#FDD12E"/>
<path fill-rule="evenodd" clip-rule="evenodd" d="M6.98159 5.2356C6.87109 5.2511 6.69934 5.1136 6.72159 5.0371C6.78409 5.12935 6.86959 5.19785 6.97984 5.23685L6.98159 5.2356ZM7.01034 6.7091C6.91459 6.8306 6.78809 6.8921 6.72259 6.8526C6.83459 6.8421 6.91209 6.76535 7.01034 6.7091ZM9.18434 6.63635C9.29484 6.6491 9.37009 6.71285 9.42659 6.8026C9.43334 6.8121 9.42884 6.82935 9.41834 6.8421C9.40984 6.8226 9.40609 6.7956 9.39159 6.78485C9.32509 6.73235 9.25559 6.68435 9.18734 6.6346L9.18434 6.63635ZM6.80784 6.2261C6.72784 6.2926 6.63409 6.29885 6.53784 6.29435L6.53409 6.2756L6.80884 6.22785L6.80784 6.2261ZM6.80284 5.73635C6.69734 5.74535 6.59434 5.74135 6.50684 5.66585C6.6055 5.68968 6.70417 5.71318 6.80284 5.73635ZM8.89759 7.0451L9.00009 7.21535C8.99234 7.2206 8.98434 7.22485 8.97634 7.23035C8.94385 7.17223 8.91102 7.11431 8.87784 7.0566L8.89759 7.0451ZM7.17059 4.64185L7.26859 4.82085L7.24859 4.83135L7.14759 4.6561L7.17059 4.64185Z" fill="#FDD12E"/>
<path fill-rule="evenodd" clip-rule="evenodd" d="M8.21354 6.01488C8.24154 6.02388 8.27779 6.02563 8.29404 6.04438C8.30954 6.06288 8.31404 6.10663 8.30254 6.12538C8.28754 6.14713 8.25079 6.15763 8.22254 6.16663C8.19929 6.17338 8.17379 6.17088 8.14929 6.17263L8.14879 6.19388C8.18929 6.19938 8.23079 6.20213 8.27029 6.21313C8.29254 6.21988 8.32879 6.24638 8.32729 6.25588C8.32004 6.28213 8.29779 6.30588 8.27954 6.32863C8.27429 6.33413 8.26004 6.33288 8.25054 6.33288C8.13429 6.33338 8.01779 6.33288 7.90154 6.33388C7.85229 6.33388 7.82154 6.30563 7.82104 6.26338C7.82104 6.21338 7.86154 6.21188 7.90379 6.21338C7.93154 6.21463 7.96079 6.19813 7.98904 6.18963L7.98429 6.16863C7.96104 6.16863 7.93654 6.17488 7.91604 6.16713C7.88854 6.15638 7.85704 6.13913 7.84329 6.11538C7.83329 6.09863 7.84154 6.05763 7.85754 6.04288C7.87529 6.02563 7.91029 6.02488 7.93979 6.01663L7.88279 6.10913C7.91279 6.11413 7.94279 6.11871 7.97279 6.12288C8.03379 6.15963 8.09379 6.17988 8.16079 6.11813C8.16804 6.11188 8.18679 6.11913 8.19954 6.11713C8.22279 6.11388 8.24604 6.10813 8.26804 6.10388C8.25326 6.0849 8.23809 6.06623 8.22254 6.04788C8.21829 6.04313 8.21079 6.04063 8.20454 6.03738C8.20787 6.02988 8.21087 6.02238 8.21354 6.01488ZM7.97079 6.24238V6.26463H8.17779V6.24238H7.97079ZM7.63754 5.65063C7.70179 5.54213 7.89604 5.54463 7.97504 5.60838C7.9873 5.61725 7.99739 5.62879 8.00454 5.64213C8.04054 5.70388 8.02879 5.93913 7.98304 6.01538V5.86013C7.92929 5.87563 7.88304 5.89863 7.83554 5.90013C7.78904 5.90163 7.74179 5.88288 7.69704 5.86188C7.79904 5.86738 7.89704 5.87063 7.97929 5.79588C7.85779 5.83538 7.74004 5.85488 7.63379 5.74638C7.73854 5.63613 7.85379 5.65388 7.97429 5.70388C7.96554 5.60038 7.87054 5.58563 7.63754 5.65063ZM7.88054 5.74463C7.85229 5.72413 7.83279 5.69963 7.82054 5.70363C7.80229 5.70888 7.78854 5.73238 7.77329 5.74838C7.78904 5.76163 7.80454 5.78263 7.82054 5.78388C7.83604 5.78488 7.85279 5.76438 7.88054 5.74463ZM8.51279 5.74613C8.40529 5.85363 8.28954 5.83788 8.16804 5.79563C8.25004 5.86888 8.34754 5.86888 8.46754 5.84563C8.35829 5.93088 8.26754 5.89988 8.16804 5.85388V6.00488L8.15129 6.00813C8.14454 5.99213 8.13354 5.97563 8.13229 5.95938C8.12754 5.88188 8.12129 5.80338 8.12329 5.72588C8.12554 5.62963 8.15979 5.59388 8.25604 5.57163C8.34979 5.55013 8.43279 5.56488 8.51679 5.64663C8.43829 5.63163 8.37654 5.61113 8.31504 5.61113C8.25704 5.61163 8.18279 5.60788 8.16129 5.70588C8.29054 5.65563 8.40754 5.63463 8.51279 5.74613ZM8.30729 5.81038L8.34054 5.79263C8.35054 5.77588 8.37154 5.75688 8.36904 5.74263C8.36504 5.72688 8.34179 5.71488 8.32679 5.70113C8.31204 5.71738 8.28854 5.73213 8.28529 5.75063C8.28229 5.76888 8.29904 5.79063 8.30729 5.81038ZM7.95479 6.46588L8.04654 6.42488C8.04737 6.41838 8.04771 6.41188 8.04754 6.40538C8.00329 6.40538 7.95879 6.40988 7.91479 6.40438C7.88029 6.39901 7.84779 6.3847 7.82054 6.36288H8.32554C8.31004 6.40588 8.29179 6.41388 8.23804 6.40713C8.19629 6.40288 8.15429 6.40663 8.11154 6.40663C8.11221 6.41229 8.11262 6.41838 8.11279 6.42488C8.13754 6.43713 8.16254 6.44988 8.19629 6.46588H7.95429" fill="#7B4022"/>
<path fill-rule="evenodd" clip-rule="evenodd" d="M7.97094 6.24293H8.17794V6.26518H7.97094V6.24293ZM7.88069 5.74468C7.85294 5.76418 7.83594 5.78468 7.82069 5.78368C7.80469 5.78243 7.78919 5.76143 7.77344 5.74818C7.78894 5.73243 7.80244 5.70868 7.82069 5.70343C7.83294 5.69993 7.85244 5.72418 7.88069 5.74468ZM8.30794 5.80993C8.29969 5.79018 8.28269 5.76843 8.28594 5.75018C8.28919 5.73168 8.31269 5.71693 8.32744 5.70068C8.34244 5.71443 8.36569 5.72643 8.36969 5.74218C8.37219 5.75668 8.35119 5.77543 8.34119 5.79218L8.30794 5.80993Z" fill="#FDD12E"/>
</g>
<defs>
<clipPath id="clip0_122_246">
<rect width="16" height="12" fill="white"/>
</clipPath>
</defs>
</svg>
