<svg width="16" height="12" viewBox="0 0 16 12" fill="none" xmlns="http://www.w3.org/2000/svg">
<g clip-path="url(#clip0_122_294)">
<g clip-path="url(#clip1_122_294)">
<path fill-rule="evenodd" clip-rule="evenodd" d="M0 0H16V12H0V0Z" fill="#F7FCFF"/>
<path fill-rule="evenodd" clip-rule="evenodd" d="M0 7.3335V8.3335H16V7.3335H0ZM0 9.1665V10.1665H16V9.1665H0ZM0 3.6665V4.6665H16V3.6665H0ZM0 11V12H16V11H0ZM0 5.5V6.5H16V5.5H0ZM0 0V1H16V0H0ZM0 1.8335V2.8335H16V1.8335H0Z" fill="#E31D1C"/>
<path d="M0 0H10V6.5H0V0Z" fill="#2E42A5"/>
<path fill-rule="evenodd" clip-rule="evenodd" d="M0.860852 1.46951L0.497852 1.72401L0.620352 1.27101L0.297852 0.984014H0.719352L0.860352 0.614014L1.02585 0.984014H1.38485L1.10285 1.27101L1.21185 1.72401L0.860852 1.46951ZM2.86085 1.46951L2.49785 1.72401L2.62035 1.27101L2.29835 0.984014H2.71935L2.86035 0.614014L3.02585 0.984014H3.38485L3.10285 1.27101L3.21185 1.72401L2.86085 1.46951ZM4.49785 1.72401L4.86085 1.46901L5.21185 1.72401L5.10285 1.27101L5.38485 0.984014H5.02585L4.86035 0.614014L4.71935 0.984014H4.29835L4.62035 1.27101L4.49785 1.72401ZM6.86085 1.46901L6.49785 1.72401L6.62035 1.27101L6.29835 0.984014H6.71935L6.86035 0.614014L7.02585 0.984014H7.38485L7.10285 1.27101L7.21185 1.72401L6.86085 1.46901ZM0.497852 3.72451L0.860852 3.46951L1.21185 3.72451L1.10285 3.27151L1.38485 2.98451H1.02585L0.860352 2.61451L0.719352 2.98451H0.297852L0.620352 3.27151L0.497852 3.72451ZM2.86085 3.46951L2.49785 3.72451L2.62035 3.27151L2.29835 2.98451H2.71935L2.86035 2.61451L3.02585 2.98451H3.38485L3.10285 3.27151L3.21185 3.72451L2.86085 3.46951ZM4.49785 3.72451L4.86085 3.46951L5.21185 3.72451L5.10285 3.27151L5.38485 2.98451H5.02585L4.86035 2.61451L4.71935 2.98451H4.29835L4.62035 3.27151L4.49785 3.72451ZM6.86085 3.46951L6.49785 3.72451L6.62035 3.27151L6.29835 2.98451H6.71935L6.86035 2.61451L7.02585 2.98451H7.38485L7.10285 3.27151L7.21185 3.72451L6.86085 3.46951ZM0.497852 5.72451L0.860852 5.46951L1.21185 5.72451L1.10285 5.27151L1.38485 4.98451H1.02585L0.860352 4.61451L0.719352 4.98451H0.297852L0.620352 5.27151L0.497852 5.72451ZM2.86085 5.46951L2.49785 5.72451L2.62035 5.27151L2.29835 4.98451H2.71935L2.86035 4.61451L3.02585 4.98451H3.38485L3.10285 5.27151L3.21185 5.72451L2.86085 5.46951ZM4.49785 5.72451L4.86085 5.46951L5.21185 5.72451L5.10285 5.27151L5.38485 4.98451H5.02585L4.86035 4.61451L4.71935 4.98451H4.29835L4.62035 5.27151L4.49785 5.72451ZM6.86085 5.46951L6.49785 5.72451L6.62035 5.27151L6.29835 4.98451H6.71935L6.86035 4.61451L7.02585 4.98451H7.38485L7.10285 5.27151L7.21185 5.72451L6.86085 5.46951ZM8.49785 1.72451L8.86085 1.46951L9.21185 1.72451L9.10285 1.27151L9.38485 0.984514H9.02585L8.86035 0.614514L8.71935 0.984514H8.29785L8.62035 1.27151L8.49785 1.72451ZM8.86085 3.46951L8.49785 3.72451L8.62035 3.27151L8.29785 2.98451H8.71935L8.86035 2.61451L9.02585 2.98451H9.38485L9.10285 3.27151L9.21185 3.72451L8.86085 3.46951ZM8.49785 5.72451L8.86085 5.46951L9.21185 5.72451L9.10285 5.27151L9.38485 4.98451H9.02585L8.86035 4.61451L8.71935 4.98451H8.29785L8.62035 5.27151L8.49785 5.72451ZM1.86085 2.46901L1.49785 2.72401L1.62035 2.27101L1.29785 1.98401H1.71935L1.86035 1.61401L2.02585 1.98401H2.38485L2.10285 2.27101L2.21185 2.72401L1.86085 2.46901ZM3.49785 2.72401L3.86085 2.46901L4.21185 2.72401L4.10285 2.27101L4.38485 1.98401H4.02585L3.86035 1.61401L3.71935 1.98401H3.29785L3.62035 2.27101L3.49785 2.72401ZM5.86085 2.46901L5.49785 2.72401L5.62035 2.27101L5.29835 1.98401H5.71935L5.86035 1.61401L6.02585 1.98401H6.38485L6.10285 2.27101L6.21185 2.72401L5.86085 2.46901ZM1.49785 4.72401L1.86085 4.46901L2.21185 4.72401L2.10285 4.27101L2.38485 3.98401H2.02585L1.86035 3.61401L1.71935 3.98401H1.29785L1.62035 4.27101L1.49785 4.72401ZM3.86085 4.46901L3.49785 4.72401L3.62035 4.27101L3.29835 3.98401H3.71935L3.86035 3.61401L4.02585 3.98401H4.38485L4.10285 4.27101L4.21185 4.72401L3.86085 4.46901ZM5.49785 4.72401L5.86085 4.46901L6.21185 4.72401L6.10285 4.27101L6.38485 3.98401H6.02585L5.86035 3.61401L5.71935 3.98401H5.29835L5.62035 4.27101L5.49785 4.72401ZM7.86085 2.46901L7.49785 2.72401L7.62035 2.27101L7.29835 1.98401H7.71935L7.86035 1.61401L8.02585 1.98401H8.38485L8.10285 2.27101L8.21185 2.72401L7.86085 2.46901ZM7.49785 4.72401L7.86085 4.46901L8.21185 4.72401L8.10285 4.27101L8.38485 3.98401H8.02585L7.86035 3.61401L7.71935 3.98401H7.29835L7.62035 4.27101L7.49785 4.72401Z" fill="#F7FCFF"/>
</g>
</g>
<defs>
<clipPath id="clip0_122_294">
<rect width="16" height="12" fill="white"/>
</clipPath>
<clipPath id="clip1_122_294">
<rect width="16" height="12" rx="2" fill="white"/>
</clipPath>
</defs>
</svg>
