<svg width="1489" height="1489" viewBox="0 0 1489 1489" fill="none" xmlns="http://www.w3.org/2000/svg">
<g clip-path="url(#clip0_4982_74980)">
<path d="M695.74 0.400695C692.538 0.691757 682.349 1.71047 673.179 2.43813C461.692 21.5027 263.595 135.599 138.129 310.964C68.264 408.469 23.5795 519.073 6.69541 636.225C0.727761 677.119 0 689.198 0 744.646C0 800.093 0.727761 812.172 6.69541 853.066C47.1589 1132.63 246.129 1367.52 515.983 1454.55C564.306 1470.12 615.25 1480.74 673.179 1487.14C695.74 1489.62 793.26 1489.62 815.821 1487.14C915.815 1476.08 1000.53 1451.34 1084.07 1408.7C1096.88 1402.15 1099.36 1400.41 1097.61 1398.95C1096.45 1398.08 1041.86 1324.88 976.365 1236.39L857.303 1075.58L708.112 854.813C626.02 733.44 558.484 634.188 557.902 634.188C557.32 634.042 556.738 732.13 556.446 851.902C556.01 1061.61 555.864 1070.05 553.244 1075C549.46 1082.13 546.549 1085.04 540.436 1088.24C535.778 1090.57 531.703 1091.01 509.724 1091.01H484.544L477.848 1086.79C473.482 1084.02 470.279 1080.39 468.096 1076.17L465.04 1069.62L465.331 777.827L465.767 485.892L470.279 480.216C472.608 477.16 477.557 473.231 481.05 471.339C487.018 468.428 489.347 468.137 514.527 468.137C544.22 468.137 549.169 469.301 556.883 477.742C559.066 480.071 639.848 601.734 736.495 748.284C833.141 894.834 965.303 1094.94 1030.22 1193.17L1148.12 1371.74L1154.08 1367.81C1206.92 1333.46 1262.81 1284.57 1307.06 1233.63C1401.23 1125.5 1461.93 993.649 1482.3 853.066C1488.27 812.172 1489 800.093 1489 744.646C1489 689.198 1488.27 677.119 1482.3 636.225C1441.84 356.66 1242.87 121.773 973.017 34.746C925.421 19.3197 874.769 8.69596 818.004 2.2926C804.031 0.837288 707.821 -0.763552 695.74 0.400695ZM1000.53 450.673C1007.51 454.166 1013.19 460.861 1015.23 467.846C1016.39 471.63 1016.68 552.545 1016.39 734.895L1015.96 996.56L969.815 925.832L923.529 855.104V664.895C923.529 541.921 924.112 472.794 924.985 469.447C927.314 461.297 932.408 454.894 939.395 451.11C945.362 448.054 947.545 447.763 970.397 447.763C991.939 447.763 995.723 448.054 1000.53 450.673Z" fill="black"/>
</g>
<defs>
<clipPath id="clip0_4982_74980">
<rect width="1489" height="1489" fill="white"/>
</clipPath>
</defs>
</svg>
